<svg xmlns="http://www.w3.org/2000/svg" width="744.09" height="1052.36" viewBox="0 0 744.09448819 1052.3622047" xmlns:xlink="http://www.w3.org/1999/xlink"><defs><path id="1" d="m310.37 440.52l5.03 14.624-12.713-7.497.493 15.456-9.939-10.911-4.085 14.914-6.281-13.356-8.299 13.05-2.065-14.614-11.777 10.02 2.334-14.573-14.207 6.105 6.526-13.238-15.376 1.646 10.138-10.726-15.178-2.959 12.849-7.262-13.632-7.301 14.419-3.152-10.874-10.995 14.707 1.238-7.15-13.711 13.689 5.518-2.791-15.21 11.454 9.308 1.816-15.357 8.202 12.271 6.262-14.14 4.22 14.14 10.151-11.665-.136 14.759 13.14-8.155-4.48 14.06 14.959-3.92-8.426 12.12 15.449.664-11.623 9.1 14.567 5.188-13.788 5.265 12.391 9.251-14.727.967 9.114 12.493z" fill="#241f1c"/><path id="2" d="m297.87 409.41c.413.015.043.888.316 1.2.255.291 1.085.055 1.073.442-.024.778-2.21.758-2.21.758 0 0-.024-2.43.821-2.399" fill-rule="evenodd" fill="#333"/><path id="3" d="m277 432.42l-.084 6.293" stroke="#645e5a" fill-rule="evenodd" fill="none" stroke-width="1.462"/><path id="4" d="m271.9 434.83c.57.433 1.045.989 1.384 1.619.362.674.567 1.431.595 2.196" stroke="#645e5a" fill-rule="evenodd" fill="none" stroke-width="1.462"/><path id="5" d="m284.45 415.91c3.286 3.878 11.143 4.493 13.258-.442" fill-rule="evenodd" fill="none"/><path id="6" d="m281.02 383.86c-1.392.92 1.497 1.442-.533 3.161-2.03 1.719-4.197 4.502-5.959 6.693-1.761 2.191-3.183 4.426-4.751 7.05-1.568 2.619-3.416 6.102-4.581 8.684-1.165 2.582-1.926 3.726-2.545 6.718-.62 2.992-.735 8.123-.509 11.142.226 3.02.341 4.855 1.357 6.882 10.181 16.598 49.43 14.711 54.3-5.079.791-3.355.426-6.897-.17-10.322-.596-3.426-1.862-6.37-3.394-9.995-1.532-3.625-3.379-7.988-5.939-11.633-2.56-3.645-6.734-7.216-9.396-9.422-2.662-2.205-.32-3.538-2.088-4.342-1.768-.803-7.03-1.475-8.2-1.311-1.165.164-6.2.86-7.592 1.78z" stroke="#241f1c" fill="#c8beb7" fill-rule="evenodd" stroke-width="3.9"/><path id="7" d="m275.79 385.88c-.594 4.627 7.647-.854 10.997.65 1.412.634 1.741 3.151 3.283 3.283 1.745.149 2.603-2.569 4.293-3.03 2.565-.7 9.01 5.02 7.949.653-.533-2.183-4.01-7.986-9.01-8.24-5-.254-17.217 4.37-17.514 6.684" fill-rule="evenodd" fill="#241f1c"/><path id="8" d="m260.61 423.13c1.254 1.232 2.771 2.195 4.419 2.805 3.348 1.238 7.228.948 10.354-.774.873-.389 1.606-1.083 2.044-1.933.438-.85.577-1.85.388-2.786-.189-.937-.706-1.804-1.439-2.417-.733-.613-1.679-.967-2.634-.987-1.238-.026-2.427.486-3.662.58-.462.035-.926.011-1.389 0-2.686-.065-5.381.295-7.955 1.064" fill-rule="evenodd" fill="#241f1c"/><path id="9" d="m281.78 434.81c-.57.433-1.045.989-1.384 1.619-.362.674-.567 1.431-.595 2.196" stroke="#645e5a" fill-rule="evenodd" fill="none" stroke-width="1.462"/><path id="A" d="m439.06 163.68c0 4.7 2.2 6.3 4.8 6.3 2.7 0 4.8-1.6 4.8-6.3 0-4.7-2.9-11.1-4.8-11.1-1.6 0-4.8 6.4-4.8 11.1" opacity=".786" fill="#59a4b8"/><path id="B" d="m290.95 415.08c0 1.242 0 2.483 0 3.725" stroke-width=".864" fill-rule="evenodd" fill="none"/><filter id="0" x="-.252" width="1.504" y="-.608" height="2.215" color-interpolation-filters="sRGB"><feGaussianBlur stdDeviation=".62347"/></filter></defs><g word-spacing="0" line-height="125%" letter-spacing="0" font-size="70"><text x="68.69" y="488.19" font-family="monospace"><tspan x="68.69" y="488.19"/></text><text x="390.42" y="510.92" font-family="&apos;Sitka Text&apos;"><tspan x="390.42" y="510.92"/></text></g><g transform="translate(3.192-48.36)"><path d="m197.73054 385.44899a19.10714 35.982143 0 0 1 1.71432 -1.9398" fill="#ececec"/><g transform="matrix(1.49593 0 0 1.5123-191.29-241.75)"><g font-family="sans-serif" word-spacing="0" line-height="125%" letter-spacing="0"><text y="468.29" x="163.65" xml:space="preserve" font-size="70" transform="translate(143.81-23.15)" fill="#241f1c"><tspan y="468.29" x="163.65" font-family="overpass" letter-spacing="-3" font-size="45">[   ]lis</tspan></text><text transform="scale(1.05552.9474)" y="465.1" x="300.64" fill="#2ca05a" font-size="47.543"><tspan y="465.1" x="300.64" font-family="overpass" letter-spacing="-2.038" font-size="30.563">au</tspan></text></g><g transform="translate(-105.04 1.395)" fill="none" stroke="#000" stroke-width=".665"><ellipse ry="1.151" rx="1.119" cy="588.02" cx="307.89"/><path d="m307.09 588.73l-1.701 1.151" fill-rule="evenodd"/></g><g fill="none" stroke="#000"><g transform="matrix(1 0 0 .93577-105.02 39.714)" fill-rule="evenodd" stroke-width=".532"><path d="m310.44 586.87h2.746"/><path d="m310.44 587.8h2.746"/><path d="m310.43 588.84h2.746"/></g><g transform="matrix(.92204 0 0 1.09081-80.44-51.42)"><path stroke-width=".466" d="m314.2 586.89h3.242v2.215h-3.242z"/><path d="m314.42 587.22l1.374.979 1.477-.935.029-.234-2.88.015z" fill-rule="evenodd" stroke-width=".665"/></g></g></g><g font-family="sans-serif" word-spacing="0" line-height="125%" letter-spacing="1.45" font-size="20"><text x="268.03" y="350.94"><tspan x="268.03" y="350.94">favicon</tspan></text><text x="443.3" y="356.91" text-anchor="middle" text-align="center"><tspan x="444.03" y="356.91">mascotte</tspan><tspan x="444.03" y="381.91">¨charlie¨</tspan><tspan x="443.3" y="406.91"/></text><text x="272.96" y="459.7"><tspan x="272.96" y="459.7">logo</tspan></text></g><ellipse cx="157.42" cy="286.04" rx="10.228" ry="10.1" fill="#227b45" fill-opacity=".941"/><ellipse cx="180.26" cy="286.75" rx="10.228" ry="10.1" fill="#241f1c"/><ellipse cx="157.67" cy="332" rx="10.228" ry="10.1" fill="#1a1a1a"/><ellipse cx="157.42" cy="309.27" rx="10.228" ry="10.1" fill="#4d4d4d"/><ellipse cx="180.66" cy="309.27" rx="10.228" ry="10.1" fill="#ccc"/><ellipse cx="157.42" cy="264.32" rx="10.228" ry="10.1" fill="#5fd38d"/><ellipse cx="134.95" cy="287.06" rx="10.228" ry="10.1" fill="#00d4aa"/><ellipse cx="135.45" cy="264.57" rx="10.228" ry="10.1" fill="#719880"/><ellipse cx="133.68" cy="331.24" rx="10.228" ry="10.1" fill="#c83737"/><ellipse cx="132.93" cy="352.46" rx="10.228" ry="10.1" fill="#a02c2c"/><ellipse cx="111.66" cy="331.75" rx="10.228" ry="10.1" fill="#e9afaf"/><ellipse cx="113.23" cy="287.05" rx="10.228" ry="10.1" fill="#f60"/><text x="90.29" y="240.54" font-family="sans-serif" word-spacing="0" line-height="125%" letter-spacing="1.45" font-size="20"><tspan x="90.29" y="240.54">colours</tspan></text><g transform="matrix(1.23184 0 0 1.30578-68.54-101.76)"><ellipse cx="309.07" cy="292.1" rx="38.512" ry="37.38" fill="#2ca05a"/><g transform="matrix(.70234 0 0 .64121 105.73 30.656)"><use transform="matrix(.73054 0 0 .81323 82.27 64.17)" xlink:href="#1"/><use xlink:href="#6"/><path d="m281.81 382.58c-1.31.867 1.409 1.358-.502 2.978-1.911 1.62-3.951 4.242-5.609 6.306-1.658 2.064-2.996 4.17-4.473 6.638-1.476 2.468-3.216 5.749-4.313 8.182-1.097 2.433-1.813 3.511-2.396 6.329-.583 2.819-.692 7.654-.479 10.498.212 2.844.321 4.575 1.278 6.484 9.584 15.638 46.529 13.861 51.12-4.786.745-3.161.401-6.498-.16-9.726-.561-3.228-1.753-6-3.195-9.417-1.442-3.415-3.181-7.526-5.591-10.961-2.41-3.435-6.34-6.799-8.845-8.877-2.506-2.078-.301-3.334-1.965-4.091-1.664-.757-6.623-1.39-7.719-1.235-1.097.154-5.837.81-7.147 1.677" fill="#d7cfc9" fill-rule="evenodd" id="E"/><use xlink:href="#7"/><ellipse cx="290.59" cy="404.05" rx="17.488" ry="7.955" fill="#bab2ad"/><path d="m302.43297 409.05188a1.026786 1.049107 0 0 1 -.0156 .18218" fill="#4d4d4d"/><g transform="matrix(-.71528 0 0 .8 496.21 74.47)"><ellipse ry="2.841" rx="4.104" cy="409.21" cx="301.37" fill="#333"/><use xlink:href="#2"/><ellipse ry="1.987" rx="2.031" cy="409.28" cx="301.29" fill="#f2f2f2"/><ellipse ry="1.138" rx="1.205" cy="409.45" cx="301.36" fill="#333"/><circle r=".379" cy="409.36" cx="301.56" fill="#fff"/></g><ellipse cx="291.5" cy="409.72" rx="5.179" ry="2.165" fill="#1a1a1a"/><use xlink:href="#8"/><g transform="matrix(.71528 0 0 .8 84.87 74.961)"><ellipse ry="2.841" rx="4.104" cy="409.21" cx="301.37" fill="#333"/><use xlink:href="#2"/><ellipse ry="1.987" rx="2.031" cy="409.28" cx="301.29" fill="#f2f2f2"/><ellipse ry="1.138" rx="1.205" cy="409.45" cx="301.36" fill="#333"/><circle r=".379" cy="409.36" cx="301.56" fill="#fff"/></g><path d="m319.77 423.15c-1.446 1.264-3.156 2.226-4.988 2.805-3.381 1.068-7.169.785-10.354-.774-.873-.389-1.606-1.083-2.044-1.933-.438-.85-.577-1.85-.388-2.786.189-.937.706-1.804 1.439-2.417.733-.613 1.679-.967 2.634-.987 1.238-.026 2.427.486 3.662.58.462.035.926.011 1.389 0 2.686-.065 5.381.295 7.955 1.064" fill="#241f1c" fill-rule="evenodd" id="F"/><g><g transform="matrix(1.0041 0 0 .90991-.504 40.16)"><ellipse cx="276.23" cy="439.84" rx="6.889" ry="9.147" fill="#c8bdb4" stroke="#241f1c" stroke-width="1.283"/><ellipse cx="276.15" cy="439.08" rx="6.478" ry="7.694" fill="#d7cfc9"/></g><use xlink:href="#4"/><use xlink:href="#3"/><use xlink:href="#9"/></g><ellipse cx="282.17" cy="437.42" rx="2.967" ry="1.231" transform="matrix(1.24741 0 0 2.10642-75.3-477.32)" opacity=".09" fill="#af9a66" filter="url(#0)" fill-opacity=".834"/><g transform="translate(25.12.886)"><g transform="matrix(1.0041 0 0 .90991-.504 40.16)"><ellipse cx="276.23" cy="439.84" rx="6.889" ry="9.147" fill="#c8bdb4" stroke="#241f1c" stroke-width="1.283"/><ellipse cx="276.15" cy="439.08" rx="6.478" ry="7.694" fill="#d7cfc9"/></g><use xlink:href="#4"/><use xlink:href="#3"/><use xlink:href="#9"/></g><g transform="translate(.189-3.094)" stroke="#9f9995"><use xlink:href="#5"/><use xlink:href="#B"/></g><g stroke="none"><ellipse cx="279.02" cy="406.4" rx="2.967" ry="1.231" opacity=".15" fill="#fdb8d9" filter="url(#0)"/><ellipse cx="282.17" cy="437.42" rx="2.967" ry="1.231" transform="matrix(1.24741 0 0 2.10642-50.615-476.47)" opacity=".139" fill="#af9a66" filter="url(#0)" fill-opacity=".834"/><ellipse cx="301.87" cy="407.13" rx="2.967" ry="1.231" opacity=".15" fill="#fdb8d9" filter="url(#0)"/></g></g></g><g word-spacing="0" line-height="125%"><g font-family="sans-serif"><g transform="matrix(1.49593 0 0 1.5123-194.07-141.73)" fill="#ccc" letter-spacing="0"><text y="468.29" x="163.65" xml:space="preserve" font-size="70" transform="translate(143.81-23.15)"><tspan y="468.29" x="163.65" font-family="overpass" fill="#ccc" letter-spacing="-3" font-size="45">[   ]lis</tspan></text><text transform="scale(1.05552.9474)" y="465.1" x="300.64" font-size="47.543"><tspan y="465.1" x="300.64" font-family="overpass" fill="#ccc" letter-spacing="-2.038" font-size="30.563">au</tspan></text></g><g fill="#000" letter-spacing="1.45"><text x="271.65" y="561.28" font-size="20"><tspan x="271.65" y="561.28">logo gray for</tspan><tspan x="271.65" y="586.28">the footer</tspan></text><text x="165.5" y="577.47" font-size="45"><tspan x="165.5" y="577.47"/></text></g></g><g font-family="overpass" fill="#fff" letter-spacing="-.07" font-size="10"><text x="127.74" y="269.14"><tspan x="127.74" y="269.14">bg1</tspan></text><text x="148.89" y="311.91"><tspan x="148.89" y="311.91">bg2</tspan></text></g><text x="106.03" y="617.01" font-family="sans-serif" fill="#000" letter-spacing="1.45" font-size="20"><tspan x="106.03" y="617.01">icons</tspan><tspan x="106.03" y="642.01">need to be exported as 32x28</tspan></text></g><g transform="matrix(.96869 0 0 .92379 4.339 49.642)" stroke="#000"><g transform="matrix(1.0016 0 0 .94757-19.709 39.503)" fill="none" fill-rule="evenodd"><path d="m126.57 650.4l3.737-1.626 3.952 1.505" stroke-width="1.102"/><path d="m127.62 655.46l-.216-3.76 2.909-1.442 3.237 1.334-.341 3.81-1.9.029-.062-1.976-1.355.029v1.947z" stroke-width="1.057"/><path d="m133.06 649.69l.06-1.694" stroke-width=".802"/></g><g transform="matrix(.93069 0 0 .91718 8.529 54.36)"><ellipse ry="3.253" rx="3.171" cy="659.25" cx="121.2" fill="none" stroke-width=".951"/><g transform="matrix(.05424 0 0 .04953 114.73 626.05)" stroke-width="3.039" fill-rule="evenodd"><path d="m117.14 679.63c-2.067-.348-6.107 4.956-9.807 4.059-3.7-.896-6.516-6.261-8.259-9.472-1.743-3.211-3.479-5.654-2.581-8.931.899-3.277 6.33-5.144 8-7.307 1.67-2.163.752-3.4 2.581-4.871 1.829-1.471 5.888-1.639 8.259-2.165 2.37-.526 5.936-1.082 5.936-1.082 0 0 .689.441 1.548 1.353.859.912 1.497 3.316 3.355 4.33 1.858 1.014 4.465.158 7.226.541 2.761.383 5.223-1.198 9.291 1.894 4.068 3.092 6.463 16.724 10.07 18.944 3.602 2.219 2.833-2.838 4.387 0 1.555 2.838-5.991 9.807-7.226 12.99-1.235 3.183-.281 2.768-1.29 5.412-1.01 2.645-5.01 7.583-5.42 10.01-.411 2.43 1.161 1.279.516 3.247-.645 1.968-3.947 4.847-6.452 6.224-2.505 1.377-6.362 3.268-8 1.894-1.639-1.374.571-2.622 0-4.601-.571-1.979-3.659-4.049-4.129-6.495-.47-2.446 1.065-5.315 1.29-7.04.226-1.721.435-2.175.258-3.247-.177-1.072-.737-1.932-1.29-2.977-.554-1.045-1.542-1.695-2.065-3.247-.523-1.553.453-4.464-.516-5.954-.969-1.489-3.204-1.531-4.129-2.165-.925-.634.518-1-1.548-1.353z"/><path d="m106.92 649.54l-.274-6.219 4.653-1.34 1.916-.765-.091-2.296v-.765l.365-1.914 2.555-.191 2.281-1.052 1.916-2.488 1.46-1.148 1-.191c0 0 1 .478 1.186.861.182.383 1.277 1.818 1.277 1.818l1.916 1.052 3.102-1.244.639-1.627.183-2.679-1.551-1.722h-1.277l-1.095 1.627-.821 1.531-1 .191-1.734-.957v-2.583l-.547-.191-3.194.191c0 0-.851-1.692-.456-2.392.617-1.094 2.34-.682 3.467-1.148 1.379-.57 2.589-1.583 4.01-2.01 1.059-.317 2.184-.336 3.285-.383 1-.042 2.01.036 3.01.096 1.097.065 2.189.205 3.285.287 1.033.077 2.069.116 3.102.191.761.055 1.617-.201 2.281.191.816.482.891 1.858 1.642 2.392.751.534 1.845.599 2.555.67.71.071.715-.24 1.642-.096.928.145 2.32.621 3.741 1.435 1.421.814 3.459 2.438 4.562 3.636 1.103 1.198 1.489 2.148 2.19 3.253.476.752.862 1.566 1.369 2.296 1.473 2.123 3.446 3.844 4.836 6.03 2.205 3.465 4.148 7.173 5.475 11.1.653 1.934.846 4.01 1.186 6.03.363 2.159.731 4.322.912 6.506.19 2.289 2.282 6.232.182 6.889-2.054.643-1.98-4.03-3.376-5.741-1.405-1.717-3.134-3.143-4.927-4.401-1.108-.777-2.327-1.378-3.559-1.914-.915-.398-2.829-.957-2.829-.957l-1-.096 1.277 3.253c0 0 1.824 1.505 2.829 2.105.521.311 1.249.291 1.642.765.581.701.993 1.792.73 2.679-.468 1.579-2.404 2.143-3.65 3.157-1.1.896-3.376 2.583-3.376 2.583h-2.646l-1.916-3.827-2.01-4.306-2.01-4.593-2.646-2.392-1.095-1.531 1.369-2.105v-3.54l-2.281 1.34-1.551-1.531-1.734-1.818-.912-2.105 2.099-1.914 1.186-.191 4.01.096h2.372l1.186-1.148-1.642-2.105-2.281-1.435-1.46-1.818-2.372 1.818-2.372 1.722-.912 2.201-.091 1.531-5.02-.383-2.555-1.435-2.555-2.775-1.734-.861-1.369.861 2.01 2.775 1.916 1.627.091.765-1.825.191-1.551-1.722-2.464-2.392-1.642-.765-.912.287-3.285.765-1.186 2.105-1.277 2.583-1.369 1.244-1.825.765h-3.102-.821z"/><path d="m106.92 632.12l-.912 2.105 2.01.096.639-1.148-.547-1.34z"/><path d="m109.66 628.97l.547 3.157-.821 2.679 1.642.096 1-.478 2.281-.574-.456-.861-1.916-2.01-1.186-1.435-.182-.574z"/><path d="m107.1 624.18l-1.734.957 2.099.957 1.916-.765-.456-.574z"/><path d="m112.67 625.52l-.639 1.052z"/><path d="m82.1 630.69c0 0 2.73 2.37 4.289 2.105 2.4-.407 3.483-3.56 5.292-5.262 1.96-1.843 4.278-3.29 6.02-5.358.844-1 2.953-2.359 2.099-3.349-1.497-1.734-4.03 2.034-5.931 3.253-1.62 1.038-3.129 2.258-4.654 3.444-2.384 1.855-7.03 5.741-7.03 5.741"/><path d="m66.42 669.34l.774-8.931 6.323-9.07-1.419-1.624 3.871-4.33v-5.954c0 0-3.484 4.217-4.387 6.224-.903 2.01-.528 3.351-1.29 5.412-.763 2.062-2.684 3.678-3.484 6.766-.8 3.088-.387 11.502-.387 11.502z"/><path d="m67.59 684.65l.912 5.741 2.19 5.358 4.01 6.315 4.38 5.358 2.92 4.21 4.562.765v-6.889l.73-1.531-.365-3.253-6.205-3.444-2.555-2.87-1.095-3.444z"/><path d="m150.81 705.89l-.182-3.253 1.825-3.827 3.467-2.87.365 4.593-2.372 4.784-2.01 2.105z"/></g></g></g><ellipse cx="184.19" cy="360.39" rx="10.228" ry="10.1" fill="#e9e9e9" stroke="none"/><path d="m129.14 649.02l-1.934 3.207 3.69.023z" fill-rule="evenodd" stroke="#000" stroke-width=".312"/><text x="112.14" y="747.34" transform="scale(1.14609.87253)" font-family="overpass" fill="#fff" stroke="none" word-spacing="0" line-height="125%" letter-spacing=".378" font-size="3.581"><tspan x="112.14" y="747.34">!</tspan></text><path d="m127.58 658.99l1.394 1 2.157-2.544" stroke-opacity=".941" fill="none" fill-rule="evenodd" stroke="#227b45" stroke-width="1.241" transform="matrix(1.006 0 0 .87891-.781 79.53)"/><ellipse cx="118.08" cy="309.83" rx="10.228" ry="10.1" fill="#9ae3b7"/><ellipse cx="107.69" cy="665.44" rx=".398" ry=".464"/><path d="m110.41 662.76c.045.057-.054.089-.094.076-.109-.037-.111-.182-.057-.263.097-.146.307-.142.433-.039.185.151.173.433.02.602-.204.225-.561.205-.772.002-.265-.256-.237-.688.017-.941.307-.306.816-.27 1.11.035.347.359.302.944-.053 1.28-.41.387-1.072.335-1.449-.072-.428-.462-.367-1.2.09-1.619.513-.469 1.328-.4 1.788.109.51.565.432 1.457-.127 1.957" transform="matrix(1.0015 0 0 .91789-.169 54.31)" fill="none" fill-rule="evenodd" stroke="#000" stroke-width=".1"/><g fill="#fff"><ellipse cx="379.66" cy="102.58" rx="18.8" ry="22.9"/><ellipse cx="451.56" cy="102.58" rx="18.8" ry="22.9"/></g><g transform="matrix(1.16612 0 0 1.18698-32.14-60.43)"><g transform="matrix(.59578 0 0 .95098 238.41-1049.88)"><path d="m364.9 1439.2c0-3.6 35.1-6.7 51.3-6.7 16.2 0 20.4 3.8 15.4 3.8-5 0 29.5-1.5 35.9-1.5 6.4 0 13.2.1 17 .1 3.8 0 30.376 1.778 30.376 5.778 0 4-19.5 2.9-28.1 2.9-8.6 0-21.876 1.822-21.876 3.621 0 1.8 3.8.6 3.8 2.3 0 1.7-19.1 3.4-41.8 3.4-22.7 0-49.3-2.6-49.3-5.7 0-3.1 5.9-1.9 5.9-3.6 0-1.7-18.6-1.2-18.6-4.4" opacity=".7" fill="#4f97c5" fill-opacity=".681"/><g fill="#fff"><path d="m467.5 1434.8c-5 0-27.7.9-34.4 1.3.8-.3.7-.8-.3-1.3l-54.9 13c2.2 2 14.7 3.7 29.2 4.5l73.7-17.5c-3.8 0-8.7 0-13.3 0" opacity=".015" fill-opacity=".864"/><path d="m472.25 1441.51l41.451-4.208c-5.7-.7-12-1.3-17.3-1.7l-73.1 17.3h3.6c8.7 0 16.9-.2 23.7-.7l16.4-3.9c-1-.2-2.1-.3-2.1-1.2-.1-.9-1.251-5.091 7.349-5.591" opacity=".079"/></g></g><g transform="translate(204.95-127)"><use transform="matrix(.73054 0 0 .81323 82.27 64.17)" xlink:href="#1"/><g transform="matrix(1.01234 0 0 .60332-3.376 182.53)" opacity=".429"><ellipse cx="276.23" cy="439.84" rx="6.889" ry="9.147" opacity="1" fill="#c8bdb4"/><ellipse cx="276.15" cy="439.08" rx="6.478" ry="7.694" opacity="1" fill="#d7cfc9"/></g><use xlink:href="#6"/><use xlink:href="#E"/><use xlink:href="#7"/><ellipse cx="290.59" cy="404.05" rx="17.488" ry="7.955" opacity="1" fill="#bab2ad"/><path d="m302.43297 409.05188a1.026786 1.049107 0 0 1 -.0156 .18218" opacity="1" fill="#4d4d4d"/><g transform="matrix(-.71528 0 0 .8 496.21 74.47)"><ellipse ry="2.841" rx="4.104" cy="409.21" cx="301.37" fill="#333"/><use xlink:href="#2"/><ellipse ry="1.987" rx="2.031" cy="409.28" cx="301.29" fill="#f2f2f2"/><ellipse ry="1.138" rx="1.205" cy="409.45" cx="301.36" fill="#333"/><circle r=".379" cy="409.36" cx="301.56" fill="#fff"/></g><ellipse cx="291.5" cy="409.72" rx="5.179" ry="2.165" fill="#1a1a1a"/><use xlink:href="#8"/><g transform="matrix(.71528 0 0 .8 84.87 74.961)"><ellipse ry="2.841" rx="4.104" cy="409.21" cx="301.37" fill="#333"/><use xlink:href="#2"/><ellipse ry="1.987" rx="2.031" cy="409.28" cx="301.29" fill="#f2f2f2"/><ellipse ry="1.138" rx="1.205" cy="409.45" cx="301.36" fill="#333"/><circle r=".379" cy="409.36" cx="301.56" fill="#fff"/></g><use xlink:href="#F"/><g><g transform="matrix(1.0041 0 0 .90991-.504 40.16)"><ellipse cx="276.23" cy="439.84" rx="6.889" ry="9.147" fill="#c8bdb4" stroke="#241f1c" stroke-width="1.283"/><ellipse cx="276.15" cy="439.08" rx="6.478" ry="7.694" fill="#d7cfc9"/></g><use xlink:href="#4"/><use xlink:href="#3"/><use xlink:href="#9"/></g><ellipse cx="282.17" cy="437.42" rx="2.967" ry="1.231" transform="matrix(1.24741 0 0 2.10642-75.3-477.32)" opacity=".09" fill="#af9a66" filter="url(#0)" fill-opacity=".834"/><g transform="matrix(1.09031 0 0 .60866 1.278 180.77)" opacity=".447"><ellipse cx="276.23" cy="439.84" rx="6.889" ry="9.147" opacity="1" fill="#c8bdb4"/><ellipse ry="7.694" rx="6.478" cy="439.08" cx="276.15" opacity="1" fill="#d7cfc9"/></g><g transform="translate(25.12.886)"><g transform="matrix(1.0041 0 0 .90991-.504 40.16)"><ellipse cx="276.23" cy="439.84" rx="6.889" ry="9.147" fill="#c8bdb4" stroke="#241f1c" stroke-width="1.283"/><ellipse cx="276.15" cy="439.08" rx="6.478" ry="7.694" fill="#d7cfc9"/></g><use xlink:href="#4"/><use xlink:href="#3"/><use xlink:href="#9"/></g><g transform="translate(.189-3.094)" stroke="#9f9995"><path d="m284.12 421.68c3.286-3.878 11.143-4.493 13.258.442" fill="none" fill-rule="evenodd"/><use xlink:href="#B"/></g><ellipse cx="282.17" cy="437.42" rx="2.967" ry="1.231" transform="matrix(1.24741 0 0 2.10642-50.615-476.47)" opacity=".139" fill="#af9a66" filter="url(#0)" stroke="none" fill-opacity=".834"/><g fill="#bab2ad"><path d="m277.48 401.8l8.394-.782-.142-1.202c0 0-4.106-1.496-4.248-1.462-.142.034-3.681.998-3.681.998l-.748 2.12.425.329"/><path transform="matrix(.16485 0 0 .17765 213.49 170.04)" d="m431.9 1311.3l-9.6 13.1-15.8 2.3-10.6-3.9-3.9-11.9z"/></g><g transform="matrix(-1 0 0 1 581 .663)" fill="#bab2ad"><path d="m277.42 401.71l8.251-1.733-.278-1.178c0 0-4.25-1.019-4.387-.969-.137.05-3.544 1.41-3.544 1.41l-.502 2.191.459.278"/><path transform="matrix(.16485 0 0 .17765 213.49 170.04)" d="m395.9 1322.8l-3.9-11.9 39.9.4-9.6 13.1-15.8 2.3z"/></g></g><g transform="matrix(.16585 0 0 .19742 433.52 250.68)"><use xlink:href="#A"/><ellipse ry="2.7" rx="1.5" cy="163.38" cx="442.46" fill="#9bd9e8" fill-opacity=".675"/></g><g transform="matrix(.21345 0 0 .2457 404.21 248.24)"><path d="m367.67 112.29c0 0 13.586 3.381 16.886 5.581 6.1 4-3.1 14.3 4.2 14.3 7.3 0-2.2-13.8 3.3-14.9 4.1-.8 3.602-4.74 2.674-5.216 0 0-19.459-1.565-27.06.235" opacity=".741" fill="#59a4b8"/><ellipse ry="2" rx="1.1" cy="128.48" cx="388.16" fill="#9bd9e8" fill-opacity=".675"/></g><g transform="matrix(.18081.00655-.01123.14947 432.94 279.16)"><use xlink:href="#A"/><ellipse ry="2.7" rx="1.5" cy="163.38" cx="442.46" fill="#9bd9e8" fill-opacity=".675"/></g><g transform="matrix(.15884.04771-.03419.11383 416.58 248.01)"><use xlink:href="#A"/><ellipse ry="2.7" rx="1.5" cy="163.38" cx="442.46" fill="#9bd9e8" fill-opacity=".675"/></g></g><use transform="matrix(.85909 0 0 .94396 195.68-125.17)" xlink:href="#1"/><g fill-rule="evenodd"><path d="m429.4 245.9c-1.637 1.068 1.76 1.673-.627 3.669-2.387 1.996-4.936 5.226-7.01 7.769-2.071 2.543-3.743 5.138-5.587 8.178-1.844 3.04-4.02 7.083-5.388 10.08-1.37 2.997-2.264 4.325-2.993 7.798-.729 3.473-.864 9.429-.599 12.933.265 3.504.401 5.636 1.596 7.988 11.972 19.266 58.12 17.08 63.853-5.896.93-3.895.501-8.01-.2-11.982-.7-3.976-2.19-7.394-3.991-11.601-1.801-4.207-3.974-9.272-6.984-13.503-3.01-4.232-7.919-8.376-11.05-10.936-3.13-2.56-.376-4.107-2.455-5.04-2.079-.933-8.273-1.712-9.643-1.521-1.37.19-7.291.998-8.928 2.066z" fill="#c8beb7" stroke="#241f1c" stroke-width="4.556"/><path d="m430.33 244.42c-1.541 1.01 1.657 1.577-.59 3.457-2.247 1.88-4.646 4.924-6.596 7.32-1.95 2.396-3.524 4.841-5.26 7.705-1.736 2.865-3.782 6.673-5.072 9.497-1.29 2.824-2.132 4.075-2.818 7.347-.686 3.272-.813 8.884-.564 12.185.25 3.301.377 5.31 1.503 7.526 11.271 18.15 54.716 16.09 60.11-5.555.876-3.67.472-7.543-.188-11.289-.659-3.747-2.061-6.967-3.757-10.931-1.696-3.964-3.741-8.736-6.575-12.723-2.834-3.987-7.455-7.892-10.401-10.304-2.946-2.412-.354-3.87-2.311-4.748-1.957-.879-7.788-1.613-9.08-1.434-1.29.179-6.864.94-8.405 1.946" fill="#d7cfc9"/><path d="m423.25 248.26c-.698 5.371 8.993-.992 12.932.755 1.66.736 2.047 3.658 3.861 3.811 2.052.173 3.061-2.982 5.05-3.518 3.02-.812 10.601 5.825 9.347.758-.627-2.534-4.712-9.27-10.593-9.565-5.881-.294-20.246 5.073-20.596 7.759" fill="#241f1c"/></g><ellipse cx="440.66" cy="269.34" rx="20.565" ry="9.234" fill="#bab2ad"/><path d="m454.58233 275.15045a1.207455 1.217752 0 0 1 -.0183 .21146" fill="#4d4d4d"/><g transform="matrix(-.84114 0 0 .9286 682.46-113.22)"><ellipse ry="2.841" rx="4.104" cy="409.21" cx="301.37" fill="#333"/><use xlink:href="#2"/><ellipse ry="1.987" rx="2.031" cy="409.28" cx="301.29" fill="#f2f2f2"/><ellipse ry="1.138" rx="1.205" cy="409.45" cx="301.36" fill="#333"/><circle r=".379" cy="409.36" cx="301.56" fill="#fff"/></g><ellipse cx="441.73" cy="275.92" rx="6.09" ry="2.513" fill="#1a1a1a"/><path d="m405.4 291.49c1.481 1.431 3.264 2.547 5.197 3.256 3.939 1.443 8.491 1.107 12.176-.898 1-.461 1.846-1.27 2.346-2.256.5-.986.656-2.143.434-3.226-.222-1.083-.819-2.086-1.667-2.796-.847-.71-1.939-1.123-3.044-1.152-1.455-.038-2.854.563-4.306.674-.543.041-1.089.013-1.633 0-3.157-.077-6.326.341-9.355 1.235" fill="#241f1c" fill-rule="evenodd"/><g transform="matrix(.84114 0 0 .9286 198.74-112.65)"><ellipse ry="2.841" rx="4.104" cy="409.21" cx="301.37" fill="#333"/><use xlink:href="#2"/><ellipse ry="1.987" rx="2.031" cy="409.28" cx="301.29" fill="#f2f2f2"/><ellipse ry="1.138" rx="1.205" cy="409.45" cx="301.36" fill="#333"/><circle r=".379" cy="409.36" cx="301.56" fill="#fff"/></g><path d="m474.97 291.52c-1.707 1.468-3.716 2.583-5.865 3.256-3.978 1.244-8.424.916-12.176-.898-1-.461-1.846-1.27-2.346-2.256-.5-.986-.656-2.143-.434-3.226.222-1.083.819-2.086 1.667-2.796.847-.71 1.939-1.123 3.044-1.152 1.455-.038 2.854.563 4.306.674.543.041 1.089.013 1.633 0 3.157-.077 6.326.341 9.355 1.235" fill="#241f1c" fill-rule="evenodd"/><g transform="matrix(1.17596 0 0 1.16075 98.93-199.66)"><g transform="matrix(1.0041 0 0 .90991-.504 40.16)"><ellipse cx="276.23" cy="439.84" rx="6.889" ry="9.147" fill="#c8bdb4" stroke="#241f1c" stroke-width="1.283"/><ellipse cx="276.15" cy="439.08" rx="6.478" ry="7.694" fill="#d7cfc9"/></g><path d="m271.9 434.83c.57.433 1.045.989 1.384 1.619.362.674.567 1.431.595 2.196" fill="none" fill-rule="evenodd" stroke="#645e5a" stroke-width="1.462"/><use xlink:href="#3"/><path d="m281.78 434.81c-.57.433-1.045.989-1.384 1.619-.362.674-.567 1.431-.595 2.196" fill="none" fill-rule="evenodd" stroke="#645e5a" stroke-width="1.462"/></g><ellipse cx="282.17" cy="437.42" rx="2.967" ry="1.231" transform="matrix(1.4669 0 0 2.44503 10.382-753.71)" opacity=".09" fill="#af9a66" filter="url(#0)" fill-opacity=".834"/><g transform="matrix(1.17596 0 0 1.16075 128.48-198.63)"><g transform="matrix(1.0041 0 0 .90991-.504 40.16)"><ellipse cx="276.23" cy="439.84" rx="6.889" ry="9.147" fill="#c8bdb4" stroke="#241f1c" stroke-width="1.283"/><ellipse cx="276.15" cy="439.08" rx="6.478" ry="7.694" fill="#d7cfc9"/></g><use xlink:href="#4"/><use xlink:href="#3"/><path d="m281.78 434.81c-.57.433-1.045.989-1.384 1.619-.362.674-.567 1.431-.595 2.196" fill="none" fill-rule="evenodd" stroke="#645e5a" stroke-width="1.462"/></g><g transform="matrix(1.17596 0 0 1.16075 99.16-203.25)" stroke="#9f9995"><use xlink:href="#5"/><path d="m290.95 415.08c0 1.242 0 2.483 0 3.725" fill="none" fill-rule="evenodd" stroke-width=".864"/></g><g stroke="none"><ellipse cx="279.02" cy="406.4" rx="2.967" ry="1.231" transform="matrix(1.17596 0 0 1.16075 98.93-199.66)" opacity=".15" fill="#fdb8d9" filter="url(#0)"/><ellipse cx="282.17" cy="437.42" rx="2.967" ry="1.231" transform="matrix(1.4669 0 0 2.44503 39.41-752.72)" opacity=".139" fill="#af9a66" filter="url(#0)" fill-opacity=".834"/><ellipse cx="301.87" cy="407.13" rx="2.967" ry="1.231" transform="matrix(1.17596 0 0 1.16075 98.93-199.66)" opacity=".15" fill="#fdb8d9" filter="url(#0)"/></g><g transform="matrix(1.17596 0 0 1.16075 312.44-204.97)"><use transform="matrix(.73054 0 0 .81323 82.27 64.17)" xlink:href="#1"/><use xlink:href="#6"/><path d="m281.81 382.58c-1.31.867 1.409 1.358-.502 2.978-1.911 1.62-3.951 4.242-5.609 6.306-1.658 2.064-2.996 4.17-4.473 6.638-1.476 2.468-3.216 5.749-4.313 8.182-1.097 2.433-1.813 3.511-2.396 6.329-.583 2.819-.692 7.654-.479 10.498.212 2.844.321 4.575 1.278 6.484 9.584 15.638 46.529 13.861 51.12-4.786.745-3.161.401-6.498-.16-9.726-.561-3.228-1.753-6-3.195-9.417-1.442-3.415-3.181-7.526-5.591-10.961-2.41-3.435-6.34-6.799-8.845-8.877-2.506-2.078-.301-3.334-1.965-4.091-1.664-.757-6.623-1.39-7.719-1.235-1.097.154-5.837.81-7.147 1.677" fill="#d7cfc9" fill-rule="evenodd"/><use xlink:href="#7"/><ellipse cx="290.59" cy="404.05" rx="17.488" ry="7.955" fill="#bab2ad"/><path d="m302.43297 409.05188a1.026786 1.049107 0 0 1 -.0156 .18218" fill="#4d4d4d"/><g transform="matrix(-.71528 0 0 .8 496.21 74.47)"><ellipse ry="2.841" rx="4.104" cy="409.21" cx="301.37" fill="#333"/><use xlink:href="#2"/><ellipse ry="1.987" rx="2.031" cy="409.28" cx="301.29" fill="#f2f2f2"/><ellipse ry="1.138" rx="1.205" cy="409.45" cx="301.36" fill="#333"/><circle r=".379" cy="409.36" cx="301.56" fill="#fff"/></g><ellipse cx="291.5" cy="409.72" rx="5.179" ry="2.165" fill="#1a1a1a"/><use xlink:href="#8"/><g transform="matrix(.71528 0 0 .8 84.87 74.961)"><ellipse ry="2.841" rx="4.104" cy="409.21" cx="301.37" fill="#333"/><use xlink:href="#2"/><ellipse ry="1.987" rx="2.031" cy="409.28" cx="301.29" fill="#f2f2f2"/><ellipse ry="1.138" rx="1.205" cy="409.45" cx="301.36" fill="#333"/><circle r=".379" cy="409.36" cx="301.56" fill="#fff"/></g><path d="m319.77 423.15c-1.446 1.264-3.156 2.226-4.988 2.805-3.381 1.068-7.169.785-10.354-.774-.873-.389-1.606-1.083-2.044-1.933-.438-.85-.577-1.85-.388-2.786.189-.937.706-1.804 1.439-2.417.733-.613 1.679-.967 2.634-.987 1.238-.026 2.427.486 3.662.58.462.035.926.011 1.389 0 2.686-.065 5.381.295 7.955 1.064" fill="#241f1c" fill-rule="evenodd"/><g><g transform="matrix(1.0041 0 0 .90991-.504 40.16)"><ellipse cx="276.23" cy="439.84" rx="6.889" ry="9.147" fill="#c8bdb4" stroke="#241f1c" stroke-width="1.283"/><ellipse cx="276.15" cy="439.08" rx="6.478" ry="7.694" fill="#d7cfc9"/></g><use xlink:href="#4"/><use xlink:href="#3"/><use xlink:href="#9"/></g><ellipse cx="282.17" cy="437.42" rx="2.967" ry="1.231" transform="matrix(1.24741 0 0 2.10642-75.3-477.32)" opacity=".09" fill="#af9a66" filter="url(#0)" fill-opacity=".834"/><g transform="translate(25.12.886)"><g transform="matrix(1.0041 0 0 .90991-.504 40.16)"><ellipse cx="276.23" cy="439.84" rx="6.889" ry="9.147" fill="#c8bdb4" stroke="#241f1c" stroke-width="1.283"/><ellipse cx="276.15" cy="439.08" rx="6.478" ry="7.694" fill="#d7cfc9"/></g><use xlink:href="#4"/><use xlink:href="#3"/><use xlink:href="#9"/></g><g transform="translate(.189-3.094)" stroke="#9f9995"><use xlink:href="#5"/><use xlink:href="#B"/></g><g stroke="none"><ellipse cx="279.02" cy="406.4" rx="2.967" ry="1.231" opacity=".15" fill="#fdb8d9" filter="url(#0)"/><ellipse cx="282.17" cy="437.42" rx="2.967" ry="1.231" transform="matrix(1.24741 0 0 2.10642-50.615-476.47)" opacity=".139" fill="#af9a66" filter="url(#0)" fill-opacity=".834"/><ellipse cx="301.87" cy="407.13" rx="2.967" ry="1.231" opacity=".15" fill="#fdb8d9" filter="url(#0)"/><ellipse cx="301.89" cy="406.65" rx="5.179" ry="2.165" fill="#1a1a1a"/></g></g><ellipse transform="matrix(-.99962.02758-.02643-.99965 0 0)" cx="-585" cy="-367.97" rx="19.13" ry="23.777" fill="#fff"/><path d="m675.06 352.87c-.296 11.385-7.594 20.554-16.272 20.453-8.678-.101-15.483-9.269-15.187-20.655.296-11.385 7.594-20.554 16.272-20.453 8.678.101 15.483 9.37 15.187 20.655" fill="#fff" id="C"/><ellipse transform="matrix(-.99962.02758-.02643-.99965 0 0)" cx="-577.82" cy="-359.71" rx="4.931" ry="5.44" fill="#fff"/><path d="m667.96 353.07c-.296 6.65-4.536 11.99-9.467 11.889-4.931-.101-8.678-5.642-8.383-12.292.296-6.65 4.536-11.99 9.467-11.889 4.931.101 8.678 5.642 8.383 12.292" fill="#3f3f3f"/><path d="m657.51 345.61c.197 2.72-1.677 5.04-4.04 5.139-2.367.101-4.438-1.914-4.536-4.635-.197-2.72 1.677-5.04 4.04-5.139 2.367-.101 4.339 1.914 4.536 4.635" fill="#fff" id="D"/><use xlink:href="#C"/><use xlink:href="#D"/><g transform="matrix(.43102 0 0 .26866 587.46 152.89)"><g transform="translate(.138-4.834)"><path d="m130.49 394.9c12.06 0 23.909.7 23.909 6.6 0 5.6 2.33 43.1-24.21 43.1-26.543 0-26.442-24.1-26.442-42.3-.101-6.6 14.69-7.4 26.746-7.4" fill="#800000"/><path d="m104.3 402.3c0-6.4 13.6-7.3 25.2-7.4-.4 0-.9 0-1.3 0-11.9 0-26.4.8-26.4 7.4 0 18.2-.2 42.3 26.1 42.3.4 0 .8 0 1.2 0-24.9-.9-24.8-24.4-24.8-42.3" fill="#500" id="G"/><path d="m131.6 400.5c8.8 0 17.4.5 17.4 4.9 0 4.2 1.7 31.8-17.7 31.8-19.4 0-19.2-17.8-19.2-31.3-.1-4.8 10.7-5.4 19.5-5.4" fill="#1a1a1a" id="H"/></g><g fill="#500"><path d="m87.83 411.78l14.672 2.623.2-13.9-10.291 2.431z" transform="matrix(.57705 0 0 1 43.44 0)"/><path d="m215.14 417.46l1.537 5.813-5.491-5.815-.126-13.9z"/></g><g transform="translate(59.35-3.614)"><path d="m130.49 394.9c12.06 0 23.909.7 23.909 6.6 0 5.6 2.33 43.1-24.21 43.1-26.543 0-26.442-24.1-26.442-42.3-.101-6.6 14.69-7.4 26.746-7.4" fill="#800000"/><use xlink:href="#G"/><use xlink:href="#H"/></g><g fill="#800000"><rect width="11.402" height="10.84" x="150.75" y="403.8" rx=".412"/><path d="m160.92 404.68l2.832-.363.34 10.541-3.399-1.09z" fill-rule="evenodd"/></g></g><ellipse cx="655.3" cy="270.29" rx="6.09" ry="2.513" fill="#1a1a1a"/><g fill="#241f1c"><path d="m536.95 291.68l-1.725 8.385-6.102-6.961.656 8.48-7.887-5.703 3 8.152-9.279-4.156 5.199 7.414-10.205-2.404 7.133 6.303-10.617-.529 8.711 4.879-10.5 1.369 9.852 3.207-.342.111c13.767-2.303 32.981-1.533 43.47 2.184-.388-.439-.723-.88-.926-1.344-.534-1.222-.815-2.481.135-3.664 1.218-1.459 4.052-2.618 7.826-3.494.016-.882.163-1.898.471-2.787l-1.656.082 7.141-6.299-10.207 2.398 5.205-7.412-9.283 4.152 3.01-8.15-7.893 5.697.664-8.48-6.109 6.957-1.715-8.385-4.02 7.869-4.01-7.871" transform="translate(-3.192 48.36)"/><path d="m450.14 395.77c-.698 5.371 8.993-.992 12.932.755 1.66.736 2.047 3.658 3.861 3.811 2.052.173 3.061-2.982 5.05-3.518 3.02-.812 10.601 5.825 9.347.758-.627-2.534-4.712-9.27-10.593-9.565-5.881-.294-20.246 5.073-20.596 7.759" fill-rule="evenodd"/></g><ellipse cx="444.7" cy="412.76" rx="20.565" ry="9.234" fill="#bab2ad"/><path d="m555.10644 408.40988a1.207455 1.217752 0 0 1 -.0183 .21146" fill="#4d4d4d"/><g transform="matrix(-.84114 0 0 .9286 782.98 20.04)"><ellipse ry="2.841" rx="4.104" cy="409.21" cx="301.37" fill="#333"/><use xlink:href="#2"/><ellipse ry="1.987" rx="2.031" cy="409.28" cx="301.29" fill="#f2f2f2"/><ellipse ry="1.138" rx="1.205" cy="409.45" cx="301.36" fill="#333"/><circle r=".379" cy="409.36" cx="301.56" fill="#fff"/></g><ellipse cx="542.25" cy="409.18" rx="6.09" ry="2.513" fill="#1a1a1a"/><path d="m484.05 426.7c1.481 1.431 3.264 2.547 5.197 3.256 3.939 1.443 8.491 1.107 12.176-.898 1-.461 1.846-1.27 2.346-2.256.5-.986.656-2.143.434-3.226-.222-1.083-.819-2.086-1.667-2.796-.847-.71-1.939-1.123-3.044-1.152-1.455-.038-2.854.563-4.306.674-.543.041-1.089.013-1.633 0-3.157-.077-6.326.341-9.355 1.235" fill="#241f1c" fill-rule="evenodd"/><g transform="matrix(.84114 0 0 .9286 299.27 20.614)"><ellipse ry="2.841" rx="4.104" cy="409.21" cx="301.37" fill="#333"/><use xlink:href="#2"/><ellipse ry="1.987" rx="2.031" cy="409.28" cx="301.29" fill="#f2f2f2"/><ellipse ry="1.138" rx="1.205" cy="409.45" cx="301.36" fill="#333"/><circle r=".379" cy="409.36" cx="301.56" fill="#fff"/></g><path d="m529.4 435.52c-1.707 1.468-3.716 2.583-5.865 3.256-3.978 1.244-8.424.916-12.176-.898-1-.461-1.846-1.27-2.346-2.256-.5-.986-.656-2.143-.434-3.226.222-1.083.819-2.086 1.667-2.796.847-.71 1.939-1.123 3.044-1.152 1.455-.038 2.854.563 4.306.674.543.041 1.089.013 1.633 0 3.157-.077 6.326.341 9.355 1.235" fill="#241f1c" fill-rule="evenodd"/><g transform="matrix(1.17596 0 0 1.16075 151.41-69.913)"><g transform="matrix(1.0041 0 0 .90991-.504 40.16)"><ellipse cx="276.23" cy="439.84" rx="6.889" ry="9.147" fill="#c8bdb4" stroke="#241f1c" stroke-width="1.283"/><ellipse cx="276.15" cy="439.08" rx="6.478" ry="7.694" fill="#d7cfc9"/></g><use xlink:href="#4"/><use xlink:href="#3"/><use xlink:href="#9"/></g><ellipse cx="282.17" cy="437.42" rx="2.967" ry="1.231" transform="matrix(1.4669 0 0 2.44503 110.91-620.45)" opacity=".09" fill="#af9a66" filter="url(#0)" fill-opacity=".834"/><g transform="matrix(-.4049 1.10405-1.08978-.39967 1106.16 260.66)"><g transform="matrix(.68975.12226.10794.88312 29.13 3.777)"><ellipse cx="276.23" cy="439.84" rx="6.889" ry="9.147" fill="#c8bdb4" stroke="#241f1c" stroke-width="1.283"/><ellipse cx="276.15" cy="439.08" rx="6.478" ry="7.694" fill="#d7cfc9"/></g><use xlink:href="#4"/><use xlink:href="#3"/><use xlink:href="#9"/></g><g transform="matrix(1.17596 0 0 1.16075 199.68-69.988)" stroke="#9f9995"><use xlink:href="#5"/><path d="m290.95 415.08c0 1.242 0 2.483 0 3.725" fill="none" fill-rule="evenodd" stroke-width=".864"/></g><g stroke="none"><ellipse cx="279.02" cy="406.4" rx="2.967" ry="1.231" transform="matrix(1.17596 0 0 1.16075 199.46-66.4)" opacity=".15" fill="#fdb8d9" filter="url(#0)"/><ellipse cx="282.17" cy="437.42" rx="2.967" ry="1.231" transform="matrix(1.4669 0 0 2.44503 139.94-619.46)" opacity=".139" fill="#af9a66" filter="url(#0)" fill-opacity=".834"/><ellipse cx="301.87" cy="407.13" rx="2.967" ry="1.231" transform="matrix(1.17596 0 0 1.16075 199.46-66.4)" opacity=".15" fill="#fdb8d9" filter="url(#0)"/><g fill-rule="evenodd"><path d="m558.99 377.64c8.262-3.666 3.878-1.919 5.803-3.059 1.925-1.14 4.207-2.658 5.659-3.786 1.452-1.128 2.381-1.625 3.207-2.941.826-1.316 1.132-3.585.968-4.923-.164-1.338-.237-2.152-1.361-3.061-11.377-7.467-57.43-7.113-63.8 1.583-1.039 1.475-.729 3.046-.146 4.569.584 1.523 1.969 2.841 3.643 4.463 1.674 1.622-4.384-.621 6.571 5.219 10.955 5.84 31.19 5.601 39.456 1.935" fill="#241f1c"/><path d="m556.93 379.11c2.463-1.043 4.684-2.122 6.804-3.41.666-.404 1.4-.785 1.836-1.343.436-.558.479-1.439.287-1.935-.192-.495-.293-.799-1.064-1.063-7.697-2.02-36.832 1.391-40.29 5.141-.56.633-.159 1.247.21 1.742.521.699 1.435.937 2.602 1.432 11.489 4.389 20.15 3.187 29.616-.564" fill="#d7cfc9"/></g></g></g></svg>