<svg xmlns="http://www.w3.org/2000/svg" viewBox="0 0 7.8636134 7.0101205" xmlns:xlink="http://www.w3.org/1999/xlink"><g transform="matrix(2.02817 0 0 2.37051-636.61-1390.34)"><path d="m314.15 587.65c.634-1.118 1.809-1.109 2.653-.922.605.134 1.257 2.031.644 2.356-1.111.481-1.669.456-3.238-.222-.404-.175-.27-.941.157-1.489" fill="#ffe680" fill-rule="evenodd"/><g transform="matrix(.02696 0 0 .01674 311.85 580.8)"><g transform="translate(.138-4.834)"><path d="m130.49 394.9c12.06 0 23.909.7 23.909 6.6 0 5.6 2.33 43.1-24.21 43.1-26.543 0-26.442-24.1-26.442-42.3-.101-6.6 14.69-7.4 26.746-7.4" fill="#5aa02c" id="0"/><path d="m104.3 402.3c0-6.4 13.6-7.3 25.2-7.4-.4 0-.9 0-1.3 0-11.9 0-26.4.8-26.4 7.4 0 18.2-.2 42.3 26.1 42.3.4 0 .8 0 1.2 0-24.9-.9-24.8-24.4-24.8-42.3" fill="#5aa02c" id="1"/><path d="m131.6 400.5c8.8 0 17.4.5 17.4 4.9 0 4.2 1.7 31.8-17.7 31.8-19.4 0-19.2-17.8-19.2-31.3-.1-4.8 10.7-5.4 19.5-5.4" fill="#1a1a1a" id="2"/></g><path d="m73.991 409.07l28.509 5.326.2-13.9-24.13-.273z" transform="matrix(.57705 0 0 1 43.44 0)" fill="#5aa02c"/><path d="m211.85 403.64l-1.986 15.427 1.32-1.609-.126-13.9z" fill="#500"/><g transform="translate(59.35-3.614)"><use xlink:href="#0"/><use xlink:href="#1"/><use xlink:href="#2"/></g><g fill="#5aa02c"><rect width="11.402" height="10.84" x="150.75" y="403.8" rx=".412"/><path d="m160.92 404.68l2.832-.363.34 10.541-3.399-1.09z" fill-rule="evenodd"/></g><path d="m184.96 463.34l-11.474-.418-10.703.007-10.703.007-11.32-1.48" fill="none" fill-rule="evenodd" stroke="#000" stroke-width="5"/></g></g></svg>