<?xml version="1.0" encoding="UTF-8" standalone="no"?>
<!-- Created with Inkscape (http://www.inkscape.org/) -->

<svg
   xmlns:dc="http://purl.org/dc/elements/1.1/"
   xmlns:cc="http://creativecommons.org/ns#"
   xmlns:rdf="http://www.w3.org/1999/02/22-rdf-syntax-ns#"
   xmlns:svg="http://www.w3.org/2000/svg"
   xmlns="http://www.w3.org/2000/svg"
   xmlns:sodipodi="http://sodipodi.sourceforge.net/DTD/sodipodi-0.dtd"
   xmlns:inkscape="http://www.inkscape.org/namespaces/inkscape"
   width="2.2192864mm"
   height="1.9784118mm"
   viewBox="0 0 7.8636134 7.0101205"
   id="svg5218"
   version="1.1"
   inkscape:version="0.91 r13725"
   sodipodi:docname="cry.svg">
  <defs
     id="defs5220" />
  <sodipodi:namedview
     id="base"
     pagecolor="#ffffff"
     bordercolor="#666666"
     borderopacity="1.0"
     inkscape:pageopacity="0.0"
     inkscape:pageshadow="2"
     inkscape:zoom="64"
     inkscape:cx="4.9519576"
     inkscape:cy="2.9730604"
     inkscape:document-units="px"
     inkscape:current-layer="g4732"
     showgrid="false"
     fit-margin-top="0"
     fit-margin-left="0"
     fit-margin-right="0"
     fit-margin-bottom="0"
     inkscape:window-width="1366"
     inkscape:window-height="715"
     inkscape:window-x="-4"
     inkscape:window-y="-4"
     inkscape:window-maximized="1" />
  <metadata
     id="metadata5223">
    <rdf:RDF>
      <cc:Work
         rdf:about="">
        <dc:format>image/svg+xml</dc:format>
        <dc:type
           rdf:resource="http://purl.org/dc/dcmitype/StillImage" />
        <dc:title></dc:title>
      </cc:Work>
    </rdf:RDF>
  </metadata>
  <g
     inkscape:label="Laag 1"
     inkscape:groupmode="layer"
     id="layer1"
     transform="translate(-41.782479,-640.28572)">
    <g
       id="g6338"
       inkscape:export-filename="C:\xampp\htdocs\aulis\Aulis\library\icons\mail.png"
       inkscape:export-xdpi="562.96002"
       inkscape:export-ydpi="562.96002"
       transform="matrix(2.0281712,0,0,2.3705107,-594.82975,-750.05401)">
      <g
         id="g4732">
        <path
           sodipodi:nodetypes="cscsc"
           inkscape:connector-curvature="0"
           id="path4775"
           d="m 314.15293,587.65407 c 0.63356,-1.11759 1.80925,-1.10867 2.65264,-0.92161 0.60456,0.13408 1.25741,2.03088 0.644,2.35574 -1.11053,0.48129 -1.66917,0.45644 -3.23759,-0.22164 -0.40395,-0.17465 -0.27023,-0.94103 0.15748,-1.48935"
           style="fill:#ffe680;fill-rule:evenodd;stroke:none;stroke-width:0.456065px;stroke-linecap:butt;stroke-linejoin:miter;stroke-opacity:1" />
        <path
           sodipodi:nodetypes="ccaaaaaaaac"
           inkscape:connector-curvature="0"
           id="path4809"
           d="m 315.03051,587.66804 c 0.17081,0.20368 0.40743,-0.15697 0.41226,-0.15779 0.0102,0.0252 0.0172,0.0522 0.018,0.079 8.9e-4,0.028 -8.3e-4,0.0573 -0.0135,0.0831 -0.0301,0.0613 -0.082,0.11617 -0.14256,0.15777 -0.0297,0.0204 -0.0666,0.0345 -0.10339,0.0416 -0.0352,0.007 -0.0758,0.015 -0.1079,0 -0.0248,-0.0116 -0.037,-0.0393 -0.0494,-0.0624 -0.0139,-0.0259 -0.0257,-0.0542 -0.0269,-0.0831 -10e-4,-0.0198 0.005,-0.0401 0.0135,-0.0582 z"
           style="fill:#000000;fill-opacity:1;fill-rule:evenodd;stroke:none;stroke-width:0.456065px;stroke-linecap:butt;stroke-linejoin:miter;stroke-opacity:1" />
        <path
           sodipodi:nodetypes="ccaaaaaaaac"
           inkscape:connector-curvature="0"
           id="path4809-6"
           d="m 316.7867,587.68813 c -0.17081,0.20368 -0.40743,-0.15697 -0.41226,-0.15779 -0.0102,0.0252 -0.0172,0.0522 -0.018,0.079 -8.9e-4,0.028 8.3e-4,0.0573 0.0135,0.0831 0.0301,0.0613 0.082,0.11617 0.14256,0.15777 0.0297,0.0204 0.0666,0.0345 0.10339,0.0416 0.0352,0.007 0.0758,0.015 0.1079,0 0.0248,-0.0116 0.037,-0.0393 0.0494,-0.0624 0.0139,-0.0259 0.0257,-0.0542 0.0269,-0.0831 10e-4,-0.0198 -0.005,-0.0401 -0.0135,-0.0582 z"
           style="fill:#000000;fill-opacity:1;fill-rule:evenodd;stroke:none;stroke-width:0.456065px;stroke-linecap:butt;stroke-linejoin:miter;stroke-opacity:1" />
        <path
           style="fill:#b1dde7;fill-opacity:1;fill-rule:evenodd;stroke:none;stroke-width:0.456065px;stroke-linecap:butt;stroke-linejoin:miter;stroke-opacity:1"
           d="m 316.65772,587.87563 c -0.0491,0.0355 0.007,0.11083 0.0147,0.16472 0.002,0.0192 0.002,0.043 0.0147,0.0587 0.0205,0.0288 0.0528,0.0518 0.0905,0.0589 0.0184,0.002 0.0427,0.006 0.0583,-0.008 0.0256,-0.0173 0.0377,-0.0529 0.0409,-0.0802 0.003,-0.0288 -0.01,-0.0568 -0.0267,-0.0794 -0.0166,-0.0253 -0.0425,-0.0439 -0.068,-0.0608 -0.0368,-0.0245 -0.0844,-0.0826 -0.12454,-0.0548 z"
           id="path4802"
           inkscape:connector-curvature="0"
           sodipodi:nodetypes="aaaaaaaaa" />
        <path
           style="fill:#b1dde7;fill-opacity:1;fill-rule:evenodd;stroke:none;stroke-width:0.456065px;stroke-linecap:butt;stroke-linejoin:miter;stroke-opacity:1"
           d="m 316.89555,588.46291 c -0.0134,0.0717 0.0942,0.0918 0.14445,0.13242 0.0173,0.0162 0.0359,0.0362 0.0595,0.0392 0.0407,0.009 0.0867,0.002 0.12469,-0.0233 0.0173,-0.0138 0.0412,-0.0305 0.0439,-0.0551 0.008,-0.0364 -0.01,-0.0778 -0.029,-0.10428 -0.0201,-0.0279 -0.0539,-0.0418 -0.0865,-0.0475 -0.0345,-0.009 -0.0716,-0.002 -0.10704,0.002 -0.0512,0.009 -0.1385,-0.002 -0.15078,0.0551 z"
           id="path4802-8"
           inkscape:connector-curvature="0"
           sodipodi:nodetypes="aaaaaaaaa" />
        <path
           style="fill:#ffaaaa;fill-opacity:1;fill-rule:evenodd;stroke:none;stroke-width:0.456065px;stroke-linecap:butt;stroke-linejoin:miter;stroke-opacity:1"
           d="m 315.58013,588.30613 c -0.0577,-0.033 -0.13726,0.0283 -0.19646,0.0593 -0.0317,0.0167 -0.0594,0.0399 -0.0809,0.0659 -0.0253,0.0305 -0.053,0.0648 -0.0539,0.10217 -0.001,0.0473 0.028,0.0943 0.0616,0.13183 0.0351,0.0392 0.0828,0.0763 0.13867,0.089 0.0712,0.0163 0.14867,-0.006 0.21956,-0.0231 0.18269,-0.0768 0.32013,-0.0132 0.49595,0.004 0.0709,0.0171 0.14836,0.0394 0.21956,0.0231 0.0559,-0.0127 0.10357,-0.0498 0.13867,-0.089 0.0336,-0.0375 0.0626,-0.0845 0.0616,-0.13183 -9e-4,-0.0374 -0.0286,-0.0717 -0.0539,-0.10217 -0.0215,-0.026 -0.0491,-0.0493 -0.0809,-0.0659 -0.0592,-0.0311 -0.14896,-0.10268 -0.19645,-0.0593 -0.2634,0.24046 -0.4865,0.10257 -0.67313,-0.004 z"
           id="path4819"
           inkscape:connector-curvature="0"
           sodipodi:nodetypes="scccccccccccass" />
        <path
           style="fill:#b1dde7;fill-opacity:1;fill-rule:evenodd;stroke:none;stroke-width:0.456065px;stroke-linecap:butt;stroke-linejoin:miter;stroke-opacity:1"
           d="m 314.79911,587.95701 c 0.0616,-0.0714 0.12898,-0.0544 0.18995,-0.0756 0.0231,-0.009 0.0503,-0.0219 0.0638,-0.0168 0.0268,0.005 0.0405,0.0273 0.034,0.0633 -0.005,0.0186 -0.0103,0.0422 -0.0323,0.066 -0.0306,0.0367 -0.078,0.0693 -0.1115,0.0877 -0.0354,0.0193 -0.0637,0.0211 -0.0837,0.0155 -0.024,-0.003 -0.0337,-0.0223 -0.0466,-0.0371 -0.0145,-0.0254 -0.0638,-0.0446 -0.0157,-0.10158 z"
           id="path4802-8-4"
           inkscape:connector-curvature="0"
           sodipodi:nodetypes="aaaaaaaaa" />
      </g>
    </g>
  </g>
</svg>
