<svg xmlns="http://www.w3.org/2000/svg" viewBox="0 0 7.8636134 7.0101205"><g transform="matrix(2.02817 0 0 2.37051-636.61-1390.34)" fill-rule="evenodd"><path d="m314.15 587.65c.634-1.118 1.809-1.109 2.653-.922.605.134 1.257 2.031.644 2.356-1.111.481-1.669.456-3.238-.222-.404-.175-.27-.941.157-1.489" fill="#ffe680"/><path d="m315.03 587.67c.171.204.407-.157.412-.158.001.025.017.052.018.079.0001.028-.0001.057-.014.083-.03.061-.082.116-.143.158-.03.02-.067.034-.103.042-.035.007-.076.015-.108 0-.025-.012-.037-.039-.049-.062-.014-.026-.026-.054-.027-.083-.0001-.02.005-.04.014-.058"/><path d="m316.79 587.69c-.171.204-.407-.157-.412-.158-.001.025-.017.052-.018.079-.0001.028.0001.057.014.083.03.061.082.116.143.158.03.02.067.034.103.042.035.007.076.015.108 0 .025-.012.037-.039.049-.062.014-.026.026-.054.027-.083.0001-.02-.005-.04-.014-.058"/><g fill="#b1dde7"><path d="m316.66 587.88c-.049.035.007.111.015.165.002.019.002.043.015.059.021.029.053.052.091.059.018.002.043.006.058-.008.026-.017.038-.053.041-.08.003-.029-.001-.057-.027-.079-.017-.025-.043-.044-.068-.061-.037-.024-.084-.083-.125-.055"/><path d="m316.9 588.46c-.013.072.094.092.144.132.017.016.036.036.06.039.041.009.087.002.125-.023.017-.014.041-.03.044-.055.008-.036-.001-.078-.029-.104-.02-.028-.054-.042-.087-.048-.034-.009-.072-.002-.107.002-.051.009-.139-.002-.151.055z"/></g><path d="m315.58 588.31c-.058-.033-.137.028-.196.059-.032.017-.059.04-.081.066-.025.03-.053.065-.054.102-.0001.047.028.094.062.132.035.039.083.076.139.089.071.016.149-.006.22-.023.183-.077.32-.013.496.004.071.017.148.039.22.023.056-.013.104-.05.139-.089.034-.038.063-.085.062-.132-.0001-.037-.029-.072-.054-.102-.022-.026-.049-.049-.081-.066-.059-.031-.149-.103-.196-.059-.263.24-.486.103-.673-.004" fill="#faa"/><path d="m314.8 587.96c.062-.071.129-.054.19-.076.023-.009.05-.022.064-.017.027.005.041.027.034.063-.005.019-.001.042-.032.066-.031.037-.078.069-.111.088-.035.019-.064.021-.084.015-.024-.003-.034-.022-.047-.037-.014-.025-.064-.045-.016-.102z" fill="#b1dde7"/></g></svg>