<?xml version="1.0" encoding="UTF-8" standalone="no"?>
<!-- Created with Inkscape (http://www.inkscape.org/) -->

<svg
   xmlns:dc="http://purl.org/dc/elements/1.1/"
   xmlns:cc="http://creativecommons.org/ns#"
   xmlns:rdf="http://www.w3.org/1999/02/22-rdf-syntax-ns#"
   xmlns:svg="http://www.w3.org/2000/svg"
   xmlns="http://www.w3.org/2000/svg"
   xmlns:sodipodi="http://sodipodi.sourceforge.net/DTD/sodipodi-0.dtd"
   xmlns:inkscape="http://www.inkscape.org/namespaces/inkscape"
   width="2.2192864mm"
   height="1.9784118mm"
   viewBox="0 0 7.8636134 7.0101205"
   id="svg5218"
   version="1.1"
   inkscape:version="0.91 r13725"
   sodipodi:docname="crylaugh.svg">
  <defs
     id="defs5220" />
  <sodipodi:namedview
     id="base"
     pagecolor="#ffffff"
     bordercolor="#666666"
     borderopacity="1.0"
     inkscape:pageopacity="0.0"
     inkscape:pageshadow="2"
     inkscape:zoom="41.940193"
     inkscape:cx="4.860555"
     inkscape:cy="3.0887144"
     inkscape:document-units="px"
     inkscape:current-layer="g6338"
     showgrid="false"
     fit-margin-top="0"
     fit-margin-left="0"
     fit-margin-right="0"
     fit-margin-bottom="0"
     inkscape:window-width="1366"
     inkscape:window-height="715"
     inkscape:window-x="-4"
     inkscape:window-y="-4"
     inkscape:window-maximized="1" />
  <metadata
     id="metadata5223">
    <rdf:RDF>
      <cc:Work
         rdf:about="">
        <dc:format>image/svg+xml</dc:format>
        <dc:type
           rdf:resource="http://purl.org/dc/dcmitype/StillImage" />
        <dc:title></dc:title>
      </cc:Work>
    </rdf:RDF>
  </metadata>
  <g
     inkscape:label="Laag 1"
     inkscape:groupmode="layer"
     id="layer1"
     transform="translate(-41.782479,-640.28572)">
    <g
       id="g6338"
       inkscape:export-filename="C:\xampp\htdocs\aulis\Aulis\library\icons\mail.png"
       inkscape:export-xdpi="562.96002"
       inkscape:export-ydpi="562.96002"
       transform="matrix(2.0281712,0,0,2.3705107,-594.82975,-750.05401)">
      <path
         style="fill:#ffe680;fill-rule:evenodd;stroke:none;stroke-width:0.456065px;stroke-linecap:butt;stroke-linejoin:miter;stroke-opacity:1"
         d="m 314.15293,587.65407 c 0.63356,-1.11759 1.80925,-1.10867 2.65264,-0.92161 0.60456,0.13408 1.25741,2.03088 0.644,2.35574 -1.11053,0.48129 -1.66917,0.45644 -3.23759,-0.22164 -0.40395,-0.17465 -0.27023,-0.94103 0.15748,-1.48935"
         id="path4775"
         inkscape:connector-curvature="0"
         sodipodi:nodetypes="cscsc" />
      <g
         transform="matrix(-0.00390035,0.1967294,-0.45669593,-0.00168014,181.54723,463.57703)"
         style="font-style:normal;font-weight:normal;font-size:6.27089357px;line-height:125%;font-family:sans-serif;letter-spacing:0.66129428px;word-spacing:0px;fill:#db1919;fill-opacity:1;stroke:none;stroke-width:1px;stroke-linecap:butt;stroke-linejoin:miter;stroke-opacity:1"
         id="text4750">
        <path
           d="m 634.34025,-299.42927 c 0,0.41439 -0.0908,0.78999 -0.27251,1.1268 -0.17963,0.33681 -0.41949,0.5981 -0.71956,0.78386 -0.20821,0.1286 -0.44092,0.22148 -0.69813,0.27864 -0.25516,0.0571 -0.59198,0.0857 -1.01045,0.0857 l -1.58385,0.14931 0.43256,-1.28912 0,-1.13982 0,-1.13981 -0.43505,-1.28171 1.5741,0.1419 c 0.43708,0.0394 0.79814,0.0327 1.05943,0.098 0.26333,0.0633 0.48584,0.15104 0.66751,0.26333 0.31028,0.19392 0.55218,0.45214 0.72569,0.77467 0.17351,0.32253 0.26026,0.70527 0.26026,1.14825 z m -0.63382,-0.009 0,4e-5 z"
           id="path4755"
           inkscape:connector-curvature="0"
           style="fill:#ffffff;fill-opacity:1;stroke:none;stroke-width:0.1684811;stroke-miterlimit:4;stroke-dasharray:none;stroke-opacity:1"
           sodipodi:nodetypes="scccscccccscccsccc" />
      </g>
      <path
         style="fill:#b1dde7;fill-opacity:1;fill-rule:evenodd;stroke:none;stroke-width:0.456065px;stroke-linecap:butt;stroke-linejoin:miter;stroke-opacity:1"
         d="m 316.75276,587.74509 c -0.0269,0.0336 0.0348,0.0682 0.0555,0.10036 0.007,0.0122 0.0129,0.0266 0.0268,0.0335 0.023,0.0138 0.0537,0.0201 0.0835,0.0163 0.0143,-0.003 0.0335,-0.006 0.0416,-0.0183 0.0147,-0.0167 0.0142,-0.042 0.009,-0.0599 -0.005,-0.0188 -0.0227,-0.0336 -0.0414,-0.0438 -0.0192,-0.0124 -0.0443,-0.0167 -0.0668,-0.0237 -0.0342,-0.007 -0.0858,-0.0318 -0.10801,-0.006 z"
         id="path4802-8"
         inkscape:connector-curvature="0"
         sodipodi:nodetypes="aaaaaaaaa" />
      <g
         transform="matrix(1.3553489,0,0,1.1927841,-105.12917,-124.59189)"
         style="font-style:normal;font-weight:normal;font-size:0.92245096px;line-height:125%;font-family:sans-serif;letter-spacing:0.09727664px;word-spacing:0px;fill:#000000;fill-opacity:1;stroke:#000000;stroke-width:0;stroke-linecap:butt;stroke-linejoin:miter;stroke-miterlimit:4;stroke-dasharray:none;stroke-opacity:1"
         id="text5449">
        <path
           d="m 310.42013,597.15141 -0.4333,0.17611 0,-0.0968 0.30268,-0.11981 -0.30268,-0.12026 0,-0.0968 0.4333,0.17611 0,0.0815 z"
           style="font-style:normal;font-variant:normal;font-weight:normal;font-stretch:normal;font-family:overpass;-inkscape-font-specification:overpass;stroke:#000000;stroke-width:0;stroke-miterlimit:4;stroke-dasharray:none;stroke-opacity:1"
           id="path5454"
           inkscape:connector-curvature="0" />
      </g>
      <g
         transform="matrix(-1.3553489,0,0,1.1927841,736.78172,-124.60784)"
         style="font-style:normal;font-weight:normal;font-size:0.92245096px;line-height:125%;font-family:sans-serif;letter-spacing:0.09727664px;word-spacing:0px;fill:#000000;fill-opacity:1;stroke:#000000;stroke-width:0;stroke-linecap:butt;stroke-linejoin:miter;stroke-miterlimit:4;stroke-dasharray:none;stroke-opacity:1"
         id="text5449-0">
        <path
           d="m 310.42013,597.15141 -0.4333,0.17611 0,-0.0968 0.30268,-0.11981 -0.30268,-0.12026 0,-0.0968 0.4333,0.17611 0,0.0815 z"
           style="font-style:normal;font-variant:normal;font-weight:normal;font-stretch:normal;font-family:overpass;-inkscape-font-specification:overpass;stroke:#000000;stroke-width:0;stroke-miterlimit:4;stroke-dasharray:none;stroke-opacity:1"
           id="path5454-3"
           inkscape:connector-curvature="0" />
      </g>
    </g>
  </g>
</svg>
