<svg xmlns="http://www.w3.org/2000/svg" viewBox="0 0 7.8636134 7.0101205" xmlns:xlink="http://www.w3.org/1999/xlink"><g transform="matrix(2.02817 0 0 2.37051-636.61-1390.34)"><path d="m314.15 587.65c.634-1.118 1.809-1.109 2.653-.922.605.134 1.257 2.031.644 2.356-1.111.481-1.669.456-3.238-.222-.404-.175-.27-.941.157-1.489" fill="#ffe680" fill-rule="evenodd"/><path d="m634.34-299.43c0 .414-.091.79-.273 1.127-.18.337-.419.598-.72.784-.208.129-.441.221-.698.279-.255.057-.592.086-1.01.086l-1.584.149.433-1.289v-1.14-1.14l-.435-1.282 1.574.142c.437.039.798.033 1.059.098.263.063.486.151.668.263.31.194.552.452.726.775.174.323.26.705.26 1.148m-.634-.009" fill="#fff" transform="matrix(-.0039.19673-.4567-.00168 181.55 463.58)"/><path d="m316.75 587.75c-.027.034.035.068.055.1.007.012.013.027.027.034.023.014.054.02.084.016.014-.003.034-.006.042-.018.015-.017.014-.042.009-.06-.005-.019-.023-.034-.041-.044-.019-.012-.044-.017-.067-.024-.034-.007-.086-.032-.108-.006z" fill="#b1dde7" fill-rule="evenodd"/><path d="m310.42 597.15l-.433.176v-.097l.303-.12-.303-.12v-.097l.433.176v.082" transform="matrix(1.35535 0 0 1.19278-105.13-124.59)" fill="#000" id="0"/><use transform="matrix(-1 0 0 1 631.65-.016)" xlink:href="#0"/></g></svg>