<?xml version="1.0" encoding="UTF-8" standalone="no"?>
<!-- Created with Inkscape (http://www.inkscape.org/) -->

<svg
   xmlns:dc="http://purl.org/dc/elements/1.1/"
   xmlns:cc="http://creativecommons.org/ns#"
   xmlns:rdf="http://www.w3.org/1999/02/22-rdf-syntax-ns#"
   xmlns:svg="http://www.w3.org/2000/svg"
   xmlns="http://www.w3.org/2000/svg"
   xmlns:sodipodi="http://sodipodi.sourceforge.net/DTD/sodipodi-0.dtd"
   xmlns:inkscape="http://www.inkscape.org/namespaces/inkscape"
   width="2.2192864mm"
   height="1.9784118mm"
   viewBox="0 0 7.8636134 7.0101205"
   id="svg5218"
   version="1.1"
   inkscape:version="0.91 r13725"
   sodipodi:docname="halo.svg">
  <defs
     id="defs5220" />
  <sodipodi:namedview
     id="base"
     pagecolor="#ffffff"
     bordercolor="#666666"
     borderopacity="1.0"
     inkscape:pageopacity="0.0"
     inkscape:pageshadow="2"
     inkscape:zoom="29.656195"
     inkscape:cx="1.5124244"
     inkscape:cy="6.316656"
     inkscape:document-units="px"
     inkscape:current-layer="g6338"
     showgrid="false"
     fit-margin-top="0"
     fit-margin-left="0"
     fit-margin-right="0"
     fit-margin-bottom="0"
     inkscape:window-width="1366"
     inkscape:window-height="715"
     inkscape:window-x="-4"
     inkscape:window-y="-4"
     inkscape:window-maximized="1" />
  <metadata
     id="metadata5223">
    <rdf:RDF>
      <cc:Work
         rdf:about="">
        <dc:format>image/svg+xml</dc:format>
        <dc:type
           rdf:resource="http://purl.org/dc/dcmitype/StillImage" />
        <dc:title></dc:title>
      </cc:Work>
    </rdf:RDF>
  </metadata>
  <g
     inkscape:label="Laag 1"
     inkscape:groupmode="layer"
     id="layer1"
     transform="translate(-41.782479,-640.28572)">
    <g
       id="g6338"
       inkscape:export-filename="C:\xampp\htdocs\aulis\Aulis\library\icons\mail.png"
       inkscape:export-xdpi="562.96002"
       inkscape:export-ydpi="562.96002"
       transform="matrix(2.0281712,0,0,2.3705107,-594.82975,-750.05401)">
      <path
         style="fill:#ffe680;fill-rule:evenodd;stroke:none;stroke-width:0.456065px;stroke-linecap:butt;stroke-linejoin:miter;stroke-opacity:1"
         d="m 314.15293,587.65407 c 0.63356,-1.11759 1.80925,-1.10867 2.65264,-0.92161 0.60456,0.13408 1.25741,2.03088 0.644,2.35574 -1.11053,0.48129 -1.66917,0.45644 -3.23759,-0.22164 -0.40395,-0.17465 -0.27023,-0.94103 0.15748,-1.48935"
         id="path4775"
         inkscape:connector-curvature="0"
         sodipodi:nodetypes="cscsc" />
      <path
         style="fill:#000000;fill-opacity:1;fill-rule:evenodd;stroke:none;stroke-width:0.456065px;stroke-linecap:butt;stroke-linejoin:miter;stroke-opacity:1"
         d="m 314.97454,587.65676 c 0.0377,-0.0196 0.0866,-0.0373 0.15049,-0.0446 0.0403,-0.005 0.0896,-7.4e-4 0.13598,0.002 0.044,0.002 0.0892,0.004 0.13279,0.0118 0.0331,0.006 0.0671,0.0152 0.0899,0.0277 0.0301,0.0156 0.0414,0.0339 0.0523,0.0509 0.0111,0.018 0.0174,0.0364 0.0136,0.0532 -0.004,0.0175 -0.0146,0.0423 -0.0378,0.0481 -0.0552,0.0146 -0.0986,-0.0439 -0.15383,-0.0528 -0.0564,-0.009 -0.11678,-0.008 -0.17464,7.4e-4 -0.0513,0.008 -0.0969,0.0524 -0.14717,0.0453 -0.031,-0.004 -0.052,-0.0333 -0.0675,-0.0506 -0.0173,-0.0194 -0.0309,-0.0397 -0.0272,-0.0579 0.002,-0.0122 0.0162,-0.0234 0.033,-0.0328 z"
         id="path4809"
         inkscape:connector-curvature="0"
         sodipodi:nodetypes="caaaaaaaaaaaaac" />
      <path
         style="fill:#000000;fill-opacity:1;fill-rule:evenodd;stroke:none;stroke-width:0.456065px;stroke-linecap:butt;stroke-linejoin:miter;stroke-opacity:1"
         d="m 316.24242,587.67018 c 0.0305,-0.0196 0.0701,-0.0373 0.12177,-0.0446 0.0326,-0.005 0.0725,-7.4e-4 0.11003,0.002 0.0356,0.002 0.0722,0.004 0.10745,0.0118 0.0268,0.006 0.0543,0.0152 0.0727,0.0277 0.0244,0.0156 0.0335,0.0339 0.0423,0.0509 0.009,0.018 0.0141,0.0364 0.011,0.0532 -0.003,0.0175 -0.0118,0.0423 -0.0306,0.0481 -0.0447,0.0146 -0.0798,-0.0439 -0.12447,-0.0528 -0.0456,-0.009 -0.0945,-0.008 -0.14132,7.4e-4 -0.0415,0.008 -0.0784,0.0524 -0.11908,0.0453 -0.0251,-0.004 -0.0421,-0.0333 -0.0546,-0.0506 -0.014,-0.0194 -0.025,-0.0397 -0.022,-0.0579 0.002,-0.0122 0.0131,-0.0234 0.0267,-0.0328 z"
         id="path4809-8"
         inkscape:connector-curvature="0"
         sodipodi:nodetypes="caaaaaaaaaaaaac" />
      <path
         style="fill:none;fill-rule:evenodd;stroke:#000000;stroke-width:0.1368195;stroke-linecap:butt;stroke-linejoin:miter;stroke-miterlimit:4;stroke-dasharray:none;stroke-opacity:1"
         d="m 315.08998,588.27654 c 0.25909,0.46301 1.13037,0.65191 1.59884,-0.0704"
         id="path4841"
         inkscape:connector-curvature="0"
         sodipodi:nodetypes="cc" />
      <ellipse
         style="opacity:1;fill:none;fill-opacity:1;stroke:#90e5e7;stroke-width:0.09804133;stroke-miterlimit:4;stroke-dasharray:none;stroke-opacity:1"
         id="path7983"
         cx="315.93912"
         cy="586.76984"
         rx="1.6142082"
         ry="0.16785826" />
    </g>
  </g>
</svg>
