<svg xmlns="http://www.w3.org/2000/svg" viewBox="0 0 7.8636134 7.0101205"><g transform="matrix(2.02817 0 0 2.37051-636.61-1390.34)"><g fill-rule="evenodd"><path d="m314.15 587.65c.634-1.118 1.809-1.109 2.653-.922.605.134 1.257 2.031.644 2.356-1.111.481-1.669.456-3.238-.222-.404-.175-.27-.941.157-1.489" fill="#ffe680"/><path d="m314.97 587.66c.038-.02.087-.037.15-.045.04-.005.09-.0001.136.002.044.002.089.004.133.012.033.006.067.015.09.028.03.016.041.034.052.051.011.018.017.036.014.053-.004.018-.015.042-.038.048-.055.015-.099-.044-.154-.053-.056-.009-.117-.008-.175.0001-.051.008-.097.052-.147.045-.031-.004-.052-.033-.067-.051-.017-.019-.031-.04-.027-.058.002-.012.016-.023.033-.033z"/><path d="m316.24 587.67c.031-.02.07-.037.122-.045.033-.005.072-.0001.11.002.036.002.072.004.107.012.027.006.054.015.073.028.024.016.034.034.042.051.009.018.014.036.011.053-.003.018-.012.042-.031.048-.045.015-.08-.044-.124-.053-.046-.009-.094-.008-.141.0001-.041.008-.078.052-.119.045-.025-.004-.042-.033-.055-.051-.014-.019-.025-.04-.022-.058.002-.012.013-.023.027-.033z"/><path d="m315.09 588.28c.259.463 1.13.652 1.599-.07" fill="none" stroke="#000" stroke-width=".137"/></g><ellipse cx="315.94" cy="586.77" rx="1.614" ry=".168" fill="none" stroke="#90e5e7" stroke-width=".098"/></g></svg>