<?xml version="1.0" encoding="UTF-8" standalone="no"?>
<!-- Created with Inkscape (http://www.inkscape.org/) -->

<svg
   xmlns:dc="http://purl.org/dc/elements/1.1/"
   xmlns:cc="http://creativecommons.org/ns#"
   xmlns:rdf="http://www.w3.org/1999/02/22-rdf-syntax-ns#"
   xmlns:svg="http://www.w3.org/2000/svg"
   xmlns="http://www.w3.org/2000/svg"
   xmlns:sodipodi="http://sodipodi.sourceforge.net/DTD/sodipodi-0.dtd"
   xmlns:inkscape="http://www.inkscape.org/namespaces/inkscape"
   width="2.2192864mm"
   height="1.9784118mm"
   viewBox="0 0 7.8636134 7.0101205"
   id="svg5218"
   version="1.1"
   inkscape:version="0.91 r13725"
   sodipodi:docname="laugh.svg">
  <defs
     id="defs5220" />
  <sodipodi:namedview
     id="base"
     pagecolor="#ffffff"
     bordercolor="#666666"
     borderopacity="1.0"
     inkscape:pageopacity="0.0"
     inkscape:pageshadow="2"
     inkscape:zoom="59.31239"
     inkscape:cx="4.2100058"
     inkscape:cy="2.5016998"
     inkscape:document-units="px"
     inkscape:current-layer="g6338"
     showgrid="false"
     fit-margin-top="0"
     fit-margin-left="0"
     fit-margin-right="0"
     fit-margin-bottom="0"
     inkscape:window-width="1366"
     inkscape:window-height="715"
     inkscape:window-x="-4"
     inkscape:window-y="-4"
     inkscape:window-maximized="1" />
  <metadata
     id="metadata5223">
    <rdf:RDF>
      <cc:Work
         rdf:about="">
        <dc:format>image/svg+xml</dc:format>
        <dc:type
           rdf:resource="http://purl.org/dc/dcmitype/StillImage" />
        <dc:title></dc:title>
      </cc:Work>
    </rdf:RDF>
  </metadata>
  <g
     inkscape:label="Laag 1"
     inkscape:groupmode="layer"
     id="layer1"
     transform="translate(-41.782479,-640.28572)">
    <g
       id="g6338"
       inkscape:export-filename="C:\xampp\htdocs\aulis\Aulis\library\icons\mail.png"
       inkscape:export-xdpi="562.96002"
       inkscape:export-ydpi="562.96002"
       transform="matrix(2.0281712,0,0,2.3705107,-594.82975,-750.05401)">
      <path
         style="fill:#ffe680;fill-rule:evenodd;stroke:none;stroke-width:0.456065px;stroke-linecap:butt;stroke-linejoin:miter;stroke-opacity:1"
         d="m 314.15293,587.65407 c 0.63356,-1.11759 1.80925,-1.10867 2.65264,-0.92161 0.60456,0.13408 1.25741,2.03088 0.644,2.35574 -1.11053,0.48129 -1.66917,0.45644 -3.23759,-0.22164 -0.40395,-0.17465 -0.27023,-0.94103 0.15748,-1.48935"
         id="path4775"
         inkscape:connector-curvature="0"
         sodipodi:nodetypes="cscsc" />
      <path
         style="fill:#000000;fill-opacity:1;fill-rule:evenodd;stroke:none;stroke-width:0.456065px;stroke-linecap:butt;stroke-linejoin:miter;stroke-opacity:1"
         d="m 314.9681,587.65676 c 0.0305,-0.0196 0.0701,-0.0373 0.12177,-0.0446 0.0326,-0.005 0.0725,-7.4e-4 0.11003,0.002 0.0356,0.002 0.0722,0.004 0.10745,0.0118 0.0268,0.006 0.0543,0.0152 0.0727,0.0277 0.0244,0.0156 0.0335,0.0339 0.0423,0.0509 0.009,0.018 0.0141,0.0364 0.011,0.0532 -0.003,0.0175 -0.0118,0.0423 -0.0306,0.0481 -0.0447,0.0146 -0.0798,-0.0439 -0.12447,-0.0528 -0.0456,-0.009 -0.0945,-0.008 -0.14132,7.4e-4 -0.0415,0.008 -0.0784,0.0524 -0.11908,0.0453 -0.0251,-0.004 -0.0421,-0.0333 -0.0546,-0.0506 -0.014,-0.0194 -0.025,-0.0397 -0.022,-0.0579 0.002,-0.0122 0.0131,-0.0234 0.0267,-0.0328 z"
         id="path4809"
         inkscape:connector-curvature="0"
         sodipodi:nodetypes="caaaaaaaaaaaaac" />
      <path
         style="fill:#000000;fill-opacity:1;fill-rule:evenodd;stroke:none;stroke-width:0.456065px;stroke-linecap:butt;stroke-linejoin:miter;stroke-opacity:1"
         d="m 316.24242,587.67018 c 0.0305,-0.0196 0.0701,-0.0373 0.12177,-0.0446 0.0326,-0.005 0.0725,-7.4e-4 0.11003,0.002 0.0356,0.002 0.0722,0.004 0.10745,0.0118 0.0268,0.006 0.0543,0.0152 0.0727,0.0277 0.0244,0.0156 0.0335,0.0339 0.0423,0.0509 0.009,0.018 0.0141,0.0364 0.011,0.0532 -0.003,0.0175 -0.0118,0.0423 -0.0306,0.0481 -0.0447,0.0146 -0.0798,-0.0439 -0.12447,-0.0528 -0.0456,-0.009 -0.0945,-0.008 -0.14132,7.4e-4 -0.0415,0.008 -0.0784,0.0524 -0.11908,0.0453 -0.0251,-0.004 -0.0421,-0.0333 -0.0546,-0.0506 -0.014,-0.0194 -0.025,-0.0397 -0.022,-0.0579 0.002,-0.0122 0.0131,-0.0234 0.0267,-0.0328 z"
         id="path4809-8"
         inkscape:connector-curvature="0"
         sodipodi:nodetypes="caaaaaaaaaaaaac" />
      <g
         transform="matrix(-0.00390035,0.1967294,-0.45669593,-0.00168014,181.54723,463.57703)"
         style="font-style:normal;font-weight:normal;font-size:6.27089357px;line-height:125%;font-family:sans-serif;letter-spacing:0.66129428px;word-spacing:0px;fill:#db1919;fill-opacity:1;stroke:none;stroke-width:1px;stroke-linecap:butt;stroke-linejoin:miter;stroke-opacity:1"
         id="text4750">
        <path
           d="m 634.34025,-299.42927 c 0,0.41439 -0.0908,0.78999 -0.27251,1.1268 -0.17963,0.33681 -0.41949,0.5981 -0.71956,0.78386 -0.20821,0.1286 -0.44092,0.22148 -0.69813,0.27864 -0.25516,0.0571 -0.59198,0.0857 -1.01045,0.0857 l -1.58385,0.14931 0.43256,-1.28912 0,-1.13982 0,-1.13981 -0.43505,-1.28171 1.5741,0.1419 c 0.43708,0.0394 0.79814,0.0327 1.05943,0.098 0.26333,0.0633 0.48584,0.15104 0.66751,0.26333 0.31028,0.19392 0.55218,0.45214 0.72569,0.77467 0.17351,0.32253 0.26026,0.70527 0.26026,1.14825 z m -0.63382,-0.009 0,4e-5 z"
           id="path4755"
           inkscape:connector-curvature="0"
           style="fill:#ffffff;fill-opacity:1;stroke:none;stroke-width:0.1684811;stroke-miterlimit:4;stroke-dasharray:none;stroke-opacity:1"
           sodipodi:nodetypes="scccscccccscccsccc" />
      </g>
    </g>
  </g>
</svg>
