<svg xmlns="http://www.w3.org/2000/svg" viewBox="0 0 7.8636134 7.0101205"><g transform="matrix(2.02817 0 0 2.37051-636.61-1390.34)"><g fill-rule="evenodd"><path d="m314.15 587.65c.634-1.118 1.809-1.109 2.653-.922.605.134 1.257 2.031.644 2.356-1.111.481-1.669.456-3.238-.222-.404-.175-.27-.941.157-1.489" fill="#ffe680"/><path d="m314.97 587.66c.031-.02.07-.037.122-.045.033-.005.072-.0001.11.002.036.002.072.004.107.012.027.006.054.015.073.028.024.016.034.034.042.051.009.018.014.036.011.053-.003.018-.012.042-.031.048-.045.015-.08-.044-.124-.053-.046-.009-.094-.008-.141.0001-.041.008-.078.052-.119.045-.025-.004-.042-.033-.055-.051-.014-.019-.025-.04-.022-.058.002-.012.013-.023.027-.033z"/><path d="m316.24 587.67c.031-.02.07-.037.122-.045.033-.005.072-.0001.11.002.036.002.072.004.107.012.027.006.054.015.073.028.024.016.034.034.042.051.009.018.014.036.011.053-.003.018-.012.042-.031.048-.045.015-.08-.044-.124-.053-.046-.009-.094-.008-.141.0001-.041.008-.078.052-.119.045-.025-.004-.042-.033-.055-.051-.014-.019-.025-.04-.022-.058.002-.012.013-.023.027-.033z"/></g><path d="m634.34-299.43c0 .414-.091.79-.273 1.127-.18.337-.419.598-.72.784-.208.129-.441.221-.698.279-.255.057-.592.086-1.01.086l-1.584.149.433-1.289v-1.14-1.14l-.435-1.282 1.574.142c.437.039.798.033 1.059.098.263.063.486.151.668.263.31.194.552.452.726.775.174.323.26.705.26 1.148m-.634-.009" fill="#fff" transform="matrix(-.0039.19673-.4567-.00168 181.55 463.58)"/></g></svg>