<?xml version="1.0" encoding="UTF-8" standalone="no"?>
<!-- Created with Inkscape (http://www.inkscape.org/) -->

<svg
   xmlns:dc="http://purl.org/dc/elements/1.1/"
   xmlns:cc="http://creativecommons.org/ns#"
   xmlns:rdf="http://www.w3.org/1999/02/22-rdf-syntax-ns#"
   xmlns:svg="http://www.w3.org/2000/svg"
   xmlns="http://www.w3.org/2000/svg"
   xmlns:sodipodi="http://sodipodi.sourceforge.net/DTD/sodipodi-0.dtd"
   xmlns:inkscape="http://www.inkscape.org/namespaces/inkscape"
   width="2.2192864mm"
   height="1.9784118mm"
   viewBox="0 0 7.8636134 7.0101205"
   id="svg5218"
   version="1.1"
   inkscape:version="0.91 r13725"
   sodipodi:docname="mad.svg">
  <defs
     id="defs5220" />
  <sodipodi:namedview
     id="base"
     pagecolor="#ffffff"
     bordercolor="#666666"
     borderopacity="1.0"
     inkscape:pageopacity="0.0"
     inkscape:pageshadow="2"
     inkscape:zoom="59.31239"
     inkscape:cx="1.5124244"
     inkscape:cy="2.5016998"
     inkscape:document-units="px"
     inkscape:current-layer="g6338"
     showgrid="false"
     fit-margin-top="0"
     fit-margin-left="0"
     fit-margin-right="0"
     fit-margin-bottom="0"
     inkscape:window-width="1366"
     inkscape:window-height="715"
     inkscape:window-x="-4"
     inkscape:window-y="-4"
     inkscape:window-maximized="1" />
  <metadata
     id="metadata5223">
    <rdf:RDF>
      <cc:Work
         rdf:about="">
        <dc:format>image/svg+xml</dc:format>
        <dc:type
           rdf:resource="http://purl.org/dc/dcmitype/StillImage" />
        <dc:title></dc:title>
      </cc:Work>
    </rdf:RDF>
  </metadata>
  <g
     inkscape:label="Laag 1"
     inkscape:groupmode="layer"
     id="layer1"
     transform="translate(-41.782479,-640.28572)">
    <g
       id="g6338"
       inkscape:export-filename="C:\xampp\htdocs\aulis\Aulis\library\icons\mail.png"
       inkscape:export-xdpi="562.96002"
       inkscape:export-ydpi="562.96002"
       transform="matrix(2.0281712,0,0,2.3705107,-594.82975,-750.05401)">
      <path
         style="fill:#ffad80;fill-rule:evenodd;stroke:none;stroke-width:0.456065px;stroke-linecap:butt;stroke-linejoin:miter;stroke-opacity:1;fill-opacity:1"
         d="m 314.15293,587.65407 c 0.63356,-1.11759 1.80925,-1.10867 2.65264,-0.92161 0.60456,0.13408 1.25741,2.03088 0.644,2.35574 -1.11053,0.48129 -1.66917,0.45644 -3.23759,-0.22164 -0.40395,-0.17465 -0.27023,-0.94103 0.15748,-1.48935"
         id="path4775"
         inkscape:connector-curvature="0"
         sodipodi:nodetypes="cscsc" />
      <g
         transform="translate(-0.03438066,0.00582578)"
         id="g7332">
        <path
           sodipodi:nodetypes="aaaaaaaaaaaaaa"
           inkscape:connector-curvature="0"
           id="path4809"
           d="m 315.03051,587.66804 c 0.0187,-0.039 0.0444,-0.0778 0.0809,-0.10392 0.0229,-0.0164 0.053,-0.022 0.0809,-0.0291 0.0264,-0.007 0.0537,-0.015 0.0809,-0.0125 0.0208,0.002 0.0426,0.008 0.0584,0.0208 0.0208,0.0166 0.0308,0.0427 0.0405,0.0665 0.0102,0.0252 0.0171,0.0521 0.018,0.079 0.001,0.028 0.001,0.0585 -0.0135,0.0831 -0.0153,0.0259 -0.045,0.0425 -0.0719,0.0582 -0.0317,0.0186 -0.0666,0.0345 -0.10339,0.0416 -0.0352,0.007 -0.0758,0.015 -0.1079,0 -0.0248,-0.0116 -0.037,-0.0393 -0.0494,-0.0624 -0.0139,-0.0259 -0.0257,-0.0542 -0.0269,-0.0831 -10e-4,-0.0198 0.005,-0.0401 0.0135,-0.0582 z"
           style="fill:#000000;fill-opacity:1;fill-rule:evenodd;stroke:none;stroke-width:0.456065px;stroke-linecap:butt;stroke-linejoin:miter;stroke-opacity:1" />
        <path
           sodipodi:nodetypes="aaaaaaaaaaaaaa"
           inkscape:connector-curvature="0"
           id="path4809-9"
           d="m 316.70322,587.68881 c -0.0187,-0.039 -0.0444,-0.0778 -0.0809,-0.10392 -0.0229,-0.0164 -0.053,-0.022 -0.0809,-0.0291 -0.0264,-0.007 -0.0537,-0.015 -0.0809,-0.0125 -0.0208,0.002 -0.0426,0.008 -0.0584,0.0208 -0.0208,0.0166 -0.0308,0.0427 -0.0405,0.0665 -0.0102,0.0252 -0.0171,0.0521 -0.018,0.079 -10e-4,0.028 -10e-4,0.0585 0.0135,0.0831 0.0153,0.0259 0.045,0.0425 0.0719,0.0582 0.0317,0.0186 0.0666,0.0345 0.10339,0.0416 0.0352,0.007 0.0758,0.015 0.1079,0 0.0248,-0.0116 0.037,-0.0393 0.0494,-0.0624 0.0139,-0.0259 0.0257,-0.0542 0.0269,-0.0831 10e-4,-0.0198 -0.005,-0.0401 -0.0135,-0.0582 z"
           style="fill:#000000;fill-opacity:1;fill-rule:evenodd;stroke:none;stroke-width:0.456065px;stroke-linecap:butt;stroke-linejoin:miter;stroke-opacity:1" />
        <path
           inkscape:connector-curvature="0"
           id="path7315"
           d="m 314.94291,587.19888 0.59957,0.20117"
           style="fill:none;fill-rule:evenodd;stroke:#000000;stroke-width:0.11401625;stroke-linecap:butt;stroke-linejoin:miter;stroke-miterlimit:4;stroke-dasharray:none;stroke-opacity:1" />
        <path
           inkscape:connector-curvature="0"
           id="path7315-2"
           d="m 316.20352,587.41624 0.55889,-0.27379"
           style="fill:none;fill-rule:evenodd;stroke:#000000;stroke-width:0.11401625;stroke-linecap:butt;stroke-linejoin:miter;stroke-miterlimit:4;stroke-dasharray:none;stroke-opacity:1" />
      </g>
      <path
         style="fill:none;fill-rule:evenodd;stroke:#000000;stroke-width:0.1368195;stroke-linecap:butt;stroke-linejoin:miter;stroke-miterlimit:4;stroke-dasharray:none;stroke-opacity:1"
         d="m 315.04986,588.71216 c 0.25909,-0.46301 1.13037,-0.65191 1.59884,0.0704"
         id="path4841"
         inkscape:connector-curvature="0"
         sodipodi:nodetypes="cc" />
    </g>
  </g>
</svg>
