<svg xmlns="http://www.w3.org/2000/svg" viewBox="0 0 7.8636134 7.0101205" xmlns:xlink="http://www.w3.org/1999/xlink"><g transform="matrix(2.02817 0 0 2.37051-636.61-1390.34)"><path d="m314.15 587.65c.634-1.118 1.809-1.109 2.653-.922.605.134 1.257 2.031.644 2.356-1.111.481-1.669.456-3.238-.222-.404-.175-.27-.941.157-1.489" fill="#ffe680" fill-rule="evenodd"/><g><path d="m314.88 587.68c.035-.06.082-.119.15-.159.042-.025.098-.034.15-.045.049-.011.099-.023.15-.019.038.003.079.012.108.032.038.025.057.066.075.102.019.039.032.08.033.121.002.043.002.09-.025.127-.028.04-.083.065-.133.089-.059.029-.123.053-.191.064-.065.011-.14.023-.2 0-.046-.018-.068-.06-.091-.096-.026-.04-.048-.083-.05-.127-.002-.03.009-.062.025-.089" fill="#fff" fill-rule="evenodd" id="0"/><path d="m315.03 587.67c.019-.039.044-.078.081-.104.023-.016.053-.022.081-.029.026-.007.054-.015.081-.013.021.002.043.008.058.021.021.017.031.043.041.067.001.025.017.052.018.079.0001.028.0001.058-.014.083-.015.026-.045.043-.072.058-.032.019-.067.034-.103.042-.035.007-.076.015-.108 0-.025-.012-.037-.039-.049-.062-.014-.026-.026-.054-.027-.083-.0001-.02.005-.04.014-.058" fill-rule="evenodd" id="1"/></g><g transform="matrix(-1 0 0 1 631.74.001)"><use xlink:href="#0"/><use xlink:href="#1"/></g><path d="m-675.73 282.44c0 .094-.016.18-.049.256-.032.077-.076.136-.13.178-.038.029-.08.05-.127.063-.046.013-.108.019-.184.019h-.21l-.004-1.037h.208c.081 0 .145.008.193.023.048.015.089.035.122.06.057.044.101.103.133.177.032.074.048.161.048.261m-.115-.002c-.526-1.102-.263-.551 0 0" transform="matrix(.01609-.86411 1.15697.01577 0-.078)" fill="#ff8080"/><g fill="none" fill-rule="evenodd" stroke="#000" stroke-width=".137"><path d="m314.7 587.35l.523-.347"/><path d="m317.06 587.37l-.523-.347"/></g></g></svg>