<?xml version="1.0" encoding="UTF-8" standalone="no"?>
<!-- Created with Inkscape (http://www.inkscape.org/) -->

<svg
   xmlns:dc="http://purl.org/dc/elements/1.1/"
   xmlns:cc="http://creativecommons.org/ns#"
   xmlns:rdf="http://www.w3.org/1999/02/22-rdf-syntax-ns#"
   xmlns:svg="http://www.w3.org/2000/svg"
   xmlns="http://www.w3.org/2000/svg"
   xmlns:sodipodi="http://sodipodi.sourceforge.net/DTD/sodipodi-0.dtd"
   xmlns:inkscape="http://www.inkscape.org/namespaces/inkscape"
   width="2.2192864mm"
   height="1.9784118mm"
   viewBox="0 0 7.8636134 7.0101205"
   id="svg5218"
   version="1.1"
   inkscape:version="0.91 r13725"
   sodipodi:docname="shock.svg">
  <defs
     id="defs5220" />
  <sodipodi:namedview
     id="base"
     pagecolor="#ffffff"
     bordercolor="#666666"
     borderopacity="1.0"
     inkscape:pageopacity="0.0"
     inkscape:pageshadow="2"
     inkscape:zoom="7.4140487"
     inkscape:cx="5.4083409"
     inkscape:cy="5.2616189"
     inkscape:document-units="px"
     inkscape:current-layer="g6338"
     showgrid="false"
     fit-margin-top="0"
     fit-margin-left="0"
     fit-margin-right="0"
     fit-margin-bottom="0"
     inkscape:window-width="1366"
     inkscape:window-height="715"
     inkscape:window-x="-4"
     inkscape:window-y="-4"
     inkscape:window-maximized="1" />
  <metadata
     id="metadata5223">
    <rdf:RDF>
      <cc:Work
         rdf:about="">
        <dc:format>image/svg+xml</dc:format>
        <dc:type
           rdf:resource="http://purl.org/dc/dcmitype/StillImage" />
        <dc:title></dc:title>
      </cc:Work>
    </rdf:RDF>
  </metadata>
  <g
     inkscape:label="Laag 1"
     inkscape:groupmode="layer"
     id="layer1"
     transform="translate(-41.782479,-640.28572)">
    <g
       id="g6338"
       inkscape:export-filename="C:\xampp\htdocs\aulis\Aulis\library\icons\mail.png"
       inkscape:export-xdpi="562.96002"
       inkscape:export-ydpi="562.96002"
       transform="matrix(2.0281712,0,0,2.3705107,-594.82975,-750.05401)">
      <path
         style="fill:#ffe680;fill-rule:evenodd;stroke:none;stroke-width:0.456065px;stroke-linecap:butt;stroke-linejoin:miter;stroke-opacity:1"
         d="m 314.15293,587.65407 c 0.63356,-1.11759 1.80925,-1.10867 2.65264,-0.92161 0.60456,0.13408 1.25741,2.03088 0.644,2.35574 -1.11053,0.48129 -1.66917,0.45644 -3.23759,-0.22164 -0.40395,-0.17465 -0.27023,-0.94103 0.15748,-1.48935"
         id="path4775"
         inkscape:connector-curvature="0"
         sodipodi:nodetypes="cscsc" />
      <g
         id="g8000">
        <path
           sodipodi:nodetypes="aaaaaaaaaaaaaa"
           inkscape:connector-curvature="0"
           id="path4809-94"
           d="m 314.8752,587.67618 c 0.0346,-0.0598 0.0821,-0.11931 0.14965,-0.15936 0.0424,-0.0252 0.0981,-0.0337 0.14966,-0.0446 0.0488,-0.0107 0.0993,-0.023 0.14966,-0.0192 0.0385,0.003 0.0788,0.0123 0.10803,0.0319 0.0385,0.0254 0.057,0.0655 0.0749,0.10198 0.0189,0.0386 0.0316,0.0799 0.0333,0.12115 0.002,0.0429 0.002,0.0897 -0.025,0.12744 -0.0283,0.0397 -0.0832,0.0652 -0.13301,0.0892 -0.0586,0.0285 -0.1232,0.0529 -0.19126,0.0638 -0.0651,0.0107 -0.14022,0.023 -0.19961,0 -0.0459,-0.0178 -0.0684,-0.0603 -0.0914,-0.0957 -0.0257,-0.0397 -0.0475,-0.0831 -0.0498,-0.12744 -0.002,-0.0304 0.009,-0.0615 0.025,-0.0893 z"
           style="fill:#ffffff;fill-opacity:1;fill-rule:evenodd;stroke:none;stroke-width:0.456065px;stroke-linecap:butt;stroke-linejoin:miter;stroke-opacity:1" />
        <path
           sodipodi:nodetypes="aaaaaaaaaaaaaa"
           inkscape:connector-curvature="0"
           id="path4809"
           d="m 315.03051,587.66804 c 0.0187,-0.039 0.0444,-0.0778 0.0809,-0.10392 0.0229,-0.0164 0.053,-0.022 0.0809,-0.0291 0.0264,-0.007 0.0537,-0.015 0.0809,-0.0125 0.0208,0.002 0.0426,0.008 0.0584,0.0208 0.0208,0.0166 0.0308,0.0427 0.0405,0.0665 0.0102,0.0252 0.0171,0.0521 0.018,0.079 0.001,0.028 0.001,0.0585 -0.0135,0.0831 -0.0153,0.0259 -0.045,0.0425 -0.0719,0.0582 -0.0317,0.0186 -0.0666,0.0345 -0.10339,0.0416 -0.0352,0.007 -0.0758,0.015 -0.1079,0 -0.0248,-0.0116 -0.037,-0.0393 -0.0494,-0.0624 -0.0139,-0.0259 -0.0257,-0.0542 -0.0269,-0.0831 -10e-4,-0.0198 0.005,-0.0401 0.0135,-0.0582 z"
           style="fill:#000000;fill-opacity:1;fill-rule:evenodd;stroke:none;stroke-width:0.456065px;stroke-linecap:butt;stroke-linejoin:miter;stroke-opacity:1" />
      </g>
      <g
         id="g8015"
         transform="matrix(-1,0,0,1,631.7432,0.01005837)">
        <path
           style="fill:#ffffff;fill-opacity:1;fill-rule:evenodd;stroke:none;stroke-width:0.456065px;stroke-linecap:butt;stroke-linejoin:miter;stroke-opacity:1"
           d="m 314.8752,587.67618 c 0.0346,-0.0598 0.0821,-0.11931 0.14965,-0.15936 0.0424,-0.0252 0.0981,-0.0337 0.14966,-0.0446 0.0488,-0.0107 0.0993,-0.023 0.14966,-0.0192 0.0385,0.003 0.0788,0.0123 0.10803,0.0319 0.0385,0.0254 0.057,0.0655 0.0749,0.10198 0.0189,0.0386 0.0316,0.0799 0.0333,0.12115 0.002,0.0429 0.002,0.0897 -0.025,0.12744 -0.0283,0.0397 -0.0832,0.0652 -0.13301,0.0892 -0.0586,0.0285 -0.1232,0.0529 -0.19126,0.0638 -0.0651,0.0107 -0.14022,0.023 -0.19961,0 -0.0459,-0.0178 -0.0684,-0.0603 -0.0914,-0.0957 -0.0257,-0.0397 -0.0475,-0.0831 -0.0498,-0.12744 -0.002,-0.0304 0.009,-0.0615 0.025,-0.0893 z"
           id="path8017"
           inkscape:connector-curvature="0"
           sodipodi:nodetypes="aaaaaaaaaaaaaa" />
        <path
           style="fill:#000000;fill-opacity:1;fill-rule:evenodd;stroke:none;stroke-width:0.456065px;stroke-linecap:butt;stroke-linejoin:miter;stroke-opacity:1"
           d="m 315.03051,587.66804 c 0.0187,-0.039 0.0444,-0.0778 0.0809,-0.10392 0.0229,-0.0164 0.053,-0.022 0.0809,-0.0291 0.0264,-0.007 0.0537,-0.015 0.0809,-0.0125 0.0208,0.002 0.0426,0.008 0.0584,0.0208 0.0208,0.0166 0.0308,0.0427 0.0405,0.0665 0.0102,0.0252 0.0171,0.0521 0.018,0.079 0.001,0.028 0.001,0.0585 -0.0135,0.0831 -0.0153,0.0259 -0.045,0.0425 -0.0719,0.0582 -0.0317,0.0186 -0.0666,0.0345 -0.10339,0.0416 -0.0352,0.007 -0.0758,0.015 -0.1079,0 -0.0248,-0.0116 -0.037,-0.0393 -0.0494,-0.0624 -0.0139,-0.0259 -0.0257,-0.0542 -0.0269,-0.0831 -10e-4,-0.0198 0.005,-0.0401 0.0135,-0.0582 z"
           id="path8019"
           inkscape:connector-curvature="0"
           sodipodi:nodetypes="aaaaaaaaaaaaaa" />
      </g>
      <g
         transform="matrix(0.01608558,-0.86410904,1.1569679,0.01576576,0,-0.07823577)"
         style="font-style:normal;font-weight:normal;font-size:1.65277195px;line-height:125%;font-family:sans-serif;letter-spacing:0.17429233px;word-spacing:0px;fill:#ff8080;fill-opacity:1;stroke:none;stroke-width:1px;stroke-linecap:butt;stroke-linejoin:miter;stroke-opacity:1"
         id="text8021">
        <path
           d="m -675.73374,282.4389 c 3.5e-4,0.0942 -0.0158,0.17961 -0.0487,0.25609 -0.0324,0.0765 -0.0759,0.13577 -0.13045,0.17783 -0.0379,0.0292 -0.0801,0.05 -0.12696,0.0629 -0.0464,0.0129 -0.1078,0.0191 -0.18404,0.0188 l -0.20976,-4.6e-4 -0.004,-1.03692 0.20753,4.7e-4 c 0.0811,2.9e-4 0.14545,0.008 0.19311,0.0229 0.048,0.0146 0.0887,0.0346 0.12184,0.0603 0.0567,0.0443 0.10098,0.10319 0.13285,0.17664 0.0319,0.0735 0.048,0.16056 0.0483,0.2613 z m -0.11546,-0.002 c -0.52645,-1.10231 -0.26322,-0.55115 0,0 z"
           id="path8026"
           style="fill:#ff8080"
           inkscape:connector-curvature="0"
           sodipodi:nodetypes="ccccsccsccccccc" />
      </g>
      <path
         style="fill:none;fill-rule:evenodd;stroke:#000000;stroke-width:0.1368195;stroke-linecap:butt;stroke-linejoin:miter;stroke-opacity:1;stroke-miterlimit:4;stroke-dasharray:none"
         d="m 314.69603,587.35478 0.52315,-0.34701"
         id="path8028"
         inkscape:connector-curvature="0" />
      <path
         style="fill:none;fill-rule:evenodd;stroke:#000000;stroke-width:0.1368195;stroke-linecap:butt;stroke-linejoin:miter;stroke-miterlimit:4;stroke-dasharray:none;stroke-opacity:1"
         d="m 317.05608,587.36736 -0.52315,-0.34701"
         id="path8028-0"
         inkscape:connector-curvature="0" />
    </g>
  </g>
</svg>
