<svg xmlns="http://www.w3.org/2000/svg" viewBox="0 0 7.8636134 7.0101205"><g transform="matrix(2.02817 0 0 2.37051-636.61-1390.34)"><g fill-rule="evenodd"><path d="m314.15 587.65c.634-1.118 1.809-1.109 2.653-.922.605.134 1.257 2.031.644 2.356-1.111.481-1.669.456-3.238-.222-.404-.175-.27-.941.157-1.489" fill="#ffe680"/><path d="m315.03 587.67c.019-.039.044-.078.081-.104.023-.016.053-.022.081-.029.026-.007.054-.015.081-.013.021.002.043.008.058.021.021.017.031.043.041.067.001.025.017.052.018.079.0001.028.0001.058-.014.083-.015.026-.045.043-.072.058-.032.019-.067.034-.103.042-.035.007-.076.015-.108 0-.025-.012-.037-.039-.049-.062-.014-.026-.026-.054-.027-.083-.0001-.02.005-.04.014-.058"/><path d="m316.7 587.69c-.019-.039-.044-.078-.081-.104-.023-.016-.053-.022-.081-.029-.026-.007-.054-.015-.081-.013-.021.002-.043.008-.058.021-.021.017-.031.043-.041.067-.001.025-.017.052-.018.079-.0001.028-.0001.058.014.083.015.026.045.043.072.058.032.019.067.034.103.042.035.007.076.015.108 0 .025-.012.037-.039.049-.062.014-.026.026-.054.027-.083.0001-.02-.005-.04-.014-.058"/></g><path d="m634.34-299.43c0 .414-.091.79-.273 1.127-.18.337-.419.598-.72.784-.208.129-.441.221-.698.279-.255.057-.592.086-1.01.086l-1.584.149.433-1.289v-1.14-1.14l-.435-1.282 1.574.142c.437.039.798.033 1.059.098.263.063.486.151.668.263.31.194.552.452.726.775.174.323.26.705.26 1.148m-.634-.009" fill="#f55" transform="matrix(.02766.0967-.07393.01818 276.73 532.9)"/><g fill-rule="evenodd"><path d="m316.29 588.47l.038.204" stroke-opacity=".331" fill="#ff8080" stroke="#d87171" stroke-width=".046"/><path d="m315.1 588.36c.553.166.931.149 1.599-.07" fill="none" stroke="#000" stroke-width=".137"/></g></g></svg>