<svg xmlns="http://www.w3.org/2000/svg" viewBox="0 0 7.8636134 7.0101205"><g transform="matrix(2.02817 0 0 2.37051-636.61-1390.34)" fill-rule="evenodd"><path d="m314.15 587.65c.634-1.118 1.809-1.109 2.653-.922.605.134 1.257 2.031.644 2.356-1.111.481-1.669.456-3.238-.222-.404-.175-.27-.941.157-1.489" fill="#ffe680"/><path d="m314.96 587.7c.025-.025.059-.049.108-.066.031-.011.071-.014.108-.018.035-.005.072-.009.108-.008.028.0001.057.005.078.014.028.011.041.027.054.042.014.016.023.033.024.05.0001.018-.0001.043-.018.053-.04.022-.089-.028-.135-.029-.047-.0001-.094.009-.138.026-.039.015-.064.065-.105.066-.026 0-.049-.025-.066-.039-.019-.016-.034-.034-.036-.053-.0001-.012.007-.025.018-.037"/><path d="m316.7 587.69c-.019-.039-.044-.078-.081-.104-.023-.016-.053-.022-.081-.029-.026-.007-.054-.015-.081-.013-.021.002-.043.008-.058.021-.021.017-.031.043-.041.067-.001.025-.017.052-.018.079-.0001.028-.0001.058.014.083.015.026.045.043.072.058.032.019.067.034.103.042.035.007.076.015.108 0 .025-.012.037-.039.049-.062.014-.026.026-.054.027-.083.0001-.02-.005-.04-.014-.058"/><path d="m315.01 588.19c.259.463 1.13.652 1.599-.07" fill="none" stroke="#000" stroke-width=".137"/></g></svg>