<svg xmlns="http://www.w3.org/2000/svg" viewBox="0 0 7.8636134 7.0101205"><g transform="matrix(2.02817 0 0 2.37051-636.61-1390.34)" fill-rule="evenodd"><path d="m314.15 587.65c.634-1.118 1.809-1.109 2.653-.922.605.134 1.257 2.031.644 2.356-1.111.481-1.669.456-3.238-.222-.404-.175-.27-.941.157-1.489" fill="#ffe680"/><path d="m315.03 587.67c.019-.039.044-.078.081-.104.023-.016.053-.022.081-.029.026-.007.054-.015.081-.013.021.002.043.008.058.021.021.017.031.043.041.067.001.025.017.052.018.079.0001.028.0001.058-.014.083-.015.026-.045.043-.072.058-.032.019-.067.034-.103.042-.035.007-.076.015-.108 0-.025-.012-.037-.039-.049-.062-.014-.026-.026-.054-.027-.083-.0001-.02.005-.04.014-.058"/><path d="m316.7 587.69c-.019-.039-.044-.078-.081-.104-.023-.016-.053-.022-.081-.029-.026-.007-.054-.015-.081-.013-.021.002-.043.008-.058.021-.021.017-.031.043-.041.067-.001.025-.017.052-.018.079-.0001.028-.0001.058.014.083.015.026.045.043.072.058.032.019.067.034.103.042.035.007.076.015.108 0 .025-.012.037-.039.049-.062.014-.026.026-.054.027-.083.0001-.02-.005-.04-.014-.058"/><g fill="none" stroke="#000" stroke-width=".137"><path d="m314.82 587.11l.624-.182"/><path d="m316.39 587.22l.547.226"/><path d="m315.56 588.84h.657"/></g></g></svg>