<svg xmlns="http://www.w3.org/2000/svg" width="122.18" viewBox="0 0 122.18495 57.985138"><g transform="matrix(2.02817 0 0 2.37051-580.18-1364.84)"><path d="m292.11 635.86l-.184-1.865v-1.39h.652v1.39l-.181 1.865h-.288m.144 1.286q-.101 0-.187-.037-.086-.037-.15-.098-.064-.064-.101-.147-.034-.083-.034-.178 0-.095.034-.178.037-.086.101-.147.064-.064.15-.101.086-.037.187-.037.098 0 .184.037.089.037.153.101.064.061.101.147.037.083.037.178 0 .095-.037.178-.037.083-.101.147-.064.061-.153.098-.086.037-.184.037" fill="#fff" transform="matrix(.53823 0 0 .39857 158.52 335.42)"/><g transform="matrix(.73758 0 0 .63796 55.963 312.51)" stroke="none" font-family="sans-serif" word-spacing="0" line-height="125%" letter-spacing="0"><text xml:space="preserve" x="163.65" y="468.29" font-size="70" transform="translate(143.81-23.15)" fill="#241f1c"><tspan x="163.65" y="468.29" font-family="overpass" letter-spacing="-3" font-size="45">[   ]lis</tspan></text><text x="300.64" y="465.1" transform="scale(1.05552.9474)" fill="#2ca05a" font-size="47.543"><tspan x="300.64" y="465.1" font-family="overpass" letter-spacing="-2.038" font-size="30.563">au</tspan></text></g></g></svg>