<svg xmlns="http://www.w3.org/2000/svg" viewBox="0 0 3000 1000" xmlns:xlink="http://www.w3.org/1999/xlink"><defs><path id="0" d="m314.15 587.65c.634-1.118 1.809-1.109 2.653-.922.605.134 1.257 2.031.644 2.356-1.111.481-1.669.456-3.238-.222-.404-.175-.27-.941.157-1.489" fill-rule="evenodd"/><path id="1" d="m316.7 587.69c-.019-.039-.044-.078-.081-.104-.023-.016-.053-.022-.081-.029-.026-.007-.054-.015-.081-.013-.021.002-.043.008-.058.021-.021.017-.031.043-.041.067-.0001.025-.017.052-.018.079 0 .028 0 .058.014.083.015.026.045.043.072.058.032.019.067.034.103.042.035.007.076.015.108 0 .025-.012.037-.039.049-.062.014-.026.026-.054.027-.083 0-.02-.005-.04-.014-.058" fill-rule="evenodd"/><path id="2" d="m315.03 587.67c.019-.039.044-.078.081-.104.023-.016.053-.022.081-.029.026-.007.054-.015.081-.013.021.002.043.008.058.021.021.017.031.043.041.067.0001.025.017.052.018.079 0 .028 0 .058-.014.083-.015.026-.045.043-.072.058-.032.019-.067.034-.103.042-.035.007-.076.015-.108 0-.025-.012-.037-.039-.049-.062-.014-.026-.026-.054-.027-.083 0-.02.005-.04.014-.058" fill-rule="evenodd"/><path id="3" d="m315.5 587.47l-.173.131-.237.081-.173.06-.047-.101.347-.221h.3z" fill="#ffe680" fill-rule="evenodd"/><path id="4" d="m634.34-299.43c0 .414-.091.79-.273 1.127-.18.337-.419.598-.72.784-.208.129-.441.221-.698.279-.255.057-.592.086-1.01.086l-1.584.149.433-1.289v-1.14-1.14l-.435-1.282 1.574.142c.437.039.798.033 1.059.098.263.063.486.151.668.263.31.194.552.452.726.775.174.323.26.705.26 1.148"/></defs><g transform="matrix(2.02817 0 0 2.37051-520.92-1295.17)"><use fill="#ffe680" xlink:href="#0"/><use xlink:href="#2"/><use xlink:href="#1"/><path d="m315.01 588.19c.259.463 1.13.652 1.599-.07" fill="none" fill-rule="evenodd" stroke="#000" stroke-width=".137" id="5"/></g><text x="115.95" y="94.09" transform="scale(1.01219.98796)" font-family="overpass" fill="#241c1c" word-spacing="0" line-height="125%" letter-spacing="0" font-size="7.975"><tspan x="115.95" y="94.09"/></text><g fill="#fff"><path d="m292.11 635.86l-.184-1.865v-1.39h.652v1.39l-.181 1.865h-.288m.144 1.286q-.101 0-.187-.037-.086-.037-.15-.098-.064-.064-.101-.147-.034-.083-.034-.178 0-.095.034-.178.037-.086.101-.147.064-.064.15-.101.086-.037.187-.037.098 0 .184.037.089.037.153.101.064.061.101.147.037.083.037.178 0 .095-.037.178-.037.083-.101.147-.064.061-.153.098-.086.037-.184.037" fill="#fff" transform="matrix(.10295 0 0 .09797 102.04 49.14)" id="6"/></g><g transform="matrix(.14107 0 0 .15682 104.87 23.446)" font-family="sans-serif" word-spacing="0" line-height="125%" letter-spacing="0"><text y="468.29" x="163.65" xml:space="preserve" font-size="70" transform="translate(143.81-23.15)" fill="#241f1c"><tspan y="468.29" x="163.65" font-family="overpass" letter-spacing="-3" font-size="45">[   ]lis</tspan></text><text transform="scale(1.05552.9474)" y="465.1" x="300.64" fill="#2ca05a" font-size="47.543"><tspan y="465.1" x="300.64" font-family="overpass" letter-spacing="-2.038" font-size="30.563">au</tspan></text></g><g transform="matrix(.48468 0 0 .46605 71.41 48.18)" fill="#241f1c"><path d="m116.87 97.02q-.416 0-.812-.081-.396-.081-.745-.228-.342-.148-.624-.356-.282-.215-.47-.477l1.014-.866q.107.101.262.228.154.121.356.228.201.107.45.181.248.074.544.074.269 0 .497-.04.228-.04.389-.128.168-.087.255-.228.094-.148.094-.363 0-.248-.175-.423-.168-.181-.443-.322-.275-.148-.624-.275-.349-.134-.705-.282-.329-.141-.645-.309-.316-.168-.564-.403-.242-.235-.396-.557-.148-.329-.148-.792 0-.47.188-.833.195-.363.524-.604.336-.248.779-.376.45-.128.96-.128.45 0 .826.087.383.087.685.235.309.148.544.342.235.188.41.396l-1.034.819q-.094-.094-.228-.195-.128-.107-.302-.195-.175-.087-.396-.141-.222-.06-.504-.06-.457 0-.725.168-.262.168-.262.483 0 .201.141.356.141.148.383.275.242.128.551.248.316.114.658.248.363.141.712.316.349.175.618.43.275.255.436.618.168.363.168.873 0 .504-.188.893-.188.383-.537.645-.342.255-.833.383-.483.134-1.081.134" id="7"/><path d="m129.47 96.85v-4.21q0-.786-.322-1.208-.322-.423-.967-.423-.289 0-.544.107-.255.107-.45.322-.188.215-.302.537-.107.316-.107.739v4.136h-1.43v-4.21q0-.786-.329-1.208-.322-.423-.967-.423-.289 0-.544.107-.248.107-.443.322-.188.215-.302.537-.107.316-.107.739v4.136h-1.43v-7.03h1.43v.651q.302-.436.765-.624.463-.188 1.01-.188.577 0 1.067.235.497.228.799.765.336-.517.859-.759.524-.242 1.222-.242.537 0 .994.154.463.154.799.477.342.322.537.826.195.504.195 1.195v4.539h-1.43" id="8"/><path d="m132.92 96.85v-7.03h1.43v7.03h-1.43m.712-8.124q-.181 0-.342-.067-.154-.067-.275-.181-.114-.121-.181-.275-.067-.161-.067-.342 0-.181.067-.336.067-.161.181-.275.121-.121.275-.188.161-.067.342-.067.181 0 .336.067.161.067.275.188.121.114.188.275.067.154.067.336 0 .181-.067.342-.067.154-.188.275-.114.114-.275.181-.154.067-.336.067" id="9"/><path d="m136.49 96.85v-9.252l1.43-.678v9.93h-1.43" id="A"/><path d="m140.07 96.85v-7.03h1.43v7.03h-1.43m.712-8.124q-.181 0-.342-.067-.154-.067-.275-.181-.114-.121-.181-.275-.067-.161-.067-.342 0-.181.067-.336.067-.161.181-.275.121-.121.275-.188.161-.067.342-.067.181 0 .336.067.161.067.275.188.121.114.188.275.067.154.067.336 0 .181-.067.342-.067.154-.188.275-.114.114-.275.181-.154.067-.336.067" id="B"/><path d="m146.42 97.02q-.732 0-1.323-.248-.591-.255-1.01-.725-.416-.477-.645-1.161-.222-.685-.222-1.551 0-.866.228-1.544.228-.685.645-1.155.423-.477 1.01-.725.591-.248 1.316-.248.624 0 1.168.201.551.195.96.604.416.403.651 1.021.242.618.242 1.457 0 .228-.013.483-.007.255-.04.443h-4.733q.007.436.154.786.154.342.403.591.248.242.564.376.316.128.658.128.436 0 .806-.181.376-.181.651-.53l.933.96q-.383.457-.98.739-.598.282-1.423.282m0-6.096q-.336 0-.645.101-.309.094-.551.309-.235.208-.389.551-.154.342-.181.833h3.357q-.013-.49-.154-.833-.141-.342-.369-.551-.228-.215-.51-.309-.275-.101-.557-.101" id="C"/><path d="m153.26 97.02q-.416 0-.812-.081-.396-.081-.745-.228-.342-.148-.624-.356-.282-.215-.47-.477l1.014-.866q.107.101.262.228.154.121.356.228.201.107.45.181.248.074.544.074.269 0 .497-.04.228-.04.389-.128.168-.087.255-.228.094-.148.094-.363 0-.248-.175-.423-.168-.181-.443-.322-.275-.148-.624-.275-.349-.134-.705-.282-.329-.141-.645-.309-.316-.168-.564-.403-.242-.235-.396-.557-.148-.329-.148-.792 0-.47.188-.833.195-.363.524-.604.336-.248.779-.376.45-.128.96-.128.45 0 .826.087.383.087.685.235.309.148.544.342.235.188.41.396l-1.034.819q-.094-.094-.228-.195-.128-.107-.302-.195-.175-.087-.396-.141-.222-.06-.504-.06-.457 0-.725.168-.262.168-.262.483 0 .201.141.356.141.148.383.275.242.128.551.248.316.114.658.248.363.141.712.316.349.175.618.43.275.255.436.618.168.363.168.873 0 .504-.188.893-.188.383-.537.645-.342.255-.833.383-.483.134-1.081.134" id="D"/></g><g transform="matrix(2.02817 0 0 2.37051-486.15-1294.96)"><use fill="#ffe680" xlink:href="#0"/><use xlink:href="#2"/><use xlink:href="#1"/><path d="m315.01 588.57c.259-.463 1.13-.652 1.599.07" fill="none" fill-rule="evenodd" stroke="#000" stroke-width=".137"/><use xlink:href="#3"/><path d="m316.25 587.51l.173.131.237.081.173.06.047-.101-.347-.221h-.3z" fill="#ffe680" fill-rule="evenodd" id="E"/></g><g transform="matrix(2.02817 0 0 2.37051-512.22-1295.04)"><use fill="#ffe680" xlink:href="#0"/><use xlink:href="#2"/><use xlink:href="#1"/><use fill="#f55" transform="matrix(.02766.0967-.07393.01818 276.73 532.9)" xlink:href="#4"/><g fill-rule="evenodd"><path d="m316.29 588.47l.038.204" stroke-opacity=".331" fill="#ff8080" stroke="#d87171" stroke-width=".046"/><path d="m315.1 588.36c.553.166.931.149 1.599-.07" fill="none" stroke="#000" stroke-width=".137"/></g></g><g transform="matrix(2.02817 0 0 2.37051-503.3-1294.96)"><use fill="#ffe680" xlink:href="#0"/><path d="m314.97 587.66c.031-.02.07-.037.122-.045.033-.005.072 0 .11.002.036.002.072.004.107.012.027.006.054.015.073.028.024.016.034.034.042.051.009.018.014.036.011.053-.003.018-.012.042-.031.048-.045.015-.08-.044-.124-.053-.046-.009-.094-.008-.141 0-.041.008-.078.052-.119.045-.025-.004-.042-.033-.055-.051-.014-.019-.025-.04-.022-.058.002-.012.013-.023.027-.033" fill-rule="evenodd"/><path d="m316.24 587.67c.031-.02.07-.037.122-.045.033-.005.072 0 .11.002.036.002.072.004.107.012.027.006.054.015.073.028.024.016.034.034.042.051.009.018.014.036.011.053-.003.018-.012.042-.031.048-.045.015-.08-.044-.124-.053-.046-.009-.094-.008-.141 0-.041.008-.078.052-.119.045-.025-.004-.042-.033-.055-.051-.014-.019-.025-.04-.022-.058.002-.012.013-.023.027-.033" fill-rule="evenodd" id="F"/><use fill="#fff" transform="matrix(-.0039.19673-.4567-.00168 181.55 463.58)" xlink:href="#4"/></g><g transform="matrix(2.02817 0 0 2.37051-494.63-1294.87)"><use fill="#ffe680" xlink:href="#0"/><path d="m314.96 587.7c.025-.025.059-.049.108-.066.031-.011.071-.014.108-.018.035-.005.072-.009.108-.008.028 0 .057.005.078.014.028.011.041.027.054.042.014.016.023.033.024.05 0 .018 0 .043-.018.053-.04.022-.089-.028-.135-.029-.047 0-.094.009-.138.026-.039.015-.064.065-.105.066-.026 0-.049-.025-.066-.039-.019-.016-.034-.034-.036-.053 0-.012.007-.025.018-.037" fill-rule="evenodd"/><use xlink:href="#1"/><use xlink:href="#5"/></g><g transform="matrix(2.02817 0 0 2.37051-477.75-1294.78)"><use fill="#ffe680" xlink:href="#0"/><use xlink:href="#2"/><use xlink:href="#1"/><path d="m315.78 588.64c.553.166.243-.228.911-.448" fill="none" fill-rule="evenodd" stroke="#000" stroke-width=".137"/></g><g transform="matrix(2.02817 0 0 2.37051-469-1294.78)"><use fill="#ffe680" xlink:href="#0"/><use xlink:href="#2"/><use xlink:href="#1"/><path d="m315.6 588.68c.494-.03.331.032 1.176-.443" fill="none" fill-rule="evenodd" stroke="#000" stroke-width=".137" id="G"/><use xlink:href="#3"/><use id="H" xlink:href="#E"/></g><g transform="matrix(2.02817 0 0 2.37051-521.26-1285.44)"><use fill="#ffe680" xlink:href="#0"/><g fill-rule="evenodd"><path d="m315.03 587.67c.171.204.407-.157.412-.158.0001.025.017.052.018.079 0 .028 0 .057-.014.083-.03.061-.082.116-.143.158-.03.02-.067.034-.103.042-.035.007-.076.015-.108 0-.025-.012-.037-.039-.049-.062-.014-.026-.026-.054-.027-.083 0-.02.005-.04.014-.058"/><path d="m316.79 587.69c-.171.204-.407-.157-.412-.158-.0001.025-.017.052-.018.079 0 .028 0 .057.014.083.03.061.082.116.143.158.03.02.067.034.103.042.035.007.076.015.108 0 .025-.012.037-.039.049-.062.014-.026.026-.054.027-.083 0-.02-.005-.04-.014-.058"/><g fill="#b1dde7"><path d="m316.66 587.88c-.049.035.007.111.015.165.002.019.002.043.015.059.021.029.053.052.091.059.018.002.043.006.058-.008.026-.017.038-.053.041-.08.003-.029-.001-.057-.027-.079-.017-.025-.043-.044-.068-.061-.037-.024-.084-.083-.125-.055"/><path d="m316.9 588.46c-.013.072.094.092.144.132.017.016.036.036.06.039.041.009.087.002.125-.023.017-.014.041-.03.044-.055.008-.036-.001-.078-.029-.104-.02-.028-.054-.042-.087-.048-.034-.009-.072-.002-.107.002-.051.009-.139-.002-.151.055z"/></g><path d="m315.58 588.31c-.058-.033-.137.028-.196.059-.032.017-.059.04-.081.066-.025.03-.053.065-.054.102 0 .047.028.094.062.132.035.039.083.076.139.089.071.016.149-.006.22-.023.183-.077.32-.013.496.004.071.017.148.039.22.023.056-.013.104-.05.139-.089.034-.038.063-.085.062-.132 0-.037-.029-.072-.054-.102-.022-.026-.049-.049-.081-.066-.059-.031-.149-.103-.196-.059-.263.24-.486.103-.673-.004" fill="#faa"/><path d="m314.8 587.96c.062-.071.129-.054.19-.076.023-.009.05-.022.064-.017.027.005.041.027.034.063-.005.019-.001.042-.032.066-.031.037-.078.069-.111.088-.035.019-.064.021-.084.015-.024-.003-.034-.022-.047-.037-.014-.025-.064-.045-.016-.102z" fill="#b1dde7"/></g></g><g transform="matrix(2.02817 0 0 2.37051-512.31-1285.36)"><use fill="#ffe680" xlink:href="#0"/><use fill="#fff" transform="matrix(-.0039.19673-.4567-.00168 181.55 463.58)" xlink:href="#4"/><path d="m316.75 587.75c-.027.034.035.068.055.1.007.012.013.027.027.034.023.014.054.02.084.016.014-.003.034-.006.042-.018.015-.017.014-.042.009-.06-.005-.019-.023-.034-.041-.044-.019-.012-.044-.017-.067-.024-.034-.007-.086-.032-.108-.006z" fill="#b1dde7" fill-rule="evenodd"/><path d="m310.42 597.15l-.433.176v-.097l.303-.12-.303-.12v-.097l.433.176v.082" transform="matrix(1.35535 0 0 1.19278-105.13-124.59)" id="I"/><use transform="matrix(-1 0 0 1 631.65-.016)" xlink:href="#I"/></g><g transform="matrix(2.02817 0 0 2.37051-503.31-1284.99)"><use fill="#ffe680" xlink:href="#0"/><g transform="matrix(.02696 0 0 .01674 311.85 580.8)"><g transform="translate(.138-4.834)"><path d="m130.49 394.9c12.06 0 23.909.7 23.909 6.6 0 5.6 2.33 43.1-24.21 43.1-26.543 0-26.442-24.1-26.442-42.3-.101-6.6 14.69-7.4 26.746-7.4" fill="#5aa02c" id="M"/><path d="m104.3 402.3c0-6.4 13.6-7.3 25.2-7.4-.4 0-.9 0-1.3 0-11.9 0-26.4.8-26.4 7.4 0 18.2-.2 42.3 26.1 42.3.4 0 .8 0 1.2 0-24.9-.9-24.8-24.4-24.8-42.3" fill="#5aa02c" id="N"/><path d="m131.6 400.5c8.8 0 17.4.5 17.4 4.9 0 4.2 1.7 31.8-17.7 31.8-19.4 0-19.2-17.8-19.2-31.3-.1-4.8 10.7-5.4 19.5-5.4" fill="#1a1a1a" id="O"/></g><path d="m73.991 409.07l28.509 5.326.2-13.9-24.13-.273z" transform="matrix(.57705 0 0 1 43.44 0)" fill="#5aa02c"/><path d="m211.85 403.64l-1.986 15.427 1.32-1.609-.126-13.9z" fill="#500"/><g transform="translate(59.35-3.614)"><use xlink:href="#M"/><use xlink:href="#N"/><use xlink:href="#O"/></g><g fill="#5aa02c"><rect width="11.402" height="10.84" x="150.75" y="403.8" rx=".412"/><path d="m160.92 404.68l2.832-.363.34 10.541-3.399-1.09z" fill-rule="evenodd"/></g><path d="m184.96 463.34l-11.474-.418-10.703.007-10.703.007-11.32-1.48" fill="none" fill-rule="evenodd" stroke="#000" stroke-width="5"/></g></g><g transform="matrix(2.02817 0 0 2.37051-494.31-1285.18)"><use fill="#ffe680" xlink:href="#0"/><use xlink:href="#2"/><use xlink:href="#1"/><g fill="none" fill-rule="evenodd" stroke="#000" stroke-width=".137"><path d="m314.82 587.11l.624-.182"/><path d="m316.39 587.22l.547.226"/><path d="m315.56 588.84h.657"/></g></g><text transform="scale(1.01219.98796)" y="94.09" x="115.95" font-family="overpass" fill="#241c1c" word-spacing="0" line-height="125%" letter-spacing="0" font-size="7.975"><tspan y="94.09" x="115.95"/></text><g fill="#fff"><use xlink:href="#6"/></g><g transform="matrix(.14107 0 0 .15682 104.87 23.446)" font-family="sans-serif" word-spacing="0" line-height="125%" letter-spacing="0"><text xml:space="preserve" x="163.65" y="468.29" font-size="70" transform="translate(143.81-23.15)" fill="#241f1c"><tspan x="163.65" y="468.29" font-family="overpass" letter-spacing="-3" font-size="45">[   ]lis</tspan></text><text x="300.64" y="465.1" transform="scale(1.05552.9474)" fill="#2ca05a" font-size="47.543"><tspan x="300.64" y="465.1" font-family="overpass" letter-spacing="-2.038" font-size="30.563">au</tspan></text></g><g transform="matrix(.48468 0 0 .46605 71.41 48.18)" fill="#241f1c"><use xlink:href="#7"/><use xlink:href="#8"/><use xlink:href="#9"/><use xlink:href="#A"/><use xlink:href="#B"/><use xlink:href="#C"/><use xlink:href="#D"/></g><g transform="matrix(2.02817 0 0 2.37051-469-1294.78)"><use fill="#ffe680" xlink:href="#0"/><use xlink:href="#2"/><use xlink:href="#1"/><use xlink:href="#G"/><use xlink:href="#3"/><use xlink:href="#H"/></g><g transform="matrix(2.02817 0 0 2.37051-485.69-1285.18)"><use fill="#ffe680" xlink:href="#0"/><use fill="#fff" transform="matrix(-.0039.19673-.4567-.00168 181.55 463.58)" xlink:href="#4"/><g transform="translate(-.034.006)"><use xlink:href="#2"/><use xlink:href="#1"/><path d="m314.94 587.2l.6.201" fill="none" fill-rule="evenodd" stroke="#000" stroke-width=".114" id="J"/><path d="m316.2 587.42l.559-.274" fill="none" fill-rule="evenodd" stroke="#000" stroke-width=".114" id="K"/></g></g><g transform="matrix(2.02817 0 0 2.37051-477.34-1285.34)"><use fill="#ffad80" xlink:href="#0"/><g transform="translate(-.034.006)"><use xlink:href="#2"/><use xlink:href="#1"/><use xlink:href="#J"/><use xlink:href="#K"/></g><path d="m315.05 588.71c.259-.463 1.13-.652 1.599.07" fill="none" fill-rule="evenodd" stroke="#000" stroke-width=".137"/></g><g transform="matrix(2.02817 0 0 2.37051-468.47-1285.49)"><use fill="#ffe680" xlink:href="#0"/><path d="m314.97 587.66c.038-.02.087-.037.15-.045.04-.005.09 0 .136.002.044.002.089.004.133.012.033.006.067.015.09.028.03.016.041.034.052.051.011.018.017.036.014.053-.004.018-.015.042-.038.048-.055.015-.099-.044-.154-.053-.056-.009-.117-.008-.175 0-.051.008-.097.052-.147.045-.031-.004-.052-.033-.067-.051-.017-.019-.031-.04-.027-.058.002-.012.016-.023.033-.033" fill-rule="evenodd"/><use xlink:href="#F"/><g fill="none"><path d="m315.09 588.28c.259.463 1.13.652 1.599-.07" fill-rule="evenodd" stroke="#000" stroke-width=".137"/><ellipse ry=".168" rx="1.614" cy="586.77" cx="315.94" stroke="#90e5e7" stroke-width=".098"/></g></g><g transform="matrix(2.02817 0 0 2.37051-521.68-1275.78)"><use fill="#ffe680" xlink:href="#0"/><g><path d="m314.88 587.68c.035-.06.082-.119.15-.159.042-.025.098-.034.15-.045.049-.011.099-.023.15-.019.038.003.079.012.108.032.038.025.057.066.075.102.019.039.032.08.033.121.002.043.002.09-.025.127-.028.04-.083.065-.133.089-.059.029-.123.053-.191.064-.065.011-.14.023-.2 0-.046-.018-.068-.06-.091-.096-.026-.04-.048-.083-.05-.127-.002-.03.009-.062.025-.089" fill="#fff" fill-rule="evenodd" id="L"/><use xlink:href="#2"/></g><g transform="matrix(-1 0 0 1 631.74.0001)"><use xlink:href="#L"/><use xlink:href="#2"/></g><path d="m-675.73 282.44c0 .094-.016.18-.049.256-.032.077-.076.136-.13.178-.038.029-.08.05-.127.063-.046.013-.108.019-.184.019h-.21l-.004-1.037h.208c.081 0 .145.008.193.023.048.015.089.035.122.06.057.044.101.103.133.177.032.074.048.161.048.261m-.115-.002c-.526-1.102-.263-.551 0 0" transform="matrix(.01609-.86411 1.15697.01577 0-.078)" fill="#ff8080"/><g fill="none" fill-rule="evenodd" stroke="#000" stroke-width=".137"><path d="m314.7 587.35l.523-.347"/><path d="m317.06 587.37l-.523-.347"/></g></g><path transform="matrix(2.77542.69137-.68347 2.7437 124.62 114.4)" d="m2.285.892l.288.758-.798-.146-.632.508-.107-.804-.678-.444.731-.35.213-.783.559.587.81-.039" fill="#ffe680"/><path d="m137.62 120.99c-7.566-3.712-2.074-8.586.02-5.478 2.094-3.108 7.547 1.767-.02 5.478" fill="#ff2a2a" stroke-width=".334"/></svg>