<svg xmlns="http://www.w3.org/2000/svg" width="122.18" viewBox="0 0 122.18495 57.985138"><g transform="matrix(2.02817 0 0 2.37051-580.18-1364.84)"><path d="m292.11 635.86l-.184-1.865v-1.39h.652v1.39l-.181 1.865h-.288m.144 1.286q-.101 0-.187-.037-.086-.037-.15-.098-.064-.064-.101-.147-.034-.083-.034-.178 0-.095.034-.178.037-.086.101-.147.064-.064.15-.101.086-.037.187-.037.098 0 .184.037.089.037.153.101.064.061.101.147.037.083.037.178 0 .095-.037.178-.037.083-.101.147-.064.061-.153.098-.086.037-.184.037" fill="#fff" transform="matrix(.53823 0 0 .39857 158.52 335.42)"/><g transform="matrix(.73758 0 0 .63796 55.963 312.51)" stroke="none"><g fill="#ccc" transform="translate(143.81-23.15)"><path d="m168.16 474.13v-37.881h10.437v4.417h-5.757v29.07h5.757v4.395h-10.437"/><path d="m211.79 474.13h-10.437v-4.395h5.757v-29.07h-5.757v-4.417h10.437v37.881"/><path d="m216.94 468.29v-30.28l4.68-2.219v32.498h-4.68"/><path d="m225.63 468.29v-23.01h4.68v23.01h-4.68m2.329-26.587q-.593 0-1.121-.22-.505-.22-.901-.593-.374-.396-.593-.901-.22-.527-.22-1.121 0-.593.22-1.099.22-.527.593-.901.396-.396.901-.615.527-.22 1.121-.22.593 0 1.099.22.527.22.901.615.396.374.615.901.22.505.22 1.099 0 .593-.22 1.121-.22.505-.615.901-.374.374-.901.593-.505.22-1.099.22"/><path d="m241.2 468.84q-1.362 0-2.659-.264-1.296-.264-2.439-.747-1.121-.483-2.043-1.165-.923-.703-1.538-1.56l3.318-2.834q.352.33.857.747.505.396 1.165.747.659.352 1.472.593.813.242 1.78.242.879 0 1.626-.132.747-.132 1.274-.417.549-.286.835-.747.308-.483.308-1.187 0-.813-.571-1.384-.549-.593-1.45-1.055-.901-.483-2.043-.901-1.143-.439-2.307-.923-1.077-.461-2.109-1.01-1.033-.549-1.846-1.318-.791-.769-1.296-1.824-.483-1.077-.483-2.593 0-1.538.615-2.725.637-1.187 1.714-1.978 1.099-.813 2.549-1.23 1.472-.417 3.142-.417 1.472 0 2.703.286 1.252.286 2.241.769 1.01.483 1.78 1.121.769.615 1.34 1.296l-3.384 2.681q-.308-.308-.747-.637-.417-.352-.989-.637-.571-.286-1.296-.461-.725-.198-1.648-.198-1.494 0-2.373.549-.857.549-.857 1.582 0 .659.461 1.165.461.483 1.252.901.791.417 1.802.813 1.033.374 2.153.813 1.187.461 2.329 1.033 1.143.571 2.02 1.406.901.835 1.428 2.02.549 1.187.549 2.856 0 1.648-.615 2.922-.615 1.252-1.758 2.109-1.121.835-2.725 1.252-1.582.439-3.538.439"/></g><g transform="scale(1.05552.9474)" fill="#b3b3b3"><path d="m314.91 465.1h-3.044v-1.343q-.298.313-.716.627-.418.298-.955.552-.522.239-1.179.388-.657.149-1.433.149-1.194 0-2.209-.328-1.015-.328-1.761-.985-.746-.672-1.179-1.642-.418-.985-.418-2.283 0-1.343.507-2.313.507-.985 1.343-1.612.836-.642 1.91-.94 1.089-.298 2.239-.298 1.074 0 2.059.239 1 .224 1.791.686v-.866q0-.88-.209-1.492-.194-.612-.612-.985-.403-.388-1.03-.552-.627-.179-1.492-.179-1.462 0-2.537.388-1.06.388-1.925 1.03l-.94-2.612q.478-.328 1.089-.612.612-.298 1.343-.522.731-.224 1.582-.343.851-.134 1.821-.134.657 0 1.358.075.701.075 1.358.298.672.209 1.254.612.597.403 1.03 1.06.448.642.701 1.582.254.94.254 2.239v10.118m-6.745-2.447q1.209 0 2.134-.492.94-.492 1.567-1.179v-2.388q-.657-.343-1.537-.552-.88-.209-1.806-.209-.716 0-1.343.134-.627.134-1.104.433-.463.284-.731.746-.269.448-.269 1.089 0 1.119.776 1.776.791.642 2.313.642"/><path d="m326.71 465.1v-1.492q-.761.97-1.761 1.418-.985.448-2.283.448-1.224 0-2.253-.358-1.03-.343-1.791-1.134-.746-.806-1.164-2.074-.418-1.268-.418-3.104v-9.327h3.179v9.327q0 .985.239 1.686.239.686.657 1.134.418.448.985.657.567.194 1.239.194.716 0 1.328-.179.612-.194 1.06-.612.463-.433.716-1.119.269-.686.269-1.701v-9.387h3.179v15.625h-3.179"/></g></g></g></svg>