<?xml version="1.0" encoding="UTF-8" standalone="no"?>
<!-- Created with Inkscape (http://www.inkscape.org/) -->

<svg
   xmlns:dc="http://purl.org/dc/elements/1.1/"
   xmlns:cc="http://creativecommons.org/ns#"
   xmlns:rdf="http://www.w3.org/1999/02/22-rdf-syntax-ns#"
   xmlns:svg="http://www.w3.org/2000/svg"
   xmlns="http://www.w3.org/2000/svg"
   xmlns:sodipodi="http://sodipodi.sourceforge.net/DTD/sodipodi-0.dtd"
   xmlns:inkscape="http://www.inkscape.org/namespaces/inkscape"
   width="2.2192864mm"
   height="1.9784118mm"
   viewBox="0 0 7.8636134 7.0101205"
   id="svg5218"
   version="1.1"
   inkscape:version="0.91 r13725"
   sodipodi:docname="accept.svg">
  <defs
     id="defs5220" />
  <sodipodi:namedview
     id="base"
     pagecolor="#ffffff"
     bordercolor="#666666"
     borderopacity="1.0"
     inkscape:pageopacity="0.0"
     inkscape:pageshadow="2"
     inkscape:zoom="63.356768"
     inkscape:cx="2.9061133"
     inkscape:cy="4.1980689"
     inkscape:document-units="px"
     inkscape:current-layer="g5229"
     showgrid="false"
     fit-margin-top="0"
     fit-margin-left="0"
     fit-margin-right="0"
     fit-margin-bottom="0"
     inkscape:window-width="1366"
     inkscape:window-height="715"
     inkscape:window-x="-4"
     inkscape:window-y="-4"
     inkscape:window-maximized="1" />
  <metadata
     id="metadata5223">
    <rdf:RDF>
      <cc:Work
         rdf:about="">
        <dc:format>image/svg+xml</dc:format>
        <dc:type
           rdf:resource="http://purl.org/dc/dcmitype/StillImage" />
        <dc:title></dc:title>
      </cc:Work>
    </rdf:RDF>
  </metadata>
  <g
     inkscape:label="Laag 1"
     inkscape:groupmode="layer"
     id="layer1"
     transform="translate(-41.782479,-640.28572)">
    <g
       id="g6338"
       inkscape:export-filename="C:\xampp\htdocs\aulis\Aulis\library\icons\mail.png"
       inkscape:export-xdpi="562.96002"
       inkscape:export-ydpi="562.96002"
       transform="matrix(2.0281712,0,0,2.3705107,-594.82975,-750.05401)">
      <g
         transform="matrix(0.53823159,0,0,0.39857351,158.52229,335.41953)"
         style="font-style:normal;font-variant:normal;font-weight:normal;font-stretch:normal;font-size:6.27089357px;line-height:125%;font-family:Overpass;-inkscape-font-specification:Overpass;letter-spacing:0.66129428px;word-spacing:0px;fill:#ffffff;fill-opacity:1;stroke:none;stroke-width:1px;stroke-linecap:butt;stroke-linejoin:miter;stroke-opacity:1"
         id="text6499">
        <path
           d="m 292.11013,635.85687 -0.18371,-1.86473 0,-1.39013 0.65219,0 0,1.39013 -0.18065,1.86473 -0.28783,0 z m 0.14392,1.28602 q -0.10105,0 -0.18678,-0.0367 -0.0857,-0.0367 -0.15004,-0.098 -0.0643,-0.0643 -0.10104,-0.14698 -0.0337,-0.0827 -0.0337,-0.17759 0,-0.0949 0.0337,-0.17759 0.0367,-0.0857 0.10104,-0.14698 0.0643,-0.0643 0.15004,-0.10104 0.0857,-0.0367 0.18678,-0.0367 0.098,0 0.18371,0.0367 0.0888,0.0367 0.1531,0.10104 0.0643,0.0612 0.10105,0.14698 0.0367,0.0827 0.0367,0.17759 0,0.0949 -0.0367,0.17759 -0.0367,0.0827 -0.10105,0.14698 -0.0643,0.0612 -0.1531,0.098 -0.0857,0.0367 -0.18371,0.0367 z"
           id="path6504"
           inkscape:connector-curvature="0"
           style="fill:#ffffff" />
      </g>
      <g
         id="g5225"
         transform="matrix(0.8636478,0,0,0.6704897,204.06054,146.25051)"
         style="stroke:#000000;stroke-opacity:1">
        <g
           id="g5229"
           style="stroke:#000000;stroke-opacity:1">
          <g
             id="g5233"
             inkscape:export-filename="C:\xampp\htdocs\aulis\Aulis\library\icons\accept_green.png"
             inkscape:export-xdpi="651.63635"
             inkscape:export-ydpi="651.63635"
             style="stroke:#000000;stroke-opacity:1">
            <rect
               y="656.86182"
               x="127.44595"
               height="4"
               width="4"
               id="rect5208"
               style="opacity:0;fill:#c83737;fill-opacity:1;stroke:#000000;stroke-width:0.40000001;stroke-miterlimit:4;stroke-dasharray:none;stroke-opacity:1" />
            <path
               inkscape:connector-curvature="0"
               id="path5210"
               d="m 127.5838,658.98802 1.39432,1.00026 2.15725,-2.54356"
               style="fill:none;fill-rule:evenodd;stroke:#000000;stroke-width:1.24088955px;stroke-linecap:butt;stroke-linejoin:miter;stroke-opacity:1" />
          </g>
        </g>
      </g>
    </g>
  </g>
</svg>
