<?xml version="1.0" encoding="UTF-8" standalone="no"?>
<svg
   xmlns:dc="http://purl.org/dc/elements/1.1/"
   xmlns:cc="http://creativecommons.org/ns#"
   xmlns:rdf="http://www.w3.org/1999/02/22-rdf-syntax-ns#"
   xmlns:svg="http://www.w3.org/2000/svg"
   xmlns="http://www.w3.org/2000/svg"
   xmlns:sodipodi="http://sodipodi.sourceforge.net/DTD/sodipodi-0.dtd"
   xmlns:inkscape="http://www.inkscape.org/namespaces/inkscape"
   enable-background="new 0 0 512 512"
   id="Layer_1"
   version="1.1"
   viewBox="0 0 512 512"
   xml:space="preserve"
   inkscape:version="0.91 r13725"
   sodipodi:docname="campfire.svg"><metadata
     id="metadata27"><rdf:RDF><cc:Work
         rdf:about=""><dc:format>image/svg+xml</dc:format><dc:type
           rdf:resource="http://purl.org/dc/dcmitype/StillImage" /><dc:title></dc:title></cc:Work></rdf:RDF></metadata><defs
     id="defs25" /><sodipodi:namedview
     pagecolor="#ffffff"
     bordercolor="#666666"
     borderopacity="1"
     objecttolerance="10"
     gridtolerance="10"
     guidetolerance="10"
     inkscape:pageopacity="0"
     inkscape:pageshadow="2"
     inkscape:window-width="1366"
     inkscape:window-height="715"
     id="namedview23"
     showgrid="false"
     inkscape:zoom="0.921875"
     inkscape:cx="242.44068"
     inkscape:cy="256"
     inkscape:window-x="-4"
     inkscape:window-y="-4"
     inkscape:window-maximized="1"
     inkscape:current-layer="g3" /><g
     id="g3"><g
       id="g4176"
       transform="matrix(2.0837984,0,0,2.0969622,-303.92951,-324.3326)"><path
         inkscape:connector-curvature="0"
         id="path4159"
         d="m 185.44791,317.01226 170.34871,60.12815"
         style="fill:none;fill-rule:evenodd;stroke:#000000;stroke-width:27.89999962;stroke-linecap:butt;stroke-linejoin:miter;stroke-miterlimit:4;stroke-dasharray:none;stroke-opacity:1"
         sodipodi:nodetypes="cc" /><path
         inkscape:connector-curvature="0"
         style="fill:#000000"
         id="path9"
         d="m 304.85461,298.56515 c -4.67931,4.83573 -10.42816,9.54905 -17.31341,14.01752 0.53477,-1.16303 1.00271,-2.26485 1.40379,-3.48908 1.47064,-3.91756 2.60704,-8.01875 3.34235,-12.18116 0.0668,-0.4897 0.20055,-0.97939 0.26739,-1.46908 1.1364,-7.03937 1.2701,-14.26237 0.46793,-21.36295 -0.40108,-3.67271 -1.0027,-7.40663 -1.93857,-10.95692 -3.81028,-15.67023 -11.89878,-29.93259 -23.19594,-38.99195 1.20325,6.1824 0.33423,20.01628 -4.87984,32.0138 -1.53748,3.48908 -3.4092,6.85573 -5.68201,9.85512 0.46793,-2.75454 0.60162,-5.32544 0.53477,-7.59028 -0.33423,-9.05935 -4.01082,-14.56842 -4.01082,-14.56842 0,0 -1.87172,12.24237 -9.2249,24.60716 -0.20054,0.30607 -0.40108,0.67334 -0.60163,1.04061 -4.4119,7.52905 -7.68742,15.48659 -6.61786,26.3211 0,0.18363 0,0.36727 0.0669,0.5509 0.53478,4.83574 1.93857,10.16117 4.54561,16.34357 -3.34236,-2.14241 -6.35048,-4.28483 -9.09121,-6.42725 -1.73802,-1.34666 -3.40921,-2.75453 -4.94669,-4.10119 -0.86901,-0.79576 -1.73802,-1.59151 -2.60704,-2.38726 -14.03789,-13.65025 -17.44709,-27.72898 -14.30528,-45.4192 3.07497,-17.20053 14.50583,-31.21805 15.44168,-48.35737 4.34507,9.05936 4.813,15.54782 5.34778,25.03565 13.77051,-19.34294 28.00894,-45.29677 24.93397,-68.98576 0,0 26.07038,9.42663 36.56538,55.39673 6.21678,-6.36603 5.61515,-19.46537 2.54019,-27.23928 8.35589,6.79452 52.40815,63.53791 8.95752,108.34499 z" /><path
         inkscape:connector-curvature="0"
         id="path4159-0"
         d="M 188.86427,376.55222 351.07739,316.86683"
         style="fill:none;fill-rule:evenodd;stroke:#000000;stroke-width:27.89999962;stroke-linecap:butt;stroke-linejoin:miter;stroke-miterlimit:4;stroke-dasharray:none;stroke-opacity:1"
         sodipodi:nodetypes="cc" /></g></g></svg>