<svg xmlns="http://www.w3.org/2000/svg" enable-background="new 0 0 512 512" viewBox="0 0 512 512"><g transform="matrix(2.0838 0 0 2.09696-303.93-324.33)"><path d="m185.45 317.01l170.35 60.13" fill="none" fill-rule="evenodd" stroke="#000" stroke-width="27.9"/><path d="m304.85 298.57c-4.679 4.836-10.428 9.549-17.313 14.02.535-1.163 1-2.265 1.404-3.489 1.471-3.918 2.607-8.02 3.342-12.181.067-.49.201-.979.267-1.469 1.136-7.04 1.27-14.262.468-21.363-.401-3.673-1-7.407-1.939-10.957-3.81-15.67-11.899-29.933-23.2-38.992 1.203 6.182.334 20.02-4.88 32.01-1.537 3.489-3.409 6.856-5.682 9.855.468-2.755.602-5.325.535-7.59-.334-9.06-4.01-14.568-4.01-14.568 0 0-1.872 12.242-9.225 24.607-.201.306-.401.673-.602 1.041-4.412 7.529-7.687 15.487-6.618 26.321 0 .184 0 .367.067.551.535 4.836 1.939 10.161 4.546 16.344-3.342-2.142-6.35-4.285-9.09-6.427-1.738-1.347-3.409-2.755-4.947-4.101-.869-.796-1.738-1.592-2.607-2.387-14.04-13.65-17.447-27.729-14.305-45.42 3.075-17.201 14.506-31.22 15.442-48.36 4.345 9.06 4.813 15.548 5.348 25.04 13.771-19.343 28.01-45.3 24.934-68.986 0 0 26.07 9.427 36.565 55.4 6.217-6.366 5.615-19.465 2.54-27.24 8.356 6.795 52.41 63.54 8.958 108.34"/><path d="m188.86 376.55l162.21-59.685" fill="none" fill-rule="evenodd" stroke="#000" stroke-width="27.9"/></g></svg>