<svg xmlns="http://www.w3.org/2000/svg" viewBox="0 0 7.8636134 7.0101205"><path d="M2.069396.667636A3.390926 3.368107 62.30597 0 0 1.00807 1.814053 .711774 .668787 62.30597 0 1 1.647951 2.205283 .711774 .668787 62.30597 0 1 1.386576 3.146336 .711774 .668787 62.30597 0 1 .604355 3.01272 3.390926 3.368107 62.30597 0 0 .658398 4.255632 .711774 .668787 62.30597 0 1 .887068 4.049802 .711774 .668787 62.30597 0 1 1.810037 4.369218 .711774 .668787 62.30597 0 1 1.548662 5.310272 .711774 .668787 62.30597 0 1 1.142161 5.372347 3.390926 3.368107 62.30597 0 0 2.292593 6.437204 .711774 .668787 62.30597 0 1 2.616118 5.662237 .711774 .668787 62.30597 0 1 3.539087 5.981653 .711774 .668787 62.30597 0 1 3.403977 6.833852 3.390926 3.368107 62.30597 0 0 5.34117 6.580279 .711774 .668787 62.30597 0 1 4.990187 6.249669 .711774 .668787 62.30597 0 1 5.251562 5.308616 .711774 .668787 62.30597 0 1 6.174531 5.628032 .711774 .668787 62.30597 0 1 6.260146 5.960188 3.390926 3.368107 62.30597 0 0 7.07483 4.751296 .711774 .668787 62.30597 0 1 6.333458 4.370432 .711774 .668787 62.30597 0 1 6.594833 3.429378 .711774 .668787 62.30597 0 1 7.306701 3.49831 3.390926 3.368107 62.30597 0 0 7.115435 2.388391 .711774 .668787 62.30597 0 1 6.939601 2.525843 .711774 .668787 62.30597 0 1 6.01663 2.206426 .711774 .668787 62.30597 0 1 6.278007 1.265373 .711774 .668787 62.30597 0 1 6.404016 1.21504 3.390926 3.368107 62.30597 0 0 5.670616 .610963 .711774 .668787 62.30597 0 1 5.326073 1.150835 .711774 .668787 62.30597 0 1 4.403104 .831419 .711774 .668787 62.30597 0 1 4.401662 .152504 3.390926 3.368107 62.30597 0 0 3.150224 .204202 .711774 .668787 62.30597 0 1 3.338468 .432813 .711774 .668787 62.30597 0 1 3.077093 1.373867 .711774 .668787 62.30597 0 1 2.154124 1.05445 .711774 .668787 62.30597 0 1 2.069396 .667636M3.18519 2.082606A1.607491 1.603477 62.30597 0 1 5.352057 2.76073 1.607491 1.603477 62.30597 0 1 4.679352 4.929285 1.607491 1.603477 62.30597 0 1 2.512486 4.251161 1.607491 1.603477 62.30597 0 1 3.18519 2.082606"/></svg>