<?xml version="1.0" encoding="UTF-8" standalone="no"?>
<!-- Created with Inkscape (http://www.inkscape.org/) -->

<svg
   xmlns:dc="http://purl.org/dc/elements/1.1/"
   xmlns:cc="http://creativecommons.org/ns#"
   xmlns:rdf="http://www.w3.org/1999/02/22-rdf-syntax-ns#"
   xmlns:svg="http://www.w3.org/2000/svg"
   xmlns="http://www.w3.org/2000/svg"
   xmlns:sodipodi="http://sodipodi.sourceforge.net/DTD/sodipodi-0.dtd"
   xmlns:inkscape="http://www.inkscape.org/namespaces/inkscape"
   width="2.2192864mm"
   height="1.9784118mm"
   viewBox="0 0 7.8636134 7.0101205"
   id="svg5218"
   version="1.1"
   inkscape:version="0.91 r13725"
   sodipodi:docname="gear.svg">
  <defs
     id="defs5220" />
  <sodipodi:namedview
     id="base"
     pagecolor="#ffffff"
     bordercolor="#666666"
     borderopacity="1.0"
     inkscape:pageopacity="0.0"
     inkscape:pageshadow="2"
     inkscape:zoom="22.627417"
     inkscape:cx="3.5019673"
     inkscape:cy="2.2434851"
     inkscape:document-units="px"
     inkscape:current-layer="svg5218"
     showgrid="false"
     fit-margin-top="0"
     fit-margin-left="0"
     fit-margin-right="0"
     fit-margin-bottom="0"
     inkscape:window-width="1366"
     inkscape:window-height="715"
     inkscape:window-x="-4"
     inkscape:window-y="-4"
     inkscape:window-maximized="1" />
  <metadata
     id="metadata5223">
    <rdf:RDF>
      <cc:Work
         rdf:about="">
        <dc:format>image/svg+xml</dc:format>
        <dc:type
           rdf:resource="http://purl.org/dc/dcmitype/StillImage" />
        <dc:title></dc:title>
      </cc:Work>
    </rdf:RDF>
  </metadata>
  <path
     style="opacity:1;fill:#000000;fill-opacity:1;stroke:none;stroke-width:0.1;stroke-miterlimit:4;stroke-dasharray:none;stroke-opacity:0.94117647"
     d="M 2.0693957,0.66763624 A 3.3909256,3.3681069 62.305968 0 0 1.0080699,1.814053 0.71177447,0.66878678 62.305968 0 1 1.6479512,2.2052829 0.71177447,0.66878678 62.305968 0 1 1.3865764,3.1463365 0.71177447,0.66878678 62.305968 0 1 0.60435529,3.0127194 3.3909256,3.3681069 62.305968 0 0 0.65839784,4.2556319 0.71177447,0.66878678 62.305968 0 1 0.8870682,4.049802 0.71177447,0.66878678 62.305968 0 1 1.8100372,4.3692185 0.71177447,0.66878678 62.305968 0 1 1.5486624,5.3102721 0.71177447,0.66878678 62.305968 0 1 1.1421611,5.3723471 3.3909256,3.3681069 62.305968 0 0 2.2925929,6.4372038 0.71177447,0.66878678 62.305968 0 1 2.6161176,5.6622368 0.71177447,0.66878678 62.305968 0 1 3.5390866,5.9816534 0.71177447,0.66878678 62.305968 0 1 3.4039771,6.8338525 3.3909256,3.3681069 62.305968 0 0 5.3411703,6.5802793 0.71177447,0.66878678 62.305968 0 1 4.9901868,6.2496692 0.71177447,0.66878678 62.305968 0 1 5.2515617,5.3086157 0.71177447,0.66878678 62.305968 0 1 6.1745306,5.6280322 0.71177447,0.66878678 62.305968 0 1 6.2601457,5.960188 3.3909256,3.3681069 62.305968 0 0 7.0748258,4.7512965 0.71177447,0.66878678 62.305968 0 1 6.3334581,4.3704321 0.71177447,0.66878678 62.305968 0 1 6.5948329,3.4293784 0.71177447,0.66878678 62.305968 0 1 7.3067013,3.4983102 3.3909256,3.3681069 62.305968 0 0 7.1154352,2.3883906 0.71177447,0.66878678 62.305968 0 1 6.9396014,2.5258429 0.71177447,0.66878678 62.305968 0 1 6.0166324,2.2064263 0.71177447,0.66878678 62.305968 0 1 6.2780073,1.2653728 0.71177447,0.66878678 62.305968 0 1 6.4040163,1.2150397 3.3909256,3.3681069 62.305968 0 0 5.6706164,0.61096277 0.71177447,0.66878678 62.305968 0 1 5.3260725,1.1508355 0.71177447,0.66878678 62.305968 0 1 4.4031035,0.83141899 0.71177447,0.66878678 62.305968 0 1 4.4016621,0.15250444 3.3909256,3.3681069 62.305968 0 0 3.1502237,0.20420242 0.71177447,0.66878678 62.305968 0 1 3.338468,0.43281328 0.71177447,0.66878678 62.305968 0 1 3.0770931,1.3738669 0.71177447,0.66878678 62.305968 0 1 2.1541241,1.0544504 0.71177447,0.66878678 62.305968 0 1 2.0693957,0.66763624 Z M 3.1851902,2.0826058 A 1.6074907,1.6034767 62.305968 0 1 5.3520569,2.76073 1.6074907,1.6034767 62.305968 0 1 4.6793522,4.9292853 1.6074907,1.6034767 62.305968 0 1 2.5124856,4.251161 1.6074907,1.6034767 62.305968 0 1 3.1851902,2.0826058 Z"
     id="path7264"
     inkscape:connector-curvature="0" />
</svg>
