<svg xmlns="http://www.w3.org/2000/svg" viewBox="0 0 32 28"><g stroke="#000" stroke-width="1.29"><path d="m45.905 31.715q.177 0 .299.137.122.137.122.334 0 .193-.126.334-.122.137-.295.137-.173 0-.299-.137-.122-.141-.122-.334 0-.198.122-.334.122-.137.299-.137zm.055 1.869l-.833 3.301q-.084.334-.084.4 0 .075.038.122.042.047.097.047.063 0 .151-.075.24-.212.484-.603l.147.108q-.286.49-.673.824-.286.25-.547.25-.173 0-.282-.113-.109-.118-.109-.292 0-.174.105-.579l.547-2.109q.135-.518.135-.65 0-.104-.067-.17-.063-.066-.177-.066-.093 0-.383.052v-.184l1.452-.264z" stroke-width=".392" transform="matrix(4.41379 0 0 3.58789-184.11-110.99)"/></g></svg>