<svg xmlns="http://www.w3.org/2000/svg" viewBox="0 0 32 28"><g transform="matrix(.05558 0 0 .05995 3.767.185)"><g transform="matrix(1.15064 0 0 1.2031-16.89-95.57)"><path transform="matrix(17.99174 0 0 16.68147-67.781-3.088)" d="m5.242 9.977c-.196-.067-.407-.104-.625-.104-1.122 0-2.031.955-2.031 2.133 0 1.068.75 1.951 1.727 2.105l8.643 10.459c-.54.161-2.161.778-2.492 1.055-3.194.359-4.295.864-4.295 1.906h17.18c0-1.042-.817-1.44-4.01-1.799-.57-.475-2.955-1.307-4.049-1.391l-8.959-11.193c.201-.331.318-.721.318-1.143 0-.075-.005-.151-.012-.225l13.898-3.626-.179-1.453-15.12 3.275m-.662 1.145c.448 0 .811.381.811.85 0 .468-.363.847-.811.848-.447 0-.81-.379-.811-.848 0-.469.363-.849.811-.85z"/><path d="m278.1 186.74l3.644 14.853c-25.764 21.73-38.785 55.46-30.727 88.5 0 0 15.432-15.343 24.971-20.991 11.254-6.664 24.366-10.553 37.09-14.641 10.11-3.247 20.651-5.314 31.03-7.802 9.944-2.384 19.877-4.825 29.928-6.825 11.371-2.263 22.701-5.237 34.34-5.848 5.206-.273 10.501.042 15.606.991 2.161.401 4.644.616 6.241 1.968 1.87 1.582 2.936 6.364 2.936 6.364-8.503-34.857-38.05-59.11-73.19-64.2l-13.07-53.56-24.627 6.311-10.117-46.06-32 8.22 10.117 46.06-22.15 5.71.934 3.821"/></g><ellipse cx="373.24" cy="322.79" rx="107.22" ry="22.962" transform="matrix(.96481-.26296.05416.99853 0 0)" fill="#fff" stroke="#242424" fill-opacity="0" stroke-width="5.333"/></g></svg>