<?xml version="1.0" encoding="UTF-8" standalone="no"?>
<!-- Created with Inkscape (http://www.inkscape.org/) -->

<svg
   xmlns:dc="http://purl.org/dc/elements/1.1/"
   xmlns:cc="http://creativecommons.org/ns#"
   xmlns:rdf="http://www.w3.org/1999/02/22-rdf-syntax-ns#"
   xmlns:svg="http://www.w3.org/2000/svg"
   xmlns="http://www.w3.org/2000/svg"
   xmlns:sodipodi="http://sodipodi.sourceforge.net/DTD/sodipodi-0.dtd"
   xmlns:inkscape="http://www.inkscape.org/namespaces/inkscape"
   width="2.2192864mm"
   height="1.9784118mm"
   viewBox="0 0 7.8636134 7.0101205"
   id="svg5218"
   version="1.1"
   inkscape:version="0.91 r13725"
   sodipodi:docname="pencil.svg">
  <defs
     id="defs5220" />
  <sodipodi:namedview
     id="base"
     pagecolor="#ffffff"
     bordercolor="#666666"
     borderopacity="1.0"
     inkscape:pageopacity="0.0"
     inkscape:pageshadow="2"
     inkscape:zoom="64"
     inkscape:cx="3.5019673"
     inkscape:cy="5.0559851"
     inkscape:document-units="px"
     inkscape:current-layer="svg5218"
     showgrid="false"
     fit-margin-top="0"
     fit-margin-left="0"
     fit-margin-right="0"
     fit-margin-bottom="0"
     inkscape:window-width="1366"
     inkscape:window-height="715"
     inkscape:window-x="-4"
     inkscape:window-y="-4"
     inkscape:window-maximized="1" />
  <metadata
     id="metadata5223">
    <rdf:RDF>
      <cc:Work
         rdf:about="">
        <dc:format>image/svg+xml</dc:format>
        <dc:type
           rdf:resource="http://purl.org/dc/dcmitype/StillImage" />
        <dc:title></dc:title>
      </cc:Work>
    </rdf:RDF>
  </metadata>
  <g
     id="g7495"
     transform="matrix(0.73619869,0.9312093,-0.92201287,0.74354175,5.0919394,-1.5602399)">
    <path
       id="rect7414"
       d="m 1.609375,0.33789062 0,5.17187498 2.2421875,0 0,-5.17187498 -2.2421875,0 z m 0.21875,0.296875 0.28125,0 0,4.71874998 -0.28125,0 0,-4.71874998 z m 0.515625,0 0.28125,0 0,4.71874998 -0.28125,0 0,-4.71874998 z m 0.5546875,0 0.28125,0 0,4.71874998 -0.28125,0 0,-4.71874998 z m 0.4765625,0 0.28125,0 0,4.71874998 -0.28125,0 0,-4.71874998 z"
       style="opacity:1;fill:#1a1a1a;fill-opacity:1;stroke:none;stroke-width:0.1;stroke-miterlimit:4;stroke-dasharray:none;stroke-opacity:0.94117647"
       inkscape:connector-curvature="0" />
    <path
       id="path7418"
       d="M 1.6152344,5.5703125 2.7753906,7.3710938 3.8535156,5.5878906 1.6152344,5.5703125 Z m 0.78125,1.1015625 0.7226562,0.00586 -0.3476562,0.5292968 -0.375,-0.5351562 z"
       style="fill:#000000;fill-opacity:1;fill-rule:evenodd;stroke:none;stroke-width:1px;stroke-linecap:butt;stroke-linejoin:miter;stroke-opacity:1"
       inkscape:connector-curvature="0" />
  </g>
</svg>
