<svg xmlns="http://www.w3.org/2000/svg" viewBox="0 0 7.8636134 7.0101205"><g transform="matrix(1.25421 0 0 1.21711-1.569-.45)"><ellipse ry=".422" rx=".438" cy="4.682" cx="2.625"/><g fill="none" fill-rule="evenodd" stroke="#000"><path d="m1.656 1.307c.396-.224.756-.281 1.203-.281 1.792 0 3.508 1.403 3.891 3.125.103.465.113 1.092-.359 1.328"/><path d="m2 2.507c.219-.13.418-.163.665-.163.991 0 1.94.813 2.152 1.811.057.269.062.633-.199.77" stroke-width=".566"/><path d="m2.205 3.46c.137-.085.262-.107.417-.107.62 0 1.215.534 1.347 1.189.036.177.039.415-.124.505" stroke-width=".363"/></g></g></svg>