<svg xmlns="http://www.w3.org/2000/svg" viewBox="0 0 7.8636134 7.0101205"><g transform="matrix(1.08332 0 0 1.09502.005-.116)" stroke="#000"><path d="m1.213 2.141c-.159-.007-.32.046-.447.162-.254.233-.27.625-.037.879l2.252 2.451c.233.254.625.27.879.037.254-.233.27-.625.037-.879l-2.252-2.451c-.117-.127-.273-.193-.432-.199m.107.223c.14.006.278.064.381.174l1.982 2.111c.206.219.192.557-.031.758-.224.201-.57.188-.775-.031l-1.982-2.113c-.206-.219-.192-.557.031-.758.112-.101.254-.147.395-.141" fill="#1a1a1a" stroke-width=".06"/><path d="m3.734 5.396l.642.67 1.803-1.49-2.127-2.02.886-.737" fill="none" fill-rule="evenodd" stroke-width=".3"/><rect transform="matrix(.78128-.62418.6513.75882 0 0)" y="4.108" x="1.626" height=".824" width="3.052" fill="#1a1a1a" stroke-width=".04" rx=".412"/></g></svg>