<svg xmlns="http://www.w3.org/2000/svg" enable-background="new 0 0 512 512" viewBox="0 0 512 512"><path d="m159.54 17l-140.74 138.21-1.793 197.25 138.21 140.74 197.25 1.793 140.74-138.21 1.793-197.25-138.21-140.74-197.25-1.793zm-77.14 154.84c5.161 0 9.84.833 14.04 2.498 4.197 1.589 7.855 3.82 10.975 6.695 3.176 2.875 5.816 6.28 7.914 10.215 2.099 3.935 3.686 8.211 4.764 12.826l-16.762 7.49c-.737-2.346-1.758-4.503-3.063-6.471-1.305-2.043-2.892-3.783-4.764-5.221-1.872-1.513-4.03-2.685-6.467-3.518-2.382-.832-5.05-1.25-7.996-1.25-5.842 0-10.408 1.704-13.697 5.109-3.29 3.405-4.934 8.208-4.934 14.412 0 3.859.908 7.153 2.723 9.877 1.815 2.648 4.197 4.994 7.146 7.04 2.949 2.043 6.296 3.934 10.04 5.674 3.8 1.665 7.657 3.518 11.57 5.561 3.97 1.967 7.827 4.276 11.57 6.924 3.8 2.573 7.174 5.752 10.123 9.535 2.949 3.708 5.332 8.207 7.146 13.504 1.815 5.221 2.723 11.5 2.723 18.84 0 7.793-1.079 14.718-3.234 20.771-2.099 5.978-5.02 11.05-8.762 15.209-3.743 4.086-8.167 7.226-13.271 9.42-5.05 2.119-10.492 3.178-16.334 3.178-5.445 0-10.55-.944-15.314-2.836-4.708-1.816-8.991-4.429-12.848-7.834-3.8-3.481-7.09-7.642-9.869-12.484-2.779-4.918-4.935-10.402-6.467-16.455l17.1-8.287c1.248 3.632 2.781 6.962 4.596 9.988 1.872 3.03 3.997 5.638 6.379 7.832 2.382 2.119 4.992 3.784 7.828 4.994 2.893 1.211 5.984 1.816 9.273 1.816 3.29 0 6.295-.531 9.02-1.59 2.722-1.059 5.05-2.647 6.977-4.766 1.928-2.119 3.43-4.732 4.508-7.834 1.078-3.178 1.619-6.809 1.619-10.895 0-4.843-.908-8.891-2.723-12.145-1.815-3.329-4.197-6.204-7.146-8.625-2.949-2.421-6.325-4.54-10.125-6.355-3.743-1.816-7.602-3.671-11.572-5.563-3.914-1.892-7.77-4.01-11.57-6.357-3.743-2.346-7.09-5.22-10.04-8.625-2.949-3.405-5.332-7.491-7.146-12.258-1.815-4.767-2.723-10.593-2.723-17.479 0-5.751.851-11.199 2.553-16.344 1.758-5.145 4.285-9.645 7.574-13.504 3.29-3.935 7.343-7.04 12.164-9.307 4.821-2.27 10.324-3.406 16.506-3.406zm219.97 0c6.523 0 12.364 1.172 17.525 3.518 5.161 2.27 9.7 5.412 13.613 9.422 3.97 3.935 7.344 8.626 10.123 14.07 2.779 5.372 5.05 11.198 6.807 17.479 1.758 6.205 3.034 12.712 3.828 19.521.794 6.734 1.191 13.429 1.191 20.09 0 6.734-.397 13.507-1.191 20.316-.794 6.734-2.07 13.241-3.828 19.521-1.758 6.205-4.03 12.03-6.807 17.479-2.779 5.372-6.153 10.06-10.123 14.07-3.914 3.935-8.452 7.07-13.613 9.418-5.161 2.27-11 3.406-17.525 3.406-6.523 0-12.364-1.136-17.525-3.406-5.161-2.346-9.729-5.483-13.699-9.418-3.914-4.01-7.26-8.702-10.04-14.07-2.779-5.448-5.05-11.274-6.807-17.479-1.758-6.28-3.061-12.787-3.912-19.521-.794-6.81-1.191-13.582-1.191-20.316 0-6.659.397-13.354 1.191-20.09.851-6.81 2.154-13.317 3.912-19.521 1.758-6.28 4.03-12.11 6.807-17.479 2.779-5.448 6.126-10.14 10.04-14.07 3.97-4.01 8.538-7.152 13.699-9.422 5.161-2.346 11-3.518 17.525-3.518zm-157.04 2.725h87.12v23.266h-34.457v139.49h-18.12v-139.49h-34.543v-23.266zm238.86 0h49c7.487 0 13.784 1.475 18.889 4.426 5.161 2.875 9.3 6.658 12.42 11.35 3.176 4.691 5.445 10.03 6.807 16 1.418 5.902 2.129 11.916 2.129 18.04 0 3.783-.341 7.642-1.021 11.576-.624 3.935-1.617 7.757-2.979 11.465-1.361 3.632-3.12 7.07-5.275 10.326-2.155 3.254-4.734 6.092-7.74 8.514-2.949 2.421-6.352 4.349-10.209 5.787-3.857 1.362-8.199 2.043-13.02 2.043h-30.881v63.22h-18.12v-162.76zm-81.83 20.541c-4.254 0-8.05.909-11.4 2.725-3.346 1.74-6.295 4.126-8.848 7.152-2.552 3.03-4.738 6.582-6.553 10.668-1.758 4.01-3.204 8.284-4.338 12.824-1.134 4.464-1.958 9.08-2.469 13.846-.51 4.691-.764 9.233-.764 13.621 0 7.112.594 14.301 1.785 21.564 1.191 7.188 3.149 13.733 5.871 19.635 2.722 5.826 6.267 10.593 10.635 14.301 4.367 3.632 9.728 5.449 16.08 5.449 4.254 0 8.05-.873 11.4-2.613 3.346-1.816 6.266-4.237 8.762-7.264 2.552-3.03 4.709-6.542 6.467-10.553 1.815-4.086 3.289-8.362 4.424-12.826 1.134-4.54 1.958-9.156 2.469-13.848.51-4.767.764-9.381.764-13.846 0-4.691-.253-9.458-.764-14.301-.51-4.918-1.334-9.61-2.469-14.07-1.134-4.54-2.609-8.776-4.424-12.711-1.758-3.935-3.914-7.34-6.467-10.215-2.496-2.951-5.415-5.257-8.762-6.922-3.346-1.74-7.147-2.613-11.4-2.613zm99.95 2.725v53h31.902c3.8 0 6.977-.796 9.529-2.385 2.609-1.589 4.707-3.632 6.295-6.129 1.645-2.573 2.81-5.408 3.49-8.51.737-3.178 1.104-6.32 1.104-9.422 0-2.875-.31-5.863-.934-8.965-.624-3.102-1.701-5.941-3.232-8.514-1.531-2.648-3.631-4.804-6.297-6.469-2.609-1.74-5.928-2.611-9.955-2.611h-31.902z" stroke="#000" stroke-width="8.8"/></svg>