<?xml version="1.0" encoding="UTF-8" standalone="no"?>
<!-- Created with Inkscape (http://www.inkscape.org/) -->

<svg
   xmlns:dc="http://purl.org/dc/elements/1.1/"
   xmlns:cc="http://creativecommons.org/ns#"
   xmlns:rdf="http://www.w3.org/1999/02/22-rdf-syntax-ns#"
   xmlns:svg="http://www.w3.org/2000/svg"
   xmlns="http://www.w3.org/2000/svg"
   xmlns:sodipodi="http://sodipodi.sourceforge.net/DTD/sodipodi-0.dtd"
   xmlns:inkscape="http://www.inkscape.org/namespaces/inkscape"
   width="2.2192864mm"
   height="1.9784118mm"
   viewBox="0 0 7.8636134 7.0101205"
   id=""
   version="1.1"
   inkscape:version="0.91 r13725"
   sodipodi:docname="warning.svg">
  <defs
     id="defs5220" />
  <sodipodi:namedview
     id="base"
     pagecolor="#ffffff"
     bordercolor="#666666"
     borderopacity="1.0"
     inkscape:pageopacity="0.0"
     inkscape:pageshadow="2"
     inkscape:zoom="115.85237"
     inkscape:cx="1.822531"
     inkscape:cy="0.89649342"
     inkscape:document-units="px"
     inkscape:current-layer="svg5218"
     showgrid="false"
     fit-margin-top="0"
     fit-margin-left="0"
     fit-margin-right="0"
     fit-margin-bottom="0"
     inkscape:window-width="1366"
     inkscape:window-height="715"
     inkscape:window-x="-4"
     inkscape:window-y="-4"
     inkscape:window-maximized="1" />
  <metadata
     id="metadata5223">
    <rdf:RDF>
      <cc:Work
         rdf:about="">
        <dc:format>image/svg+xml</dc:format>
        <dc:type
           rdf:resource="http://purl.org/dc/dcmitype/StillImage" />
        <dc:title />
      </cc:Work>
    </rdf:RDF>
  </metadata>
  <g
     inkscape:label="Laag 1"
     inkscape:groupmode="layer"
     transform="translate(-41.782479,-640.28572)">
    <g
       id="g6338"
       inkscape:export-filename="C:\xampp\htdocs\aulis\Aulis\library\icons\mail.png"
       inkscape:export-xdpi="562.96002"
       inkscape:export-ydpi="562.96002"
       transform="matrix(2.0281712,0,0,2.3705107,-594.82975,-750.05401)">
      <path
         style="fill:none;fill-rule:evenodd;stroke:#000000;stroke-width:0.26721498;stroke-linecap:butt;stroke-linejoin:miter;stroke-miterlimit:4;stroke-dasharray:none;stroke-opacity:1"
         d="m 315.85548,586.79435 -1.68985,2.50646 3.32058,-10e-4 z"
         id="path5186"
         inkscape:connector-curvature="0"
         inkscape:export-filename="C:\xampp\htdocs\aulis\Aulis\library\icons\warning_red.png"
         inkscape:export-xdpi="680.92999"
         inkscape:export-ydpi="680.92999"
         sodipodi:nodetypes="cccc" />
      <g
         transform="scale(1.2397697,0.80660142)"
         style="font-style:normal;font-variant:normal;font-weight:normal;font-stretch:normal;font-size:2.72250986px;line-height:125%;font-family:Overpass;-inkscape-font-specification:Overpass;letter-spacing:0.28710106px;word-spacing:0px;fill:#000000;fill-opacity:1;stroke:none;stroke-width:1px;stroke-linecap:butt;stroke-linejoin:miter;stroke-opacity:1"
         id="text7113">
        <path
           d="m 254.68984,729.7943 -0.0798,-0.80957 0,-0.60353 0.28315,0 0,0.60353 -0.0784,0.80957 -0.12496,0 z m 0.0625,0.55833 q -0.0439,0 -0.0811,-0.0159 -0.0372,-0.0159 -0.0651,-0.0425 -0.0279,-0.0279 -0.0439,-0.0638 -0.0146,-0.0359 -0.0146,-0.0771 0,-0.0412 0.0146,-0.0771 0.016,-0.0372 0.0439,-0.0638 0.0279,-0.0279 0.0651,-0.0439 0.0372,-0.0159 0.0811,-0.0159 0.0425,0 0.0798,0.0159 0.0386,0.016 0.0665,0.0439 0.0279,0.0266 0.0439,0.0638 0.016,0.0359 0.016,0.0771 0,0.0412 -0.016,0.0771 -0.016,0.0359 -0.0439,0.0638 -0.0279,0.0266 -0.0665,0.0425 -0.0372,0.0159 -0.0798,0.0159 z"
           style=""
           id="path7118" />
      </g>
    </g>
  </g>
</svg>
