<svg xmlns="http://www.w3.org/2000/svg" viewBox="0 0 7.8636134 7.0101205"><g transform="matrix(2.02817 0 0 2.37051-636.61-1390.34)"><path d="m315.86 586.79l-1.69 2.506h3.321z" fill="none" fill-rule="evenodd" stroke="#000" stroke-width=".267"/><path fill="#000" d="m254.69 729.79l-.08-.81v-.604h.283v.604l-.078.81h-.125m.063.558q-.044 0-.081-.016-.037-.016-.065-.043-.028-.028-.044-.064-.015-.036-.015-.077 0-.041.015-.077.016-.037.044-.064.028-.028.065-.044.037-.016.081-.016.042 0 .08.016.039.016.066.044.028.027.044.064.016.036.016.077 0 .041-.016.077-.016.036-.044.064-.028.027-.066.043-.037.016-.08.016" transform="scale(1.23977.8066)"/></g></svg>