<svg xmlns="http://www.w3.org/2000/svg" viewBox="0 0 7.8636134 7.0101205"><g transform="matrix(.93297 0 0 .89966-109.14-589.59)" stroke="#000"><ellipse ry="3.253" rx="3.171" cy="659.25" cx="121.2" fill="none" stroke-width=".951"/><g transform="matrix(.05424 0 0 .04953 114.73 626.05)" stroke-width="3.039" fill-rule="evenodd"><path d="m117.14 679.63c-2.067-.348-6.107 4.956-9.807 4.059-3.7-.896-6.516-6.261-8.259-9.472-1.743-3.211-3.479-5.654-2.581-8.931.899-3.277 6.33-5.144 8-7.307 1.67-2.163.752-3.4 2.581-4.871 1.829-1.471 5.888-1.639 8.259-2.165 2.37-.526 5.936-1.082 5.936-1.082 0 0 .689.441 1.548 1.353.859.912 1.497 3.316 3.355 4.33 1.858 1.014 4.465.158 7.226.541 2.761.383 5.223-1.198 9.291 1.894 4.068 3.092 6.463 16.724 10.07 18.944 3.602 2.219 2.833-2.838 4.387 0 1.555 2.838-5.991 9.807-7.226 12.99-1.235 3.183-.281 2.768-1.29 5.412-1.01 2.645-5.01 7.583-5.42 10.01-.411 2.43 1.161 1.279.516 3.247-.645 1.968-3.947 4.847-6.452 6.224-2.505 1.377-6.362 3.268-8 1.894-1.639-1.374.571-2.622 0-4.601-.571-1.979-3.659-4.049-4.129-6.495-.47-2.446 1.065-5.315 1.29-7.04.226-1.721.435-2.175.258-3.247-.177-1.072-.737-1.932-1.29-2.977-.554-1.045-1.542-1.695-2.065-3.247-.523-1.553.453-4.464-.516-5.954-.969-1.489-3.204-1.531-4.129-2.165-.925-.634.518-1-1.548-1.353z"/><path d="m106.92 649.54l-.274-6.219 4.653-1.34 1.916-.765-.091-2.296v-.765l.365-1.914 2.555-.191 2.281-1.052 1.916-2.488 1.46-1.148 1-.191c0 0 1 .478 1.186.861.182.383 1.277 1.818 1.277 1.818l1.916 1.052 3.102-1.244.639-1.627.183-2.679-1.551-1.722h-1.277l-1.095 1.627-.821 1.531-1 .191-1.734-.957v-2.583l-.547-.191-3.194.191c0 0-.851-1.692-.456-2.392.617-1.094 2.34-.682 3.467-1.148 1.379-.57 2.589-1.583 4.01-2.01 1.059-.317 2.184-.336 3.285-.383 1-.042 2.01.036 3.01.096 1.097.065 2.189.205 3.285.287 1.033.077 2.069.116 3.102.191.761.055 1.617-.201 2.281.191.816.482.891 1.858 1.642 2.392.751.534 1.845.599 2.555.67.71.071.715-.24 1.642-.096.928.145 2.32.621 3.741 1.435 1.421.814 3.459 2.438 4.562 3.636 1.103 1.198 1.489 2.148 2.19 3.253.476.752.862 1.566 1.369 2.296 1.473 2.123 3.446 3.844 4.836 6.03 2.205 3.465 4.148 7.173 5.475 11.1.653 1.934.846 4.01 1.186 6.03.363 2.159.731 4.322.912 6.506.19 2.289 2.282 6.232.182 6.889-2.054.643-1.98-4.03-3.376-5.741-1.405-1.717-3.134-3.143-4.927-4.401-1.108-.777-2.327-1.378-3.559-1.914-.915-.398-2.829-.957-2.829-.957l-1-.096 1.277 3.253c0 0 1.824 1.505 2.829 2.105.521.311 1.249.291 1.642.765.581.701.993 1.792.73 2.679-.468 1.579-2.404 2.143-3.65 3.157-1.1.896-3.376 2.583-3.376 2.583h-2.646l-1.916-3.827-2.01-4.306-2.01-4.593-2.646-2.392-1.095-1.531 1.369-2.105v-3.54l-2.281 1.34-1.551-1.531-1.734-1.818-.912-2.105 2.099-1.914 1.186-.191 4.01.096h2.372l1.186-1.148-1.642-2.105-2.281-1.435-1.46-1.818-2.372 1.818-2.372 1.722-.912 2.201-.091 1.531-5.02-.383-2.555-1.435-2.555-2.775-1.734-.861-1.369.861 2.01 2.775 1.916 1.627.091.765-1.825.191-1.551-1.722-2.464-2.392-1.642-.765-.912.287-3.285.765-1.186 2.105-1.277 2.583-1.369 1.244-1.825.765h-3.102-.821z"/><path d="m106.92 632.12l-.912 2.105 2.01.096.639-1.148-.547-1.34z"/><path d="m109.66 628.97l.547 3.157-.821 2.679 1.642.096 1-.478 2.281-.574-.456-.861-1.916-2.01-1.186-1.435-.182-.574z"/><path d="m107.1 624.18l-1.734.957 2.099.957 1.916-.765-.456-.574z"/><path d="m112.67 625.52l-.639 1.052z"/><path d="m82.1 630.69c0 0 2.73 2.37 4.289 2.105 2.4-.407 3.483-3.56 5.292-5.262 1.96-1.843 4.278-3.29 6.02-5.358.844-1 2.953-2.359 2.099-3.349-1.497-1.734-4.03 2.034-5.931 3.253-1.62 1.038-3.129 2.258-4.654 3.444-2.384 1.855-7.03 5.741-7.03 5.741"/><path d="m66.42 669.34l.774-8.931 6.323-9.07-1.419-1.624 3.871-4.33v-5.954c0 0-3.484 4.217-4.387 6.224-.903 2.01-.528 3.351-1.29 5.412-.763 2.062-2.684 3.678-3.484 6.766-.8 3.088-.387 11.502-.387 11.502z"/><path d="m67.59 684.65l.912 5.741 2.19 5.358 4.01 6.315 4.38 5.358 2.92 4.21 4.562.765v-6.889l.73-1.531-.365-3.253-6.205-3.444-2.555-2.87-1.095-3.444z"/><path d="m150.81 705.89l-.182-3.253 1.825-3.827 3.467-2.87.365 4.593-2.372 4.784-2.01 2.105z"/></g></g></svg>