<?xml version="1.0" encoding="UTF-8" standalone="no"?>
<!-- Created with Inkscape (http://www.inkscape.org/) -->

<svg
   xmlns:dc="http://purl.org/dc/elements/1.1/"
   xmlns:cc="http://creativecommons.org/ns#"
   xmlns:rdf="http://www.w3.org/1999/02/22-rdf-syntax-ns#"
   xmlns:svg="http://www.w3.org/2000/svg"
   xmlns="http://www.w3.org/2000/svg"
   xmlns:sodipodi="http://sodipodi.sourceforge.net/DTD/sodipodi-0.dtd"
   xmlns:inkscape="http://www.inkscape.org/namespaces/inkscape"
   viewBox="0 0 7.8636134 7.0101205"
   id="svg5218"
   version="1.1"
   inkscape:version="0.91 r13725"
   sodipodi:docname="world.svg">
  <defs
     id="defs5220" />
  <sodipodi:namedview
     id="base"
     pagecolor="#ffffff"
     bordercolor="#666666"
     borderopacity="1.0"
     inkscape:pageopacity="0.0"
     inkscape:pageshadow="2"
     inkscape:zoom="63.356768"
     inkscape:cx="2.9061133"
     inkscape:cy="4.1742109"
     inkscape:document-units="px"
     inkscape:current-layer="g6338"
     showgrid="false"
     fit-margin-top="0"
     fit-margin-left="0"
     fit-margin-right="0"
     fit-margin-bottom="0"
     inkscape:window-width="1366"
     inkscape:window-height="715"
     inkscape:window-x="-4"
     inkscape:window-y="-4"
     inkscape:window-maximized="1" />
  <metadata
     id="metadata5223">
    <rdf:RDF>
      <cc:Work
         rdf:about="">
        <dc:format>image/svg+xml</dc:format>
        <dc:type
           rdf:resource="http://purl.org/dc/dcmitype/StillImage" />
        <dc:title></dc:title>
      </cc:Work>
    </rdf:RDF>
  </metadata>
  <g
     inkscape:label="Laag 1"
     inkscape:groupmode="layer"
     id="layer1"
     transform="translate(-41.782479,-640.28572)">
    <g
       id="g6338"
       inkscape:export-filename="C:\xampp\htdocs\aulis\Aulis\library\icons\mail.png"
       inkscape:export-xdpi="562.96002"
       inkscape:export-ydpi="562.96002"
       transform="matrix(2.0281712,0,0,2.3705107,-594.82975,-750.05401)">
      <g
         id="g6632"
         transform="matrix(0.46000613,0,0,0.37951975,260.07046,337.79495)">
        <ellipse
           ry="3.2531202"
           rx="3.1707692"
           cy="659.25031"
           cx="121.20055"
           id="path6534"
           style="opacity:1;fill:none;fill-opacity:1;stroke:#000000;stroke-width:0.95139968;stroke-miterlimit:4;stroke-dasharray:none;stroke-opacity:1" />
        <g
           style="fill:#000000;stroke:#000000;stroke-width:3.0389204;stroke-miterlimit:4;stroke-dasharray:none;stroke-opacity:1"
           id="g6575"
           transform="matrix(0.05423825,0,0,0.0495301,114.73272,626.04676)">
          <path
             style="fill:#000000;fill-rule:evenodd;stroke:#000000;stroke-width:3.0389204;stroke-linecap:butt;stroke-linejoin:miter;stroke-miterlimit:4;stroke-dasharray:none;stroke-opacity:1"
             d="m 117.13637,679.62753 c -2.06666,-0.34836 -6.10745,4.95581 -9.80705,4.05936 -3.6996,-0.89645 -6.51586,-6.2612 -8.258565,-9.47184 -1.742702,-3.21064 -3.47939,-5.6539 -2.580803,-8.93059 0.898587,-3.27669 6.330298,-5.14407 8.000488,-7.30684 1.67019,-2.16277 0.7523,-3.40048 2.5808,-4.87124 1.8285,-1.47076 5.88814,-1.63887 8.25857,-2.16499 2.37043,-0.52612 5.93585,-1.08249 5.93585,-1.08249 0,0 0.6893,0.44091 1.54848,1.35312 0.85918,0.91221 1.4974,3.31613 3.35504,4.32998 1.85764,1.01385 4.46543,0.15782 7.22625,0.54125 2.76082,0.38343 5.22313,-1.19783 9.29089,1.89437 4.06776,3.0922 6.463,16.72423 10.06513,18.94367 3.60213,2.21944 2.83269,-2.83832 4.38737,0 1.55468,2.83832 -5.99091,9.8072 -7.22625,12.98995 -1.23534,3.18275 -0.28119,2.76759 -1.2904,5.41248 -1.00921,2.64489 -5.00872,7.58338 -5.41969,10.01308 -0.41097,2.4297 1.16099,1.27949 0.51616,3.24749 -0.64483,1.968 -3.94725,4.84721 -6.452,6.22435 -2.50475,1.37714 -6.36156,3.26816 -8.00049,1.89437 -1.63893,-1.37379 0.57143,-2.62157 0,-4.60061 -0.57143,-1.97904 -3.65886,-4.04903 -4.12929,-6.49497 -0.47043,-2.44594 1.06484,-5.31509 1.2904,-7.03623 0.22556,-1.72114 0.43542,-2.17537 0.25808,-3.24748 -0.17734,-1.07211 -0.73651,-1.93195 -1.2904,-2.97687 -0.55389,-1.04492 -1.54187,-1.69451 -2.06464,-3.24748 -0.52277,-1.55297 0.45327,-4.46435 -0.51616,-5.95373 -0.96943,-1.48938 -3.20417,-1.53055 -4.12928,-2.16499 -0.92511,-0.63444 0.51817,-1.00476 -1.54849,-1.35312 z"
             id="path6551"
             inkscape:connector-curvature="0"
             sodipodi:nodetypes="zzzzzzzczzzzzzzzzzzzzzzzzzzzz" />
          <path
             style="fill:#000000;fill-rule:evenodd;stroke:#000000;stroke-width:3.0389204;stroke-linecap:butt;stroke-linejoin:miter;stroke-miterlimit:4;stroke-dasharray:none;stroke-opacity:1"
             d="m 106.92068,649.53876 -0.27373,-6.2192 4.6535,-1.33952 1.91615,-0.76544 -0.0913,-2.29632 0,-0.76545 0.36498,-1.91359 2.55487,-0.19136 2.28113,-1.05248 1.91614,-2.48769 1.45993,-1.14815 1.0037,-0.19136 c 0,0 1.00369,0.4784 1.18619,0.86112 0.18248,0.38271 1.27742,1.81792 1.27742,1.81792 l 1.91615,1.05248 3.10234,-1.24385 0.63871,-1.62655 0.1825,-2.67904 -1.55118,-1.72224 -1.27742,0 -1.09495,1.62656 -0.82121,1.53088 -1.00369,0.19136 -1.73366,-0.95681 0,-2.58335 -0.54747,-0.19137 -3.19358,0.19137 c 0,0 -0.85074,-1.69198 -0.45622,-2.392 0.61665,-1.09415 2.33977,-0.68195 3.46731,-1.14816 1.3795,-0.57039 2.58884,-1.58258 4.01478,-2.00928 1.05939,-0.31701 2.18404,-0.33633 3.28483,-0.38273 1.00335,-0.0423 2.00855,0.036 3.01109,0.0957 1.09697,0.0653 2.18886,0.20537 3.28483,0.28704 1.03329,0.077 2.06892,0.11614 3.10233,0.19135 0.76098,0.0554 1.61663,-0.20142 2.28113,0.19137 0.81621,0.48246 0.8914,1.85799 1.64241,2.392 0.75101,0.53401 1.84499,0.59903 2.55487,0.66976 0.70988,0.0707 0.71454,-0.24037 1.64242,-0.0957 0.92788,0.14467 2.32048,0.62084 3.74104,1.43519 1.42056,0.81435 3.45936,2.43788 4.56227,3.63585 1.10291,1.19797 1.48919,2.14771 2.18988,3.25311 0.4765,0.75173 0.86223,1.56643 1.36867,2.29632 1.47321,2.12321 3.44623,3.84365 4.83599,6.02785 2.20459,3.46482 4.14847,7.17268 5.47471,11.09888 0.65325,1.93388 0.84602,4.00747 1.18619,6.02783 0.36346,2.15869 0.73104,4.32244 0.91246,6.50625 0.19012,2.28854 2.28162,6.23168 0.18248,6.88896 -2.05436,0.64326 -1.98032,-4.03425 -3.37607,-5.7408 -1.40457,-1.71733 -3.1341,-3.14311 -4.92724,-4.40128 -1.10791,-0.77738 -2.32709,-1.37834 -3.55855,-1.9136 -0.91521,-0.39779 -2.82861,-0.9568 -2.82861,-0.9568 l -1.00369,-0.0957 1.27742,3.25311 c 0,0 1.82394,1.50498 2.82861,2.10497 0.5206,0.3109 1.24943,0.29124 1.64241,0.76543 0.58097,0.70103 0.99284,1.79215 0.72996,2.67905 -0.46812,1.57932 -2.40393,2.14331 -3.6498,3.15744 -1.10047,0.89578 -3.37607,2.58336 -3.37607,2.58336 l -2.64612,0 -1.91614,-3.82721 -2.00739,-4.30559 -2.0074,-4.59264 -2.64611,-2.392 -1.09494,-1.53088 1.36868,-2.10496 0,-3.54017 -2.28113,1.33953 -1.55117,-1.53088 -1.73365,-1.81792 -0.91246,-2.10497 2.09863,-1.91359 1.18619,-0.19136 4.01479,0.0957 2.37238,0 1.18619,-1.14816 -1.64241,-2.10497 -2.28113,-1.43519 -1.45993,-1.81792 -2.37237,1.81792 -2.37238,1.72224 -0.91245,2.20064 -0.0913,1.53088 -5.01849,-0.38272 -2.55487,-1.4352 -2.55486,-2.77473 -1.73366,-0.86111 -1.36867,0.86111 2.00739,2.77473 1.91615,1.62656 0.0913,0.76544 -1.8249,0.19136 -1.55116,-1.72224 -2.46363,-2.39201 -1.64241,-0.76543 -0.91245,0.28704 -3.28482,0.76544 -1.18619,2.10496 -1.27744,2.58336 -1.36867,1.24384 -1.8249,0.76544 -3.10235,0 -0.8212,0 z"
             id="path6555"
             inkscape:connector-curvature="0"
             sodipodi:nodetypes="cccccccccccccccccccccccccccaaaaaaaazzzzzaaaaaaaaaacccaaaacccccccccccccccccccccccccccccccccccccccccccccc" />
          <path
             style="fill:#000000;fill-rule:evenodd;stroke:#000000;stroke-width:3.0389204;stroke-linecap:butt;stroke-linejoin:miter;stroke-miterlimit:4;stroke-dasharray:none;stroke-opacity:1"
             d="m 106.92068,632.125 -0.91245,2.10495 2.00739,0.0957 0.63872,-1.14816 -0.54747,-1.33953 z"
             id="path6557"
             inkscape:connector-curvature="0" />
          <path
             style="fill:#000000;fill-rule:evenodd;stroke:#000000;stroke-width:3.0389204;stroke-linecap:butt;stroke-linejoin:miter;stroke-miterlimit:4;stroke-dasharray:none;stroke-opacity:1"
             d="m 109.65803,628.96755 0.54742,3.15745 -0.82116,2.67903 1.64242,0.0957 1.0037,-0.4784 2.28113,-0.57408 -0.45622,-0.86113 -1.91616,-2.00927 -1.18618,-1.43521 -0.18249,-0.57408 z"
             id="path6559"
             inkscape:connector-curvature="0"
             sodipodi:nodetypes="ccccccccccc" />
          <path
             style="fill:#000000;fill-rule:evenodd;stroke:#000000;stroke-width:3.0389204;stroke-linecap:butt;stroke-linejoin:miter;stroke-miterlimit:4;stroke-dasharray:none;stroke-opacity:1"
             d="m 107.10317,624.18356 -1.73366,0.9568 2.09864,0.95679 1.91615,-0.76543 -0.45622,-0.57408 z"
             id="path6561"
             inkscape:connector-curvature="0" />
          <path
             style="fill:#000000;fill-rule:evenodd;stroke:#000000;stroke-width:3.0389204;stroke-linecap:butt;stroke-linejoin:miter;stroke-miterlimit:4;stroke-dasharray:none;stroke-opacity:1"
             d="m 112.66913,625.52307 -0.63872,1.05248 z"
             id="path6563"
             inkscape:connector-curvature="0" />
          <path
             style="fill:#000000;fill-rule:evenodd;stroke:#000000;stroke-width:3.0389204;stroke-linecap:butt;stroke-linejoin:miter;stroke-miterlimit:4;stroke-dasharray:none;stroke-opacity:1"
             d="m 82.101999,630.68979 c 0,0 2.730453,2.36952 4.288523,2.10497 2.399854,-0.40748 3.48262,-3.56002 5.292219,-5.2624 1.959589,-1.84348 4.277817,-3.29048 6.022181,-5.35808 0.84402,-1.00042 2.953478,-2.35853 2.098636,-3.3488 -1.497269,-1.73448 -4.026883,2.03365 -5.930933,3.25311 -1.620364,1.03777 -3.128651,2.25819 -4.653504,3.44448 -2.38444,1.85502 -7.025876,5.7408 -7.025876,5.7408"
             id="path6565"
             inkscape:connector-curvature="0"
             sodipodi:nodetypes="caaaaaac" />
          <path
             style="fill:#000000;fill-rule:evenodd;stroke:#000000;stroke-width:3.0389204;stroke-linecap:butt;stroke-linejoin:miter;stroke-miterlimit:4;stroke-dasharray:none;stroke-opacity:1"
             d="m 66.4236,669.34382 0.774241,-8.93059 6.322967,-9.0659 -1.419442,-1.62374 3.871204,-4.32999 0,-5.95372 c 0,0 -3.484246,4.21664 -4.387365,6.22435 -0.903119,2.00771 -0.5277,3.35083 -1.290401,5.41248 -0.762701,2.06165 -2.68431,3.67784 -3.484084,6.76559 -0.799774,3.08775 -0.38712,11.50152 -0.38712,11.50152 z"
             id="path6567"
             inkscape:connector-curvature="0"
             sodipodi:nodetypes="cccccczzzc" />
          <path
             style="fill:#000000;fill-rule:evenodd;stroke:#000000;stroke-width:3.0389204;stroke-linecap:butt;stroke-linejoin:miter;stroke-miterlimit:4;stroke-dasharray:none;stroke-opacity:1"
             d="m 67.59402,684.65332 0.912451,5.7408 2.189884,5.35808 4.014787,6.31488 4.379768,5.35808 2.919845,4.20993 4.562257,0.76543 0,-6.88896 0.729961,-1.53088 -0.36498,-3.25312 -6.204671,-3.44448 -2.554864,-2.8704 -1.094942,-3.44448 z"
             id="path6569"
             inkscape:connector-curvature="0" />
          <path
             style="fill:#000000;fill-rule:evenodd;stroke:#000000;stroke-width:3.0389204;stroke-linecap:butt;stroke-linejoin:miter;stroke-miterlimit:4;stroke-dasharray:none;stroke-opacity:1"
             d="m 150.8096,705.89428 -0.18249,-3.25312 1.82491,-3.8272 3.46732,-2.87039 0.36497,4.59263 -2.37237,4.784 -2.00739,2.10496 z"
             id="path6573"
             inkscape:connector-curvature="0" />
        </g>
      </g>
    </g>
  </g>
</svg>
