<svg xmlns="http://www.w3.org/2000/svg" viewBox="0 0 7.8636134 7.0101205"><path d="M5.616061.488417A1.758206 1.839277 57.60959 0 0 3.847208 2.384914 1.758206 1.839277 57.60959 0 0 5.709908 4.044209 1.758206 1.839277 57.60959 0 0 7.478762 2.147713 1.758206 1.839277 57.60959 0 0 7.427292 1.778997L6.154 2.742 5.507 2.417 5.68 1.573 6.706.768A1.758206 1.839277 57.60959 0 0 5.616061 .488417"/><path d="m5.278 3.509l-.943-.993-4.052 2.958.946.992 4.05-2.957m-3.756 2.279c.015.022.001.055-.001.075l-.253.248c-.02.02-.05.019-.065-.003l-.363-.523c-.015-.022-.012-.054.008-.074l.255-.249c.02-.02.048-.018.063.004l.365.522"/><path d="m1.297 5.03l-.588.369c-.019.012-.025.036-.014.055l.477.76c.012.019.036.023.055.012l.588-.367c.019-.012.025-.036.014-.055l-.477-.762c-.012-.019-.036-.023-.055-.012m-.050781.242188a.269531 .277344 0 0 1 .269531 .277344 .269531 .277344 0 0 1 -.269531 .277344 .269531 .277344 0 0 1 -.269531 -.277344 .269531 .277344 0 0 1 .269531 -.277344"/></svg>